<svg width="118" height="313" viewBox="0 0 118 313" fill="none" xmlns="http://www.w3.org/2000/svg">
<path d="M107.84 195.45H98.1001V205.2H107.84V195.45Z" fill="#A46C35"/>
<path d="M107.84 39.55H98.1001V49.3H107.84V39.55Z" fill="#A46C35"/>
<path d="M98.1001 59.04H88.3501V68.79H98.1001V59.04Z" fill="#A46C35"/>
<path d="M98.1001 49.3H88.3501V59.04H98.1001V49.3Z" fill="#A46C35"/>
<path d="M98.1001 39.55H88.3501V49.3H98.1001V39.55Z" fill="#A46C35"/>
<path d="M98.1001 29.81H88.3501V39.55H98.1001V29.81Z" fill="#A46C35"/>
<path d="M88.3601 68.78H78.6101V78.53H88.3601V68.78Z" fill="#A46C35"/>
<path d="M88.3601 59.04H78.6101V68.79H88.3601V59.04Z" fill="#A46C35"/>
<path d="M88.3601 49.3H78.6101V59.04H88.3601V49.3Z" fill="#A46C35"/>
<path d="M88.3601 29.81H78.6101V39.55H88.3601V29.81Z" fill="#A46C35"/>
<path d="M88.3601 20.06H78.6101V29.81H88.3601V20.06Z" fill="#A46C35"/>
<path d="M78.6101 68.78H68.8701V78.53H78.6101V68.78Z" fill="#A46C35"/>
<path d="M78.6101 59.04H68.8701V68.79H78.6101V59.04Z" fill="#A46C35"/>
<path d="M78.6101 49.3H68.8701V59.04H78.6101V49.3Z" fill="#A46C35"/>
<path d="M78.6101 39.55H68.8701V49.3H78.6101V39.55Z" fill="#A46C35"/>
<path d="M78.6101 29.81H68.8701V39.55H78.6101V29.81Z" fill="#A46C35"/>
<path d="M78.6101 20.06H68.8701V29.81H78.6101V20.06Z" fill="#A46C35"/>
<path d="M68.8701 98.02H59.1201V107.76H68.8701V98.02Z" fill="#A46C35"/>
<path d="M68.8701 88.27H59.1201V98.02H68.8701V88.27Z" fill="#A46C35"/>
<path d="M68.8701 78.53H59.1201V88.27H68.8701V78.53Z" fill="#A46C35"/>
<path d="M68.8701 68.78H59.1201V78.53H68.8701V68.78Z" fill="#A46C35"/>
<path d="M68.8701 59.04H59.1201V68.79H68.8701V59.04Z" fill="white"/>
<path d="M68.8701 49.3H59.1201V59.04H68.8701V49.3Z" fill="#A46C35"/>
<path d="M68.8701 39.55H59.1201V49.3H68.8701V39.55Z" fill="#A46C35"/>
<path d="M68.8701 29.81H59.1201V39.55H68.8701V29.81Z" fill="#A46C35"/>
<path d="M68.8701 20.06H59.1201V29.81H68.8701V20.06Z" fill="#A46C35"/>
<path d="M59.1201 98.02H49.3801V107.76H59.1201V98.02Z" fill="#A46C35"/>
<path d="M59.1201 88.27H49.3801V98.02H59.1201V88.27Z" fill="#A46C35"/>
<path d="M59.1201 78.53H49.3801V88.27H59.1201V78.53Z" fill="#A46C35"/>
<path d="M59.1201 68.78H49.3801V78.53H59.1201V68.78Z" fill="#A46C35"/>
<path d="M59.1201 59.04H49.3801V68.79H59.1201V59.04Z" fill="white"/>
<path d="M59.1201 49.3H49.3801V59.04H59.1201V49.3Z" fill="#A46C35"/>
<path d="M59.1201 39.55H49.3801V49.3H59.1201V39.55Z" fill="#A46C35"/>
<path d="M59.1201 29.81H49.3801V39.55H59.1201V29.81Z" fill="#A46C35"/>
<path d="M59.1201 20.06H49.3801V29.81H59.1201V20.06Z" fill="#A46C35"/>
<path d="M68.8701 98.02V107.75H49.3801V98.02H39.6401V117.5H49.3801V127.25H68.8701V117.5H78.6101V98.02H68.8701Z" fill="#FFBF00"/>
<path d="M49.3901 68.78H39.6401V78.53H49.3901V68.78Z" fill="#A46C35"/>
<path d="M49.3901 59.04H39.6401V68.79H49.3901V59.04Z" fill="#A46C35"/>
<path d="M49.3901 49.3H39.6401V59.04H49.3901V49.3Z" fill="#A46C35"/>
<path d="M49.3901 39.55H39.6401V49.3H49.3901V39.55Z" fill="#A46C35"/>
<path d="M49.3901 29.81H39.6401V39.55H49.3901V29.81Z" fill="#A46C35"/>
<path d="M49.3901 20.06H39.6401V29.81H49.3901V20.06Z" fill="#A46C35"/>
<path d="M88.3601 283.14H68.8701V292.89H88.3601V283.14Z" fill="#448AFF"/>
<path d="M78.6101 195.45V117.5H68.8701V127.25H49.3801V117.5H39.6401V195.45H78.6101Z" fill="#448AFF"/>
<path d="M49.3901 283.14H29.8901V292.89H49.3901V283.14Z" fill="#448AFF"/>
<path d="M78.6101 205.2V195.45H39.6401V205.2H29.8901V283.14H49.3801V205.2H68.8701V283.14H88.3601V205.2H78.6101Z" fill="#1A237E"/>
<path d="M39.6401 68.78H29.8901V78.53H39.6401V68.78Z" fill="#A46C35"/>
<path d="M39.6401 59.04H29.8901V68.79H39.6401V59.04Z" fill="#A46C35"/>
<path d="M39.6401 49.3H29.8901V59.04H39.6401V49.3Z" fill="#A46C35"/>
<path d="M39.6401 29.81H29.8901V39.55H39.6401V29.81Z" fill="#A46C35"/>
<path d="M39.6401 20.06H29.8901V29.81H39.6401V20.06Z" fill="#A46C35"/>
<path d="M29.8901 59.04H20.1501V68.79H29.8901V59.04Z" fill="#A46C35"/>
<path d="M29.8901 49.3H20.1501V59.04H29.8901V49.3Z" fill="#A46C35"/>
<path d="M29.8901 39.55H20.1501V49.3H29.8901V39.55Z" fill="#A46C35"/>
<path d="M29.8901 29.81H20.1501V39.55H29.8901V29.81Z" fill="#A46C35"/>
<path d="M20.1501 195.45H10.4001V205.2H20.1501V195.45Z" fill="#A46C35"/>
<path d="M98.1001 117.5V107.75H88.3601V98.02H78.6101V205.2H98.1001V195.45H107.84V117.5H98.1001Z" fill="#FF1744"/>
<path d="M29.8901 107.75H20.1501V117.5H10.4001V195.45H20.1501V205.2H39.6401V98.02H29.8901V107.75Z" fill="#FF1744"/>
<path d="M20.1501 39.55H10.4001V49.3H20.1501V39.55Z" fill="#A46C35"/>
<path d="M88.3601 292.89H68.8701V312.38H98.1001V302.64H88.3601V292.89Z" fill="black"/>
<path d="M29.8901 292.89V302.64H20.1501V312.38H49.3801V292.89H29.8901Z" fill="black"/>
<path d="M107.84 20.06V10.32H98.1002V0.580017H20.1502V10.32H10.4002V20.06H0.660156V68.78H10.4002V78.53H20.1502V88.27H49.3802V78.53H29.8902V68.78H20.1502V49.3H10.4002V39.55H20.1502V29.81H29.8902V20.06H88.3602V29.81H98.1002V39.55H107.84V49.3H98.1002V68.78H88.3602V78.53H68.8702V88.27H98.1002V78.53H107.84V68.78H117.59V20.06H107.84Z" fill="black"/>
<path d="M88.3601 39.55H78.6101V49.3H88.3601V39.55Z" fill="black"/>
<path d="M39.6401 39.55H29.8901V49.3H39.6401V39.55Z" fill="black"/>
</svg>
