<svg width="138" height="313" viewBox="0 0 138 313" fill="none" xmlns="http://www.w3.org/2000/svg">
<path d="M88.6101 146.74H78.8701V156.49H88.6101V146.74Z" fill="#1A237E"/>
<path d="M78.8801 59.04H69.1301V68.79H78.8801V59.04Z" fill="white"/>
<path d="M69.1301 59.04H59.3901V68.79H69.1301V59.04Z" fill="white"/>
<path d="M59.3901 146.74H49.6401V156.49H59.3901V146.74Z" fill="#1A237E"/>
<path d="M98.3601 283.14H78.8701V292.89H98.3601V283.14Z" fill="#448AFF"/>
<path d="M78.8801 146.74H59.3901V156.49H78.8801V146.74Z" fill="#448AFF"/>
<path d="M59.3901 283.14H39.8901V292.89H59.3901V283.14Z" fill="#448AFF"/>
<path d="M98.3601 39.55H88.6101V49.3H98.3601V39.55Z" fill="black"/>
<path d="M98.3601 195.45H78.8701V283.14H98.3601V195.45Z" fill="black"/>
<path d="M59.3901 195.45H39.8901V283.14H59.3901V195.45Z" fill="black"/>
<path d="M49.6401 39.55H39.8901V49.3H49.6401V39.55Z" fill="black"/>
<path d="M98.3602 107.75V98.02H88.6102V107.75H78.8701V117.5H59.3902V107.75H49.6402V98.02H39.8902V107.75H30.1602V117.5H39.8902V146.74H98.3602V117.5H108.11V107.75H98.3602Z" fill="#FF1744"/>
<path d="M88.6101 302.64V312.38H108.11L98.3601 302.64H88.6101Z" fill="#FF1744"/>
<path d="M78.8701 292.89V312.38L88.6101 302.64V292.89H78.8701Z" fill="#FF1744"/>
<path d="M98.3601 156.48H39.8901V195.45H98.3601V156.48Z" fill="#FF1744"/>
<path d="M49.6401 302.64L59.3901 312.38V292.89H49.6401V302.64Z" fill="#FF1744"/>
<path d="M30.1602 312.38H49.6402V302.64H39.8902L30.1602 312.38Z" fill="#FF1744"/>
<path d="M108.11 117.5H98.3601V195.45H108.11V117.5Z" fill="#FEDCC7"/>
<path d="M108.11 98.02H98.3601V107.76H108.11V98.02Z" fill="#FEDCC7"/>
<path d="M98.3601 39.55V49.3H88.6101V39.55H49.6101V49.3H39.8601V39.55H30.1201V68.78H39.8601V78.53H59.3601V98H49.6101V107.74H59.3601V117.49H78.8501V107.74H88.5901V98H78.8501V78.53H98.3401V68.78H108.09V39.55H98.3601ZM69.1301 68.78H59.3901V59H78.8801V68.75L69.1301 68.78Z" fill="#FEDCC7"/>
<path d="M98.3601 292.89H88.6101V302.64H98.3601V292.89Z" fill="#FEDCC7"/>
<path d="M98.3601 29.81H88.6101V39.55H98.3601V29.81Z" fill="#FEDCC7"/>
<path d="M49.6401 292.89H39.8901V302.64H49.6401V292.89Z" fill="#FEDCC7"/>
<path d="M49.6401 29.81H39.8901V39.55H49.6401V29.81Z" fill="#FEDCC7"/>
<path d="M39.8902 117.5H30.1501V195.45H39.8902V117.5Z" fill="#FEDCC7"/>
<path d="M39.8902 98.02H30.1501V107.76H39.8902V98.02Z" fill="#FEDCC7"/>
<path d="M137.33 117.5H127.59V127.25H137.33V117.5Z" fill="#FFBF00"/>
<path d="M127.59 68.78V59.03H117.84V49.3H127.59V39.55H117.84V20.06H108.11V10.32H98.36V0.580017H39.89V10.32H30.16V20.06H20.41V29.81H10.67V39.55H20.41V49.3H10.67V59.03H20.41V68.78H10.67V59.03H0.920044V78.53H20.41V88.27H10.67V98.02H20.41V107.75H10.67V98.02H0.920044V127.25H20.41V117.5H30.16V88.27H39.89V98.02H59.39V78.53H39.89V68.78H30.16V39.55H39.89V29.81H49.64V39.55H88.61V29.81H98.36V39.55H108.11V68.78H98.36V78.53H78.87V98.02H108.11V127.25H117.84V117.5H127.59V107.75H137.33V98.02H127.59V88.27H117.84V78.53H127.59V88.27H137.33V68.78H127.59Z" fill="#FFBF00"/>
</svg>
