<svg width="98" height="313" viewBox="0 0 98 313" fill="none" xmlns="http://www.w3.org/2000/svg">
<path d="M88.1101 195.59H78.3601V205.34H88.1101V195.59Z" fill="#F2D4C0"/>
<path d="M58.8801 59.17H39.3901V68.92H58.8801V59.17Z" fill="white"/>
<path d="M19.8901 195.58V302.77H39.3901V205.33H58.8701V302.77H78.3601V195.58H19.8901Z" fill="#1A237E"/>
<path d="M88.1001 302.77H58.8701V312.51H88.1001V302.77Z" fill="black"/>
<path d="M78.3601 39.68H68.6101V49.43H78.3601V39.68Z" fill="black"/>
<path d="M39.3802 302.77H10.1501V312.51H39.3802V302.77Z" fill="black"/>
<path d="M29.6401 39.68H19.8901V49.43H29.6401V39.68Z" fill="black"/>
<path d="M19.8902 195.59H10.1501V205.34H19.8902V195.59Z" fill="#F2D4C0"/>
<path d="M68.6102 20.19V29.94H10.1501V68.94H19.8902V78.69H39.3902V98.18H58.8802V78.66H78.3701V68.91H88.1201V20.19H68.6102ZM19.8902 39.68H29.6402V49.43H19.8902V39.68ZM49.1201 68.91H39.3802V59.16H58.8701V68.91H49.1201ZM78.3502 49.42H68.6002V39.67H78.3502V49.42Z" fill="#FEDCC7"/>
<path d="M88.1101 185.84H78.3601V195.58H88.1101H97.8401V185.84H88.1101Z" fill="#2962FF"/>
<path d="M88.1101 98.15H78.3601V107.89H88.1101V98.15Z" fill="#2962FF"/>
<path d="M78.3601 166.35V156.61V146.87V137.12V127.38H68.6101V137.12V146.87V156.61V166.35V176.1V185.84H78.3601V176.1V166.35Z" fill="#2962FF"/>
<path d="M78.3601 107.88H68.6101V117.63H78.3601V107.88Z" fill="#2962FF"/>
<path d="M68.6101 88.4H58.8701V98.15H39.3901V88.4H29.6401V107.88H68.6101V88.4Z" fill="#2962FF"/>
<path d="M19.8901 137.12V146.87V156.61V166.35V176.1V185.84H29.6401V176.1V166.35V156.61V146.87V137.12V127.38H19.8901V137.12Z" fill="#2962FF"/>
<path d="M29.6401 107.88H19.8901V117.63H29.6401V107.88Z" fill="#2962FF"/>
<path d="M19.8902 98.15H10.1501V107.89H19.8902V98.15Z" fill="#2962FF"/>
<path d="M0.410156 185.84V195.58H10.1602H19.8902V185.84H10.1602H0.410156Z" fill="#2962FF"/>
<path d="M78.3602 107.88V117.63H68.6102V107.88H29.6402V117.63H19.8902V107.88H0.410156V185.84H19.8902V127.38H29.6402V185.84H19.8902V195.58H78.3602V185.84H68.6102V127.38H78.3602V185.84H97.8401V107.88H78.3602Z" fill="#448AFF"/>
<path d="M78.3601 88.4H68.6101V107.89H78.3601V88.4Z" fill="#448AFF"/>
<path d="M29.6401 88.4H19.8901V107.89H29.6401V88.4Z" fill="#448AFF"/>
<path d="M97.8501 20.19H88.1101V49.42H97.8501V20.19Z" fill="#FFBF00"/>
<path d="M78.3602 10.45V0.710022H19.8902V10.45H10.1602V20.19H0.410156V49.43H10.1602V29.94H68.6102V20.19H88.1102V10.45H78.3602Z" fill="#FFBF00"/>
</svg>
