<svg width="98" height="313" viewBox="0 0 98 313" fill="none" xmlns="http://www.w3.org/2000/svg">
<path d="M58.8801 107.88H39.3901V117.63H58.8801V107.88Z" fill="#FFBF00"/>
<path d="M58.8801 185.84H39.3901V195.59H58.8801V185.84Z" fill="#FFBF00"/>
<path d="M58.8801 166.35H39.3901V176.09H58.8801V166.35Z" fill="#FFBF00"/>
<path d="M58.8801 146.86H39.3901V156.61H58.8801V146.86Z" fill="#FFBF00"/>
<path d="M58.8801 127.37H39.3901V137.12H58.8801V127.37Z" fill="#FFBF00"/>
<path d="M58.8801 98.14H39.3901V107.89H58.8801V98.14Z" fill="#FAFAF7"/>
<path d="M58.8801 176.09H39.3901V185.84H58.8801V176.09Z" fill="#FAFAF7"/>
<path d="M58.8801 156.6H39.3901V166.35H58.8801V156.6Z" fill="#FAFAF7"/>
<path d="M58.8801 137.12H39.3901V146.86H58.8801V137.12Z" fill="#FAFAF7"/>
<path d="M58.8801 117.63H39.3901V127.37H58.8801V117.63Z" fill="#FAFAF7"/>
<path d="M58.8801 59.17H39.3901V68.92H58.8801V59.17Z" fill="white"/>
<path d="M78.3601 293.02H58.8701V302.76H78.3601V293.02Z" fill="#448AFF"/>
<path d="M39.3901 293.02H19.8901V302.76H39.3901V293.02Z" fill="#448AFF"/>
<path d="M78.3601 205.32H58.8701V293.02H78.3601V205.32Z" fill="#1A237E"/>
<path d="M58.8801 195.59H39.3901V205.33H58.8801V195.59Z" fill="#1A237E"/>
<path d="M39.3901 205.32H19.8901V293.02H39.3901V205.32Z" fill="#1A237E"/>
<path d="M88.1101 107.88V98.14H78.3601V88.4H58.8701V205.32H78.3601V195.58H97.8501V107.88H88.1101Z" fill="#FF1744"/>
<path d="M19.8902 88.4V98.14H10.1502V107.88H0.410156V195.58H19.8902V205.32H39.3902V88.4H29.6402H19.8902Z" fill="#FF1744"/>
<path d="M88.1101 49.42V29.93H78.3601V10.45H58.8701V20.2H39.3901V10.45H19.8901V29.94H10.1501V49.43H0.400146V59.18H10.1501V68.93H19.8901V78.67H39.3901V98.16H58.8801V78.65H78.3701V68.91H88.1201V59.16H97.8601V49.41L88.1101 49.42ZM78.3601 49.42H68.6101V39.68H78.3601V49.42ZM19.8901 39.68H29.6401V49.42H19.8901V39.68ZM39.3901 68.91V59.16H58.8801V68.91H39.3901Z" fill="#CF9E76"/>
<path d="M88.1101 195.59H78.3601V205.33H88.1101V195.59Z" fill="#CF9E76"/>
<path d="M19.8901 195.59H10.1501V205.33H19.8901V195.59Z" fill="#CF9E76"/>
<path d="M88.1101 20.19V10.45H78.3601V29.93H88.1101V49.42H97.8501V20.19H88.1101Z" fill="black"/>
<path d="M88.1001 302.76H58.8701V312.51H88.1001V302.76Z" fill="black"/>
<path d="M78.3601 39.68H68.6101V49.42H78.3601V39.68Z" fill="black"/>
<path d="M19.8901 0.700012V10.45H39.3901V20.19H58.8701V10.45H78.3601V0.700012H19.8901Z" fill="black"/>
<path d="M39.3801 302.76H10.1501V312.51H39.3801V302.76Z" fill="black"/>
<path d="M29.6401 39.68H19.8901V49.42H29.6401V39.68Z" fill="black"/>
<path d="M10.1502 20.19H0.410156V49.42H10.1502V29.93H19.8902V10.45H10.1502V20.19Z" fill="black"/>
</svg>
