<svg width="138" height="323" viewBox="0 0 138 323" fill="none" xmlns="http://www.w3.org/2000/svg">
<path d="M98.3599 293.28H78.8599V303.03H98.3599V293.28Z" fill="#2962FF"/>
<path d="M59.3799 293.28H39.8899V303.03H59.3799V293.28Z" fill="#2962FF"/>
<path d="M98.3599 39.93H88.6099V49.68H98.3599V39.93Z" fill="black"/>
<path d="M78.8699 59.42H59.3799V69.17H78.8699V59.42Z" fill="white"/>
<path d="M98.3599 205.59H78.8599V293.28H98.3599V205.59Z" fill="#1A237E"/>
<path d="M59.3799 205.59H39.8899V293.28H59.3799V205.59Z" fill="#1A237E"/>
<path d="M49.6399 39.93H39.8899V49.68H49.6399V39.93Z" fill="black"/>
<path d="M108.1 176.35H98.3599V186.09H108.1V176.35Z" fill="#FAFAFA"/>
<path d="M108.1 156.87H98.3599V166.61H108.1V156.87Z" fill="#FAFAFA"/>
<path d="M108.1 137.37H98.3599V147.12H108.1V137.37Z" fill="#FAFAFA"/>
<path d="M108.1 117.89H98.3599V127.64H108.1V117.89Z" fill="#FAFAFA"/>
<path d="M98.3599 127.63H39.8899V137.37H98.3599V127.63Z" fill="#FAFAFA"/>
<path d="M98.3599 186.09H39.8899V195.84H98.3599V186.09Z" fill="#FAFAFA"/>
<path d="M98.3599 166.6H39.8899V176.35H98.3599V166.6Z" fill="#FAFAFA"/>
<path d="M98.3599 147.12H39.8899V156.87H98.3599V147.12Z" fill="#FAFAFA"/>
<path d="M98.3599 108.14H39.8899V117.89H98.3599V108.14Z" fill="#FAFAFA"/>
<path d="M39.8899 176.35H30.1399V186.09H39.8899V176.35Z" fill="#FAFAFA"/>
<path d="M39.8899 156.87H30.1399V166.61H39.8899V156.87Z" fill="#FAFAFA"/>
<path d="M39.8899 137.37H30.1399V147.12H39.8899V137.37Z" fill="#FAFAFA"/>
<path d="M39.8899 117.89H30.1399V127.64H39.8899V117.89Z" fill="#FAFAFA"/>
<path d="M98.3599 303.02H78.8599V322.51H88.6099V312.76L98.3599 322.51H108.1V312.76H98.3599V303.02Z" fill="#FF1744"/>
<path d="M39.8899 303.02V312.76H30.1399V322.51H39.8899L49.6399 312.76V322.51H59.3799V303.02H39.8899Z" fill="#FF1744"/>
<path d="M108.1 186.09H98.3599V195.84H108.1V186.09Z" fill="#FF1744"/>
<path d="M39.8899 186.09H30.1399V195.84H39.8899V186.09Z" fill="#FF1744"/>
<path d="M108.1 166.6H98.3599V176.35H108.1V166.6Z" fill="#FF1744"/>
<path d="M108.1 147.12H98.3599V156.87H108.1V147.12Z" fill="#FF1744"/>
<path d="M108.1 127.63H98.3599V137.37H108.1V127.63Z" fill="#FF1744"/>
<path d="M108.1 108.14H98.3599V117.89H108.1V108.14Z" fill="#FF1744"/>
<path d="M98.3599 117.89H39.8899V127.64H98.3599V117.89Z" fill="#FF1744"/>
<path d="M98.3599 98.4H88.6099V108.14H98.3599V98.4Z" fill="#FF1744"/>
<path d="M98.3599 195.84H39.8899V205.59H98.3599V195.84Z" fill="#FF1744"/>
<path d="M98.3599 176.35H39.8899V186.09H98.3599V176.35Z" fill="#FF1744"/>
<path d="M98.3599 156.87H39.8899V166.61H98.3599V156.87Z" fill="#FF1744"/>
<path d="M98.3599 137.37H39.8899V147.12H98.3599V137.37Z" fill="#FF1744"/>
<path d="M49.6399 98.4H39.8899V108.14H49.6399V98.4Z" fill="#FF1744"/>
<path d="M39.8899 166.6H30.1399V176.35H39.8899V166.6Z" fill="#FF1744"/>
<path d="M39.8899 147.12H30.1399V156.87H39.8899V147.12Z" fill="#FF1744"/>
<path d="M39.8899 127.63H30.1399V137.37H39.8899V127.63Z" fill="#FF1744"/>
<path d="M39.8899 108.14H30.1399V117.89H39.8899V108.14Z" fill="#FF1744"/>
<path d="M108.1 195.84H98.3599V205.59H108.1V195.84Z" fill="#E6C9B2"/>
<path d="M39.8899 195.84H30.1399V205.59H39.8899V195.84Z" fill="#E6C9B2"/>
<path d="M98.3599 39.93V49.68H88.6099V39.93H59.3799V30.19H49.6399V20.44H39.8899V30.19H30.1399V69.19H39.8899V78.94H59.3799V98.4H49.6399V108.14H88.6399V98.4H78.8899V78.91H98.3899V69.16H108.13V39.93H98.3599ZM39.8899 39.93H49.6399V49.68H39.8899V39.93ZM69.1199 69.16H59.3699V59.41H78.8599V69.16H69.1199Z" fill="#E6C9B2"/>
<path d="M127.58 59.42V69.17H117.85V59.42H127.58V49.68H117.85V39.93H127.58V30.19H117.85V20.45H108.1V10.7H98.3599V0.960022H39.89V10.7H30.14V20.45H20.4099V39.93H10.6599V49.68H20.4099V69.17H0.919922V88.65H10.6599V78.91H20.4099V88.65H10.6599V98.4H0.919922V108.14H10.6599V117.88H20.4099V127.63H30.14V108.14H39.89V98.4H59.3799V78.91H39.89V69.17H30.14V30.19H39.89V20.45H49.64V30.19H59.3799V39.93H108.1V69.17H98.3599V78.91H78.8599V98.4H98.3599V108.14H108.1V117.88H117.85V127.63H137.33V98.4H127.58V108.14H117.85V98.4H127.58V88.65H117.85V78.91H137.33V59.42H127.58Z" fill="#502A1B"/>
<path d="M10.6599 117.89H0.919922V127.64H10.6599V117.89Z" fill="#502A1B"/>
</svg>
