<svg width="157" height="323" viewBox="0 0 157 323" fill="none" xmlns="http://www.w3.org/2000/svg">
<path d="M87.8799 88.52H68.3899V98.27H87.8799V88.52Z" fill="white"/>
<path d="M107.36 283.4H87.8699V293.15H107.36V283.4Z" fill="#448AFF"/>
<path d="M68.3899 283.4H48.8899V293.15H68.3899V283.4Z" fill="#448AFF"/>
<path d="M107.36 244.43H87.8699V283.4H107.36V244.43Z" fill="#1A237E"/>
<path d="M68.3899 244.43H48.8899V283.4H68.3899V244.43Z" fill="#1A237E"/>
<path d="M107.36 127.5V117.75H97.6099V127.5H87.8699V137.24H68.3899V127.5H58.6399V117.75H48.8899V127.5H39.1499V137.24H48.8899V156.74L58.6399 166.47H97.6099L107.36 156.74V137.24H117.11V127.5H107.36Z" fill="#FFBF00"/>
<path d="M58.6399 176.22L48.8899 185.96V244.42H107.36V185.96L97.6099 176.22H58.6399Z" fill="#FFBF00"/>
<path d="M117.11 69V59.25H107.36V49.51H48.8899V59.25H39.1499V69H29.3999V88.49H39.1499V98.24H48.8899V108H68.3899V117.74H58.6399V127.49H68.3899V137.23H87.8799V127.5H97.6199V117.75H87.8799V108H107.37V98.25H117.12V88.5H126.86V69H117.11ZM107.36 78.75H97.6099V69H107.36V78.75ZM58.6399 69V78.75H48.8899V69H58.6399ZM68.3899 98.23V88.48H87.8799V98.23H68.3899Z" fill="#CF9E76"/>
<path d="M107.36 146.99V156.74V166.47V176.22V185.96V195.71V205.45V215.19H117.11V205.45V195.71V185.96V176.22V166.47V156.74V146.99V137.24H107.36V146.99Z" fill="#CF9E76"/>
<path d="M39.1499 146.99V156.74V166.47V176.22V185.96V195.71V205.45V215.19H48.8899V205.45V195.71V185.96V176.22V166.47V156.74V146.99V137.24H39.1499V146.99Z" fill="#CF9E76"/>
<path d="M126.85 39.8H117.11V49.55H126.85V39.8Z" fill="#FF1744"/>
<path d="M117.11 30.06H107.36V39.8H117.11V30.06Z" fill="#FF1744"/>
<path d="M97.6099 166.47H58.6399V176.22H97.6099V166.47Z" fill="#FF1744"/>
<path d="M48.8899 30.06H39.1499V39.8H48.8899V30.06Z" fill="#FF1744"/>
<path d="M39.1599 39.8H29.4099V49.55H39.1599V39.8Z" fill="#FF1744"/>
<path d="M146.33 10.57V0.830017H117.11V10.57H107.36V30.06H117.11V39.8H126.85V49.55H146.33V39.8H156.08V10.57H146.33Z" fill="black"/>
<path d="M117.11 39.8H107.36V30.06H48.8899V39.8H39.1499V49.55H29.4099V59.29V69.03H39.1499V59.29H48.8899V49.55H107.36V59.29H117.11V69.03H126.85V59.29V49.55H117.11V39.8Z" fill="black"/>
<path d="M107.36 293.14H87.8699V312.63V322.38L97.6099 312.63V322.38H117.11L107.36 312.63V293.14Z" fill="black"/>
<path d="M107.36 69.03H97.6099V78.78H107.36V69.03Z" fill="black"/>
<path d="M48.8899 293.14V312.63L39.1499 322.38H58.6399V312.63L68.3899 322.38V312.63V293.14H48.8899Z" fill="black"/>
<path d="M58.6399 69.03H48.8899V78.78H58.6399V69.03Z" fill="black"/>
<path d="M39.1499 39.8V30.06H48.8899V10.57H39.1499V0.830017H9.91992V10.57H0.169922V39.8H9.91992V49.55H29.4099V39.8H39.1499Z" fill="black"/>
</svg>
