<svg width="98" height="322" viewBox="0 0 98 322" fill="none" xmlns="http://www.w3.org/2000/svg">
<path d="M58.8701 68.17H49.1301V77.92H58.8701V68.17Z" fill="white"/>
<path d="M49.1301 68.17H39.3801V77.92H49.1301V68.17Z" fill="white"/>
<path d="M19.8901 204.58V292.27H39.3801V214.32H58.8601V292.27H78.3601V204.58H19.8901Z" fill="#FF1744"/>
<path d="M78.3601 136.37V204.58H88.1001V194.84H97.8501V136.37H78.3601Z" fill="#448AFF"/>
<path d="M58.8601 107.14H39.3801V97.4H29.6401V116.88H39.3801V126.63H58.8601V116.88H68.6101V97.4H58.8601V107.14Z" fill="#448AFF"/>
<path d="M0.410156 136.37V194.84H10.1402V204.58H19.8902V136.37H0.410156Z" fill="#448AFF"/>
<path d="M88.1002 116.88V107.14H78.3602V97.4H68.6102V116.88H58.8602V126.63H39.3802V116.88H29.6402V97.4H19.8902V107.14H10.1402V116.88H0.410156V126.63V136.37H19.8902V204.58H78.3602V194.84V136.37H97.8502V126.63V116.88H88.1002Z" fill="#1A237E"/>
<path d="M88.1001 58.42V38.93H10.1001V58.42H0.360107V68.17H10.1001V77.92H19.8501V87.66H39.3401V107.15H58.8301V87.65H78.3301V77.91H88.0701V68.16H97.8201V58.41L88.1001 58.42ZM29.6401 58.42H19.8901V48.68H29.6401V58.42ZM58.8601 77.92H39.3701V68.17H58.8601V77.92ZM78.3601 58.42H68.6101V48.68H78.3601V58.42Z" fill="#FEDCC7"/>
<path d="M88.1001 204.59H78.3601V214.33H88.1001V204.59Z" fill="#FEDCC7"/>
<path d="M19.8901 204.59H10.1401V214.33H19.8901V204.59Z" fill="#FEDCC7"/>
<path d="M97.8501 38.93H88.1001V58.42H97.8501V38.93Z" fill="#FFBF00"/>
<path d="M78.3601 292.28H58.8601V302.03H78.3601V292.28Z" fill="#FFBF00"/>
<path d="M68.6101 19.45H29.6401V29.2H68.6101V19.45Z" fill="#FFBF00"/>
<path d="M39.3801 292.28H19.8901V302.03H39.3801V292.28Z" fill="#FFBF00"/>
<path d="M10.1502 38.93H0.410156V58.42H10.1502V38.93Z" fill="#FFBF00"/>
<path d="M88.1001 19.45V9.7H78.3601V0H19.8901V9.74001H10.1401V19.49H0.400146V38.98H97.8401V19.45H88.1001ZM29.6401 29.2V19.45H68.6401V29.2H29.6401Z" fill="black"/>
<path d="M78.3601 302.02H58.8601V321.51H88.1001V311.76H78.3601V302.02Z" fill="black"/>
<path d="M78.3601 48.68H68.6101V58.42H78.3601V48.68Z" fill="black"/>
<path d="M19.8901 302.02V311.76H10.1401V321.51H39.3801V302.02H19.8901Z" fill="black"/>
<path d="M29.6401 48.68H19.8901V58.42H29.6401V48.68Z" fill="black"/>
</svg>
