<svg width="98" height="313" viewBox="0 0 98 313" fill="none" xmlns="http://www.w3.org/2000/svg">
<path d="M58.8701 59.03H49.1301V68.78H58.8701V59.03Z" fill="white"/>
<path d="M49.1301 59.03H39.3801V68.78H49.1301V59.03Z" fill="white"/>
<path d="M58.8601 117.5V127.25H39.3801V117.5H29.6401V185.71H68.6101V117.5H58.8601Z" fill="#448AFF"/>
<path d="M78.3601 283.14H58.8601V292.89H78.3601V283.14Z" fill="#448AFF"/>
<path d="M39.3801 283.14H19.8901V292.89H39.3801V283.14Z" fill="#448AFF"/>
<path d="M68.6101 224.69V185.71H29.6401V224.69H19.8901V283.14H39.3801V195.45H58.8601V283.14H78.3601V224.69H68.6101Z" fill="#1A237E"/>
<path d="M78.3601 107.75V98.02H68.6101V224.69H78.3601V234.42H88.1001V195.45H78.3601V185.71H88.1001V117.5V107.75H78.3601Z" fill="#FF1744"/>
<path d="M68.6101 88.27H58.8601V98.02H68.6101V88.27Z" fill="#FF1744"/>
<path d="M39.3801 88.27H29.6401V98.02H39.3801V88.27Z" fill="#FF1744"/>
<path d="M19.8901 107.75H10.1401V185.71H19.8901V195.45H10.1401V234.42H19.8901V224.69H29.6401V98.02H19.8901V107.75Z" fill="#FF1744"/>
<path d="M88.1001 185.71H78.3601V195.46H88.1001V185.71Z" fill="#FEDCC7"/>
<path d="M78.3601 39.55V49.3H68.6101V39.55H58.8601V29.8101H49.1201V39.55H29.6401V49.3H19.8901V39.55H10.1401V59H19.8901V78.5H39.3801V98H29.6401V117.49H39.3801V127.24H58.8701V117.49H68.6201V98H58.8701V78.51H78.3701V59H88.1101V39.51L78.3601 39.55ZM49.1301 68.78H39.3801V59H58.8701V68.75L49.1301 68.78Z" fill="#FEDCC7"/>
<path d="M78.3601 292.89H68.6101V302.64H78.3601V292.89Z" fill="#FEDCC7"/>
<path d="M78.3601 20.0601H68.6101V39.55H78.3601V20.0601Z" fill="#FEDCC7"/>
<path d="M29.6401 292.89H19.8901V302.64H29.6401V292.89Z" fill="#FEDCC7"/>
<path d="M19.8901 185.71H10.1401V195.46H19.8901V185.71Z" fill="#FEDCC7"/>
<path d="M88.1001 302.64L78.3601 292.89V302.64H68.6101V292.89H58.8601V312.38H97.8501V302.64H88.1001Z" fill="black"/>
<path d="M78.3601 39.55H68.6101V49.3H78.3601V39.55Z" fill="black"/>
<path d="M29.6402 302.64H19.8902V292.89L10.1402 302.64H0.410156V312.38H39.3802V292.89H29.6402V302.64Z" fill="black"/>
<path d="M29.6401 39.55H19.8901V49.3H29.6401V39.55Z" fill="black"/>
<path d="M88.1002 20.0601V10.3201H78.3601V0.580078H19.8902V10.3201H10.1402V20.0601H0.410156V59.0401H10.1402V39.5501H49.1302V29.8101H58.8601V39.5501H68.6101V20.0601H78.3601V39.5501H88.1002V59.0401H97.8502V20.0601H88.1002Z" fill="#8C4A2F"/>
<path d="M88.1001 59.03H78.3601V68.78H88.1001V59.03Z" fill="#8C4A2F"/>
<path d="M19.8901 59.03H10.1401V68.78H19.8901V59.03Z" fill="#8C4A2F"/>
</svg>
