<svg width="98" height="313" viewBox="0 0 98 313" fill="none" xmlns="http://www.w3.org/2000/svg">
<path d="M58.8701 59.03H39.3801V68.78H58.8701V59.03Z" fill="white"/>
<path d="M68.6101 185.71H58.8601V195.46H68.6101V185.71Z" fill="#FF80AB"/>
<path d="M68.6101 166.22H58.8601V175.97H68.6101V166.22Z" fill="#FF80AB"/>
<path d="M68.6101 146.74H58.8601V156.49H68.6101V146.74Z" fill="#FF80AB"/>
<path d="M68.6101 127.25H58.8601V136.99H68.6101V127.25Z" fill="#FF80AB"/>
<path d="M68.6101 107.75H58.8601V117.5H68.6101V107.75Z" fill="#FF80AB"/>
<path d="M68.6101 88.27H58.8601V98.02H68.6101V88.27Z" fill="#FF80AB"/>
<path d="M39.3801 185.71H29.6301V195.46H39.3801V185.71Z" fill="#FF80AB"/>
<path d="M39.3801 166.22H29.6301V175.97H39.3801V166.22Z" fill="#FF80AB"/>
<path d="M39.3801 146.74H29.6301V156.49H39.3801V146.74Z" fill="#FF80AB"/>
<path d="M39.3801 127.25H29.6301V136.99H39.3801V127.25Z" fill="#FF80AB"/>
<path d="M39.3801 107.75H29.6301V117.5H39.3801V107.75Z" fill="#FF80AB"/>
<path d="M39.3801 88.27H29.6301V98.02H39.3801V88.27Z" fill="#FF80AB"/>
<path d="M78.3501 283.14H58.8601V292.89H78.3501V283.14Z" fill="#448AFF"/>
<path d="M39.3801 283.14H19.8901V292.89H39.3801V283.14Z" fill="#448AFF"/>
<path d="M19.8901 195.45V283.14H39.3801V205.2H58.8601V283.14H78.3501V195.45H19.8901Z" fill="#1A237E"/>
<path d="M88.1001 185.71H78.3501V195.46H88.1001V185.71Z" fill="#D50000"/>
<path d="M88.1001 166.22H78.3501V175.97H88.1001V166.22Z" fill="#D50000"/>
<path d="M88.1001 146.74H78.3501V156.49H88.1001V146.74Z" fill="#D50000"/>
<path d="M88.1001 127.25H78.3501V136.99H88.1001V127.25Z" fill="#D50000"/>
<path d="M88.1001 107.75H78.3501V117.5H88.1001V107.75Z" fill="#D50000"/>
<path d="M78.3501 175.97H68.6101V185.71H78.3501V175.97Z" fill="#D50000"/>
<path d="M78.3501 156.48H68.6101V166.22H78.3501V156.48Z" fill="#D50000"/>
<path d="M78.3501 136.99H68.6101V146.74H78.3501V136.99Z" fill="#D50000"/>
<path d="M78.3501 117.5H68.6101V127.25H78.3501V117.5Z" fill="#D50000"/>
<path d="M78.3501 98.02H68.6101V107.76H78.3501V98.02Z" fill="#D50000"/>
<path d="M58.8701 175.97H39.3801V185.71H58.8701V175.97Z" fill="#D50000"/>
<path d="M58.8701 156.48H39.3801V166.22H58.8701V156.48Z" fill="#D50000"/>
<path d="M58.8701 136.99H39.3801V146.74H58.8701V136.99Z" fill="#D50000"/>
<path d="M58.8701 117.5H39.3801V127.25H58.8701V117.5Z" fill="#D50000"/>
<path d="M58.8701 98.02H39.3801V107.76H58.8701V98.02Z" fill="#D50000"/>
<path d="M29.6301 175.97H19.8901V185.71H29.6301V175.97Z" fill="#D50000"/>
<path d="M29.6301 156.48H19.8901V166.22H29.6301V156.48Z" fill="#D50000"/>
<path d="M29.6301 136.99H19.8901V146.74H29.6301V136.99Z" fill="#D50000"/>
<path d="M29.6301 117.5H19.8901V127.25H29.6301V117.5Z" fill="#D50000"/>
<path d="M29.6301 98.02H19.8901V107.76H29.6301V98.02Z" fill="#D50000"/>
<path d="M19.8901 185.71H10.1401V195.46H19.8901V185.71Z" fill="#D50000"/>
<path d="M19.8901 166.22H10.1401V175.97H19.8901V166.22Z" fill="#D50000"/>
<path d="M19.8901 146.74H10.1401V156.49H19.8901V146.74Z" fill="#D50000"/>
<path d="M19.8901 127.25H10.1401V136.99H19.8901V127.25Z" fill="#D50000"/>
<path d="M19.8901 107.75H10.1401V117.5H19.8901V107.75Z" fill="#D50000"/>
<path d="M88.1001 175.97H78.3501V185.71H88.1001V175.97Z" fill="#FF1744"/>
<path d="M88.1001 156.48H78.3501V166.22H88.1001V156.48Z" fill="#FF1744"/>
<path d="M88.1001 136.99H78.3501V146.74H88.1001V136.99Z" fill="#FF1744"/>
<path d="M88.1001 117.5H78.3501V127.25H88.1001V117.5Z" fill="#FF1744"/>
<path d="M88.1001 98.02H78.3501V107.76H88.1001V98.02Z" fill="#FF1744"/>
<path d="M78.3501 185.71H68.6101V195.46H78.3501V185.71Z" fill="#FF1744"/>
<path d="M78.3501 166.22H68.6101V175.97H78.3501V166.22Z" fill="#FF1744"/>
<path d="M78.3501 146.74H68.6101V156.49H78.3501V146.74Z" fill="#FF1744"/>
<path d="M78.3501 127.25H68.6101V136.99H78.3501V127.25Z" fill="#FF1744"/>
<path d="M78.3501 107.75H68.6101V117.5H78.3501V107.75Z" fill="#FF1744"/>
<path d="M78.3501 88.27H68.6101V98.02H78.3501V88.27Z" fill="#FF1744"/>
<path d="M68.6101 175.97H58.8601V185.71H68.6101V175.97Z" fill="#FF1744"/>
<path d="M68.6101 156.48H58.8601V166.22H68.6101V156.48Z" fill="#FF1744"/>
<path d="M68.6101 136.99H58.8601V146.74H68.6101V136.99Z" fill="#FF1744"/>
<path d="M68.6101 117.5H58.8601V127.25H68.6101V117.5Z" fill="#FF1744"/>
<path d="M68.6101 98.02H58.8601V107.76H68.6101V98.02Z" fill="#FF1744"/>
<path d="M58.8701 166.22H39.3801V175.97H58.8701V166.22Z" fill="#FF1744"/>
<path d="M58.8701 185.71H39.3801V195.46H58.8701V185.71Z" fill="#FF1744"/>
<path d="M58.8701 146.74H39.3801V156.49H58.8701V146.74Z" fill="#FF1744"/>
<path d="M58.8701 127.25H39.3801V136.99H58.8701V127.25Z" fill="#FF1744"/>
<path d="M58.8701 107.75H39.3801V117.5H58.8701V107.75Z" fill="#FF1744"/>
<path d="M39.3801 175.97H29.6301V185.71H39.3801V175.97Z" fill="#FF1744"/>
<path d="M39.3801 156.48H29.6301V166.22H39.3801V156.48Z" fill="#FF1744"/>
<path d="M39.3801 136.99H29.6301V146.74H39.3801V136.99Z" fill="#FF1744"/>
<path d="M39.3801 117.5H29.6301V127.25H39.3801V117.5Z" fill="#FF1744"/>
<path d="M39.3801 98.02H29.6301V107.76H39.3801V98.02Z" fill="#FF1744"/>
<path d="M29.6301 185.71H19.8901V195.46H29.6301V185.71Z" fill="#FF1744"/>
<path d="M29.6301 166.22H19.8901V175.97H29.6301V166.22Z" fill="#FF1744"/>
<path d="M29.6301 146.74H19.8901V156.49H29.6301V146.74Z" fill="#FF1744"/>
<path d="M29.6301 127.25H19.8901V136.99H29.6301V127.25Z" fill="#FF1744"/>
<path d="M29.6301 107.75H19.8901V117.5H29.6301V107.75Z" fill="#FF1744"/>
<path d="M29.6301 88.27H19.8901V98.02H29.6301V88.27Z" fill="#FF1744"/>
<path d="M19.8901 175.97H10.1401V185.71H19.8901V175.97Z" fill="#FF1744"/>
<path d="M19.8901 156.48H10.1401V166.22H19.8901V156.48Z" fill="#FF1744"/>
<path d="M19.8901 136.99H10.1401V146.74H19.8901V136.99Z" fill="#FF1744"/>
<path d="M19.8901 117.5H10.1401V127.25H19.8901V117.5Z" fill="#FF1744"/>
<path d="M19.8901 98.02H10.1401V107.76H19.8901V98.02Z" fill="#FF1744"/>
<path d="M88.1001 39.55V29.81H78.3501V20.06H49.1301V29.81H10.1301V39.55H0.390137V49.3H10.1301V59H29.6201V68.75H39.3701V59H58.8601V68.75H68.6101V59H88.1001V49.3H97.8501V39.55H88.1001ZM19.9001 49.3V39.55H29.6401V49.3H19.9001ZM68.6201 49.3V39.55H78.3601V49.3H68.6201Z" fill="#E6C9B2"/>
<path d="M88.1001 195.45H78.3501V205.2H88.1001V195.45Z" fill="#E6C9B2"/>
<path d="M58.8701 78.53H39.3801V98.02H58.8701V78.53Z" fill="#E6C9B2"/>
<path d="M19.8901 195.45H10.1401V205.2H19.8901V195.45Z" fill="#E6C9B2"/>
<path d="M88.1002 20.06V10.32H78.3502V0.580017H19.8902V10.32H10.1402V20.06H0.410156V39.55H10.1402V29.81H49.1302V20.06H78.3502V29.81H88.1002V39.55H97.8502V20.06H88.1002Z" fill="black"/>
<path d="M78.3501 292.89H58.8601V312.38H88.1001V302.64H78.3501V292.89Z" fill="black"/>
<path d="M68.6101 59.03V68.78H29.6301V59.03H19.8901H10.1401V68.78H19.8901V78.53H78.3501V68.78H88.1001V59.03H78.3501H68.6101Z" fill="black"/>
<path d="M78.3501 39.55H68.6101V49.3H78.3501V39.55Z" fill="black"/>
<path d="M19.8901 292.89V302.64H10.1401V312.38H39.3801V292.89H19.8901Z" fill="black"/>
<path d="M29.6301 39.55H19.8901V49.3H29.6301V39.55Z" fill="black"/>
</svg>
