<svg width="118" height="303" viewBox="0 0 118 303" fill="none" xmlns="http://www.w3.org/2000/svg">
<path d="M88.3499 39.29H78.6099V49.04H88.3499V39.29Z" fill="black"/>
<path d="M78.6199 156.22H68.8699V165.96H78.6199V156.22Z" fill="#FFBF00"/>
<path d="M68.8699 156.22H59.1299V165.96H68.8699V156.22Z" fill="#FFEE58"/>
<path d="M59.1299 156.22H49.3799V165.96H59.1299V156.22Z" fill="#FFEE58"/>
<path d="M68.8699 58.77H49.3799V68.52H68.8699V58.77Z" fill="white"/>
<path d="M49.3799 156.22H39.6299V165.96H49.3799V156.22Z" fill="#FFBF00"/>
<path d="M29.8899 195.19V292.63H49.3799V204.94H68.8699V292.63H88.3499V195.19H29.8899Z" fill="#448AFF"/>
<path d="M78.6099 165.96H39.6299L29.8899 175.71V195.19H88.3499V175.71L78.6099 165.96Z" fill="#1A237E"/>
<path d="M49.3799 156.22H68.8699V126.99L78.6099 117.24H39.6299L49.3799 126.99V156.22Z" fill="#1A237E"/>
<path d="M39.6399 39.29H29.8999V49.04H39.6399V39.29Z" fill="black"/>
<path d="M98.0999 68.52H88.3499V78.27H98.0999V68.52Z" fill="#FF1744"/>
<path d="M88.3499 97.75H78.6099V117.24L68.8699 126.99V156.22H78.6099L88.3499 146.47V185.44H98.0999V107.49H88.3499V97.75Z" fill="#FF1744"/>
<path d="M39.6299 97.75H29.8899V107.49H20.1499V185.44H29.8899V146.47L39.6299 156.22H49.3799V126.99L39.6299 117.24V97.75Z" fill="#FF1744"/>
<path d="M98.0999 185.44H88.3499V195.19H98.0999V185.44Z" fill="#EFC7B0"/>
<path d="M88.3499 39.29V49H78.6099V39.25H68.8599V29.51H59.1199V19.8H39.6199V29.55H29.8999V39.29H39.6399V49H29.8999V39.25H20.1499V68.48H29.8999V78.23H49.3899V97.72H39.6399V117.21H78.6399V97.75H68.8899V78.27H88.3799V68.52H98.1299V39.29H88.3499ZM49.3499 68.52V58.77H68.8399V68.52H49.3499Z" fill="#EFC7B0"/>
<path d="M29.8999 185.44H20.1499V195.19H29.8999V185.44Z" fill="#EFC7B0"/>
<path d="M29.8999 29.55H20.1499V39.29H29.8999V29.55Z" fill="black"/>
<path d="M107.59 88.01V78.27H78.3499V88.01H88.0999V107.49H97.8499V117.24H107.59V107.49H117.33V88.01H107.59Z" fill="#0F0F0D"/>
<path d="M10.6699 88.01V78.27H39.9V88.01H30.15V107.49H20.4V117.24H10.6699V107.49H0.919922V88.01H10.6699Z" fill="#0F0F0D"/>
<path d="M78.6099 292.63V302.38H98.0999L88.3499 292.63H78.6099Z" fill="#0F0F0D"/>
<path d="M68.8699 302.38L78.6099 292.63H68.8699V302.38Z" fill="#0F0F0D"/>
<path d="M68.8699 29.55V39.29H98.0999V68.52H107.85V19.8H98.0999V10.05H88.3499V0.320007H29.89V10.05H20.15V19.8H10.4099V68.52H20.15V39.29V29.55H29.89H39.6299V19.8H49.3799H59.1299V29.55H68.8699Z" fill="#0F0F0D"/>
<path d="M49.3799 302.38V292.63H39.6299L49.3799 302.38Z" fill="#0F0F0D"/>
<path d="M20.1499 302.38H39.6299V292.63H29.8899L20.1499 302.38Z" fill="#0F0F0D"/>
<path d="M29.8999 68.52H20.1499V78.27H29.8999V68.52Z" fill="#FF1744"/>
</svg>
