<svg width="98" height="303" viewBox="0 0 98 303" fill="none" xmlns="http://www.w3.org/2000/svg">
<path d="M78.3599 107.49V97.75H68.6099V88H58.8599V107.49H39.3699V88H29.6299V97.75H19.8799V107.49H10.1299V185.49H19.8799V204.99H78.3499V185.49H88.0898V107.49H78.3599ZM58.8599 146.49V156.24H39.3699V136.74H58.8599V146.49Z" fill="#FF1744"/>
<path d="M58.8699 68.52H39.3799V78.27H58.8699V68.52Z" fill="white"/>
<path d="M58.8601 126.99L49.1301 136.72L39.3801 126.99L29.6401 136.72V146.47L49.1301 165.96L68.6101 146.47V136.72L58.8601 126.99Z" fill="#FF80AB"/>
<path d="M78.3599 273.14H58.8599V282.88H78.3599V273.14Z" fill="#448AFF"/>
<path d="M39.3801 273.14H19.8901V282.88H39.3801V273.14Z" fill="#448AFF"/>
<path d="M78.3599 204.94H58.8599V273.14H78.3599V204.94Z" fill="#1A237E"/>
<path d="M39.3801 204.94H19.8901V273.14H39.3801V204.94Z" fill="#1A237E"/>
<path d="M88.0999 185.44H78.3599V195.19H88.0999V185.44Z" fill="#FEDCC7"/>
<path d="M78.3601 49V58.74H68.6101V49H78.3601V39.25H19.8901V49H29.6401V58.74H19.8901V49H10.1401V78.23H19.8901V88H39.3801V107.49H58.8701V88H78.3701V78.26H88.1101V49H78.3601ZM39.3601 78.23V68.48H58.8501V78.23H39.3601Z" fill="#FEDCC7"/>
<path d="M19.8901 185.44H10.1401V195.19H19.8901V185.44Z" fill="#FEDCC7"/>
<path d="M78.3599 39.29V49.04H88.0999V78.27H78.3599V88.01H68.6099V97.75H78.3599V107.49H88.0999V146.47H97.8499V39.29H78.3599Z" fill="#FFBF00"/>
<path d="M68.6101 19.8H29.6401V29.55H68.6101V19.8Z" fill="#FFBF00"/>
<path d="M19.8901 78.27H10.1401V49.04H19.8901V39.29H0.410156V146.47H10.1401V107.49H19.8901V97.75H29.6401V88.01H19.8901V78.27Z" fill="#FFBF00"/>
<path d="M88.0999 19.8001V10.0501H78.3599V0.310059H19.8899V10.0501H10.1399V19.8001H0.399902V39.2901H97.8398V19.8001H88.0999ZM29.6399 29.5501V19.8001H68.6399V29.5501H29.6399Z" fill="black"/>
<path d="M78.3599 282.88H58.8599V302.38H88.0999L78.3599 292.63V282.88Z" fill="black"/>
<path d="M78.3599 49.03H68.6099V58.77H78.3599V49.03Z" fill="black"/>
<path d="M19.8901 282.88V292.63L10.1401 302.38H39.3801V282.88H19.8901Z" fill="black"/>
<path d="M29.6401 49.03H19.8901V58.77H29.6401V49.03Z" fill="black"/>
</svg>
