<svg width="118" height="313" viewBox="0 0 118 313" fill="none" xmlns="http://www.w3.org/2000/svg">
<path d="M88.3701 166.35H78.6201V176.1H88.3701V166.35Z" fill="#FFBF00"/>
<path d="M78.6199 166.35H59.1299V176.1H78.6199V166.35Z" fill="#FFEE58"/>
<path d="M78.6199 59.17H59.1299V68.92H78.6199V59.17Z" fill="white"/>
<path d="M59.1299 166.35H49.3799V176.1H59.1299V166.35Z" fill="#FFBF00"/>
<path d="M98.1101 224.82H78.6201V293.02H98.1101V224.82Z" fill="#0F0F0D"/>
<path d="M59.1399 224.82H39.6499V293.02H59.1399V224.82Z" fill="#0F0F0D"/>
<path d="M107.85 49.43V39.68H98.1001V49.43H88.3601V39.68H59.1301V29.94H39.6401V39.68H49.3801V49.43H39.6401V39.68H29.8901V68.91H39.6401V78.66H59.1301V98.15H49.3801V127.38H59.1301V137.12H78.6201V127.38H88.3701V98.15H78.6201V78.66H98.1101V68.91H107.86V59.16H117.6V49.42L107.85 49.43ZM68.8501 68.92H59.1101V59.17H78.6001V68.92H68.8501Z" fill="#EFC7B0"/>
<path d="M107.85 137.12H98.1001V205.33H107.85V137.12Z" fill="#EFC7B0"/>
<path d="M39.6499 137.12H29.8999V205.33H39.6499V137.12Z" fill="#EFC7B0"/>
<path d="M107.85 117.63V107.88H98.0999V98.15H88.3699V127.38H78.6199V137.12H59.1299V127.38H49.3799V98.15H39.6499V107.88H29.8999V117.63H20.1499V137.12H39.6499V156.61L49.3799 166.35H88.3699L98.0999 156.61V137.12H117.59V117.63H107.85Z" fill="#FF1744"/>
<path d="M49.3799 176.1L39.6499 185.84V224.82H98.0999V185.84L88.3699 176.1H49.3799Z" fill="#FF1744"/>
<path d="M117.59 59.17H107.85V68.92H117.59V59.17Z" fill="black"/>
<path d="M107.85 20.19V10.45H98.1001V0.710022H39.6501V10.45H29.9001V20.19H20.1501V39.68H10.4102V49.43H20.1501V59.17H10.4102V68.91H0.660156V78.66H20.1501V88.4H29.9001V98.15H49.3801V88.4H59.1301V78.66H39.6501V68.91H29.9001V39.68H39.6501V29.94H59.1301V39.68H88.3701V49.43H98.1001V39.68H107.85V49.43H117.59V20.19H107.85Z" fill="black"/>
<path d="M98.1001 78.66H78.6201V88.4V98.15H98.1001V88.4H117.59V78.66H107.85V68.91H98.1001V78.66Z" fill="black"/>
<path d="M98.1001 293.02H78.6201V312.51H88.3701V302.77L98.1001 312.51H107.85V302.77H98.1001V293.02Z" fill="#FFBF00"/>
<path d="M39.6499 293.02V302.77H29.8999V312.51H39.6499L49.3799 302.77V312.51H59.1299V293.02H39.6499Z" fill="#FFBF00"/>
<path d="M49.3899 39.68H39.6499V49.43H49.3899V39.68Z" fill="black"/>
</svg>
