<svg width="20" height="20" viewBox="0 0 20 20" fill="none" xmlns="http://www.w3.org/2000/svg">
<path d="M10 0.390625C15.1777 0.390625 19.6094 4.82227 19.6094 10C19.6094 15.1777 15.1777 19.6094 10 19.6094C4.82227 19.6094 0.390625 15.1777 0.390625 10C0.390625 4.82227 4.82227 0.390625 10 0.390625Z" fill="#FD3C65"/>
<path d="M13.5629 6.43711C14.0207 6.89453 14.0207 7.63672 13.5629 8.09414L11.657 10L13.5629 11.9059C14.0207 12.3633 14.0207 13.1055 13.5629 13.5629C13.334 13.7918 13.0344 13.9062 12.7344 13.9062C12.4344 13.9062 12.1348 13.7918 11.9059 13.5629L10 11.657L8.09414 13.5629C7.86523 13.7918 7.56563 13.9062 7.26563 13.9062C6.96563 13.9062 6.66602 13.7918 6.43711 13.5629C5.9793 13.1055 5.9793 12.3633 6.43711 11.9059L8.34297 10L6.43711 8.09414C5.9793 7.63672 5.9793 6.89453 6.43711 6.43711C6.89492 5.9793 7.63633 5.9793 8.09414 6.43711L10 8.34297L11.9059 6.43711C12.3637 5.9793 13.1051 5.9793 13.5629 6.43711Z" fill="white"/>
<path d="M19.1943 6.15867C18.6807 4.9752 17.95 3.90488 17.0225 2.97746C16.0951 2.05004 15.0248 1.31934 13.8413 0.805664C12.6097 0.271055 11.3173 0 10 0C8.6827 0 7.39027 0.271055 6.15867 0.805664C4.9752 1.31934 3.90488 2.05004 2.97746 2.97746C2.05004 3.90488 1.31934 4.9752 0.805664 6.15867C0.271055 7.39027 0 8.6827 0 10C0 11.3173 0.271055 12.6097 0.805664 13.8413C1.31934 15.0248 2.05004 16.0951 2.97746 17.0225C3.90488 17.95 4.9752 18.6807 6.15867 19.1943C7.39027 19.7289 8.6827 20 10 20C11.3173 20 12.6097 19.7289 13.8413 19.1943C15.0248 18.6807 16.0951 17.95 17.0225 17.0225C17.95 16.0951 18.6807 15.0248 19.1943 13.8413C19.7289 12.6097 20 11.3173 20 10C20 8.6827 19.7289 7.39027 19.1943 6.15867ZM10 19.2188C5.00293 19.2188 0.78125 14.9971 0.78125 10C0.78125 5.00293 5.00293 0.78125 10 0.78125C14.9971 0.78125 19.2188 5.00293 19.2188 10C19.2188 14.9971 14.9971 19.2188 10 19.2188Z" fill="black"/>
<path d="M17.6553 6.78922C17.2307 5.80266 16.6255 4.9125 15.8565 4.14355C15.0875 3.37457 14.1974 2.76938 13.2108 2.34477C12.1855 1.90344 11.1052 1.67969 10 1.67969C8.49758 1.67969 6.93145 2.19273 5.4709 3.16332C5.29121 3.28273 5.24234 3.5252 5.36176 3.70484C5.48117 3.88453 5.72367 3.93336 5.90328 3.81398C7.23531 2.92883 8.65191 2.46094 10 2.46094C14.0866 2.46094 17.5391 5.9134 17.5391 10C17.5391 14.0866 14.0866 17.5391 10 17.5391C5.9134 17.5391 2.46094 14.0866 2.46094 10C2.46094 8.65219 2.92871 7.23551 3.81363 5.90324C3.93301 5.72352 3.8841 5.48109 3.70441 5.36172C3.52465 5.24234 3.28223 5.29129 3.16289 5.47098C2.19258 6.9318 1.67969 8.49789 1.67969 10C1.67969 11.1052 1.90344 12.1855 2.34473 13.2108C2.76934 14.1973 3.37453 15.0875 4.14352 15.8564C4.9125 16.6254 5.80262 17.2306 6.78918 17.6552C7.81453 18.0966 8.8948 18.3203 10 18.3203C11.1052 18.3203 12.1855 18.0966 13.2108 17.6553C14.1973 17.2307 15.0875 16.6255 15.8564 15.8565C16.6254 15.0875 17.2306 14.1974 17.6552 13.2108C18.0966 12.1855 18.3203 11.1052 18.3203 10C18.3203 8.8948 18.0966 7.81453 17.6553 6.78922Z" fill="black"/>
<path d="M4.45312 4.10156C4.2375 4.10156 4.0625 4.27656 4.0625 4.49219C4.0625 4.70781 4.2375 4.88281 4.45312 4.88281C4.66875 4.88281 4.84375 4.70781 4.84375 4.49219C4.84375 4.27656 4.66875 4.10156 4.45312 4.10156Z" fill="black"/>
<path d="M5.70312 12.7344C5.70312 13.1518 5.86574 13.5442 6.1609 13.8391C6.45609 14.1343 6.84844 14.2969 7.26562 14.2969C7.68281 14.2969 8.07516 14.1343 8.37035 13.8391L10 12.2095L11.6296 13.8391C11.9248 14.1343 12.3172 14.2969 12.7344 14.2969C13.1516 14.2969 13.5439 14.1343 13.839 13.8392C14.1343 13.5442 14.2969 13.1518 14.2969 12.7344C14.2969 12.3169 14.1343 11.9246 13.8391 11.6296L12.2095 10L13.839 8.37047C14.1343 8.07543 14.2969 7.68309 14.2969 7.26562C14.2969 6.84816 14.1343 6.45582 13.8391 6.1609C13.5439 5.8657 13.1516 5.70312 12.7344 5.70312C12.3171 5.70312 11.9248 5.8657 11.6296 6.1609L10 7.79055L8.37035 6.1609C8.07516 5.8657 7.68285 5.70312 7.26562 5.70312C6.8484 5.70312 6.45609 5.8657 6.16102 6.16078C5.86574 6.45582 5.70312 6.84816 5.70312 7.26562C5.70312 7.68309 5.86574 8.07543 6.1609 8.37035L7.79055 10L6.16102 11.6295C5.86574 11.9246 5.70312 12.3169 5.70312 12.7344ZM6.71332 12.1821L8.61918 10.2762C8.77172 10.1237 8.77172 9.87633 8.61918 9.72379L6.7132 7.81781C6.56566 7.67035 6.48438 7.47426 6.48438 7.26562C6.48438 7.05699 6.56566 6.8609 6.71332 6.71332C6.86098 6.5657 7.05711 6.48438 7.26562 6.48438C7.47414 6.48438 7.67027 6.5657 7.81793 6.71332L9.72379 8.61918C9.87633 8.77172 10.1237 8.77172 10.2762 8.61918L12.1821 6.71328C12.3297 6.5657 12.5259 6.48438 12.7344 6.48438C12.9429 6.48438 13.139 6.5657 13.2868 6.71344C13.4343 6.8609 13.5156 7.05699 13.5156 7.26562C13.5156 7.47426 13.4343 7.67035 13.2867 7.81793L11.3808 9.72383C11.2283 9.87637 11.2283 10.1237 11.3808 10.2762L13.2868 12.1822C13.4343 12.3296 13.5156 12.5257 13.5156 12.7344C13.5156 12.943 13.4343 13.1391 13.2867 13.2867C13.139 13.4343 12.9429 13.5156 12.7344 13.5156C12.5259 13.5156 12.3297 13.4343 12.1821 13.2867L10.2762 11.3808C10.1999 11.3045 10.1 11.2664 10 11.2664C9.90004 11.2664 9.80004 11.3045 9.72379 11.3808L7.81793 13.2867C7.67027 13.4343 7.47414 13.5156 7.26562 13.5156C7.05711 13.5156 6.86098 13.4343 6.7132 13.2866C6.56566 13.1391 6.48438 12.943 6.48438 12.7344C6.48438 12.5257 6.56566 12.3296 6.71332 12.1821Z" fill="black"/>
</svg>
