<svg width="81" height="81" viewBox="0 0 81 81" fill="none" xmlns="http://www.w3.org/2000/svg">
<path d="M30.4517 0H25.3892V5.0625H30.4517V0Z" fill="black"/>
<path d="M40.5767 0H35.5142V5.0625H40.5767V0Z" fill="black"/>
<path d="M68.3438 0H45.6359V5.0625H68.3438C72.5375 5.0625 75.9375 8.46227 75.9375 12.6562V68.3438C75.9375 72.5375 72.5375 75.9375 68.3438 75.9375H12.6562C8.46227 75.9375 5.0625 72.5375 5.0625 68.3438V12.6562C5.0625 8.46227 8.46227 5.0625 12.6562 5.0625H20.3234V0H12.6562C5.66985 0.00838477 0.00838477 5.66985 0 12.6562V68.3438C0.00838477 75.33 5.66985 80.9914 12.6562 81H68.3438C75.33 80.9914 80.9914 75.33 81 68.3438V12.6562C80.9914 5.66985 75.33 0.00838477 68.3438 0Z" fill="black"/>
<path d="M30.4517 0H25.3892V5.0625H30.4517V0Z" fill="black"/>
<path d="M40.5767 0H35.5142V5.0625H40.5767V0Z" fill="black"/>
<path d="M68.3438 0H45.6359V5.0625H68.3438C72.5375 5.0625 75.9375 8.46227 75.9375 12.6562V68.3438C75.9375 72.5375 72.5375 75.9375 68.3438 75.9375H12.6562C8.46227 75.9375 5.0625 72.5375 5.0625 68.3438V12.6562C5.0625 8.46227 8.46227 5.0625 12.6562 5.0625H20.3234V0H12.6562C5.66985 0.00838477 0.00838477 5.66985 0 12.6562V68.3438C0.00838477 75.33 5.66985 80.9914 12.6562 81H68.3438C75.33 80.9914 80.9914 75.33 81 68.3438V12.6562C80.9914 5.66985 75.33 0.00838477 68.3438 0Z" fill="black"/>
<path d="M30.4517 0H25.3892V5.0625H30.4517V0Z" fill="black"/>
<path d="M40.5767 0H35.5142V5.0625H40.5767V0Z" fill="black"/>
<path d="M68.3438 0H45.6359V5.0625H68.3438C72.5375 5.0625 75.9375 8.46227 75.9375 12.6562V68.3438C75.9375 72.5375 72.5375 75.9375 68.3438 75.9375H12.6562C8.46227 75.9375 5.0625 72.5375 5.0625 68.3438V12.6562C5.0625 8.46227 8.46227 5.0625 12.6562 5.0625H20.3234V0H12.6562C5.66985 0.00838477 0.00838477 5.66985 0 12.6562V68.3438C0.00838477 75.33 5.66985 80.9914 12.6562 81H68.3438C75.33 80.9914 80.9914 75.33 81 68.3438V12.6562C80.9914 5.66985 75.33 0.00838477 68.3438 0Z" fill="black"/>
<g opacity="0.1">
<path opacity="0.1" d="M71.32 17.1922L31.3292 57.183C30.2228 58.2891 28.8316 59.0435 27.3284 59.3801C28.5834 60.2691 30.0909 60.7581 31.6494 60.7581C33.6317 60.7581 35.5333 59.9704 36.9349 58.5686L74.8157 20.6878L71.32 17.1922Z" fill="black"/>
</g>
<g clip-path="url(#clip0)">
<path d="M66.804 57.8272L24.1725 15.1957C22.3133 13.3364 19.2989 13.3364 17.4425 15.1957L15.1957 17.439C13.3365 19.2989 13.3365 22.3132 15.1957 24.1696L57.8272 66.8011C59.687 68.6603 62.7014 68.6603 64.5578 66.8011L66.8011 64.5577C68.6639 62.7014 68.6639 59.687 66.804 57.8272Z" fill="#F44336"/>
<path d="M57.8272 15.1957L15.1957 57.8271C13.3365 59.687 13.3365 62.7014 15.1957 64.5577L17.4391 66.8011C19.2989 68.6603 22.3133 68.6603 24.1696 66.8011L66.804 24.1725C68.6639 22.3132 68.6639 19.2989 66.804 17.4425L64.5607 15.1992C62.7014 13.3364 59.687 13.3364 57.8272 15.1957V15.1957Z" fill="#F44336"/>
<path d="M60.0705 68.9967C58.6493 68.9967 57.2246 68.4541 56.1393 67.3722L41.0001 52.2359L25.8639 67.3722C23.6873 69.5423 20.1617 69.5423 17.9945 67.3722L14.628 64.0052C12.4608 61.8379 12.4573 58.3065 14.6245 56.1393L29.7637 41.0001L14.628 25.8639C12.4573 23.6937 12.4573 20.1617 14.628 17.9945L17.9945 14.628C20.1617 12.4608 23.6903 12.4573 25.861 14.6245L41.0001 29.7672L56.1358 14.628C58.3129 12.4573 61.8379 12.4573 64.0052 14.628L67.3722 17.9945C69.5423 20.1652 69.5423 23.6966 67.3722 25.8639L52.2359 41.0001L67.3722 56.1358C67.3722 56.1358 67.3751 56.1358 67.3751 56.1393C69.5423 58.3094 69.5394 61.8414 67.3722 64.0052L64.0052 67.3722C62.9204 68.4541 61.4957 68.9967 60.0705 68.9967V68.9967ZM41.0001 46.4896C41.609 46.4896 42.2185 46.7215 42.6816 47.1874L59.4993 64.0052C59.8108 64.3166 60.3308 64.3166 60.6387 64.0052L64.0052 60.6387C64.3166 60.3279 64.3131 59.8073 64.0023 59.4964L47.1874 42.6816C46.2578 41.752 46.2578 40.2448 47.1874 39.3151L64.0052 22.4974C64.3166 22.1866 64.3166 21.666 64.0052 21.358L60.6387 17.9945C60.3279 17.6836 59.8108 17.6865 59.4964 17.998L42.6816 34.8157C41.7903 35.707 40.2099 35.707 39.3151 34.8157L22.5003 17.9945C22.1895 17.6836 21.6689 17.6836 21.3615 17.9945L17.9945 21.3615C17.6836 21.6724 17.6836 22.1924 17.9945 22.5003L34.8122 39.318C35.7418 40.2477 35.7418 41.7554 34.8122 42.6851L17.9945 59.5028C17.6865 59.8137 17.6836 60.3343 17.9945 60.6416L21.3615 64.0087C21.6724 64.3195 22.1895 64.3166 22.5038 64.0052L39.318 47.1909C39.7817 46.7244 40.3906 46.4896 41.0001 46.4896V46.4896Z" fill="black"/>
</g>
<defs>
<clipPath id="clip0">
<rect width="56" height="56" fill="white" transform="translate(13 13)"/>
</clipPath>
</defs>
</svg>
