<svg width="27" height="27" viewBox="0 0 27 27" fill="none" xmlns="http://www.w3.org/2000/svg">
<g clip-path="url(#clip0)">
<path d="M4.53516 10.0195C3.66135 10.0195 2.95312 9.31131 2.95312 8.4375C2.95312 7.56422 3.66187 6.85547 4.53516 6.85547L5.2207 6.85547L5.23072 6.81381C4.52988 6.65191 4.00781 6.02385 4.00781 5.27344C4.00781 4.40016 4.71656 3.69141 5.58984 3.69141L6.64453 3.69141C5.77072 3.69141 5.0625 2.98318 5.0625 2.10938C5.0625 1.23557 5.77072 0.527345 6.64453 0.527345C7.27328 0.527345 11.716 0.527344 12.3156 0.527344C15.2038 0.527344 15.9717 0.88172 18.7734 1.58203L18.7734 12.1289C18.7176 12.1726 10.3359 13.7045 10.3359 18.7734L10.3359 19.3008C10.3359 20.1746 9.62772 20.8828 8.75391 20.8828C7.88115 20.8828 7.17346 20.1762 7.17187 19.3034C7.16133 19.3034 6.83121 15.9743 8.22656 13.1836L3.48047 13.1836C2.60666 13.1836 1.89844 12.4754 1.89844 11.6016C1.89844 10.7283 2.60719 10.0195 3.48047 10.0195L4.53516 10.0195Z" fill="#FFBFAB"/>
<path d="M18.7734 12.1289L18.7734 1.58203C18.7734 0.999317 19.2454 0.527344 19.8281 0.527344L25.1016 0.527344L25.1016 13.1836L19.8281 13.1836C19.2454 13.1836 18.7734 12.7116 18.7734 12.1289Z" fill="#FF7A7A"/>
<path d="M8.22656 24.0469L8.22656 26.4727C8.22656 26.7639 8.46271 27 8.75391 27C9.04511 27 9.28125 26.7639 9.28125 26.4727L9.28125 24.0469C9.28125 23.7557 9.04511 23.5195 8.75391 23.5195C8.46271 23.5195 8.22656 23.7557 8.22656 24.0469Z" fill="black"/>
<path d="M20.8828 10.5469C21.1739 10.5469 21.4102 10.3106 21.4102 10.0195C21.4102 9.72844 21.1739 9.49219 20.8828 9.49219C20.5917 9.49219 20.3555 9.72844 20.3555 10.0195C20.3555 10.3106 20.5917 10.5469 20.8828 10.5469Z" fill="black"/>
<path d="M3.48047 13.7109L7.4172 13.7109C6.80774 15.272 6.56105 17.1095 6.60862 18.7452C6.61769 19.0573 6.62966 19.2378 6.64585 19.3515C6.67311 20.4909 7.60873 21.4102 8.75391 21.4102C9.91702 21.4102 10.8633 20.4639 10.8633 19.3008L10.8633 18.7734C10.8633 15.4382 15.146 13.5643 18.3781 12.7607C18.6225 13.3194 19.1803 13.7109 19.8281 13.7109L25.1016 13.7109C25.3928 13.7109 25.6289 13.4748 25.6289 13.1836L25.6289 0.527344C25.6289 0.236145 25.3928 2.06444e-08 25.1016 4.61019e-08L19.8281 5.0712e-07C19.1847 5.63374e-07 18.6301 0.386386 18.3831 0.939147C18.1155 0.870486 17.8671 0.805623 17.6377 0.745717C15.7965 0.264832 14.7823 9.48241e-07 12.3156 1.16389e-06L6.64453 1.65967e-06C5.48142 1.76135e-06 4.53515 0.946268 4.53515 2.10938C4.53515 2.54306 4.66683 2.94648 4.89217 3.28208C4.07752 3.56701 3.48047 4.34537 3.48047 5.27344C3.48047 5.70554 3.60893 6.11028 3.83358 6.44741C3.02252 6.73281 2.42578 7.50938 2.42578 8.4375C2.42578 8.87119 2.55746 9.27461 2.78279 9.61021C1.96815 9.89513 1.37109 10.6735 1.37109 11.6016C1.37109 12.7647 2.31736 13.7109 3.48047 13.7109ZM19.3008 1.58203C19.3008 1.29125 19.5373 1.05469 19.8281 1.05469L24.5742 1.05469L24.5742 12.6563L19.8281 12.6563C19.5373 12.6563 19.3008 12.4197 19.3008 12.1289L19.3008 1.58203ZM3.48047 10.5469C4.61157 10.5469 4.8812 10.5469 6.11719 10.5469C6.40839 10.5469 6.64453 10.3107 6.64453 10.0195C6.64453 9.72833 6.40839 9.49219 6.11719 9.49219L4.53516 9.49219C3.9536 9.49219 3.48047 9.01906 3.48047 8.4375C3.48047 7.855 3.95265 7.38281 4.53516 7.38281L7.17187 7.38281C7.46307 7.38281 7.69922 7.14667 7.69922 6.85547C7.69922 6.56427 7.46307 6.32813 7.17187 6.32813L5.58984 6.32813C5.0152 6.32813 4.53515 5.86907 4.53515 5.27344C4.53515 4.69094 5.00734 4.21875 5.58984 4.21875C6.72094 4.21875 6.99057 4.21875 8.22656 4.21875C8.51776 4.21875 8.7539 3.98261 8.7539 3.69141C8.7539 3.40021 8.51776 3.16406 8.22656 3.16406L6.64453 3.16406C6.06298 3.16406 5.58984 2.69093 5.58984 2.10938C5.58984 1.52782 6.06298 1.05469 6.64453 1.05469L12.3156 1.05469C14.6468 1.05469 15.5573 1.29247 17.3712 1.76618C17.637 1.83558 17.9284 1.91167 18.2461 1.99267L18.2461 11.7057C14.4298 12.6147 9.80859 14.8336 9.80859 18.7734L9.80859 19.3008C9.80859 19.8823 9.33546 20.3555 8.75391 20.3555C8.17341 20.3555 7.70033 19.8831 7.69922 19.3024L7.69922 19.3008C7.69922 19.0716 7.41319 16.2589 8.56016 13.7109L10.3359 13.7109C10.6271 13.7109 10.8633 13.4748 10.8633 13.1836C10.8633 12.8924 10.6271 12.6563 10.3359 12.6563C9.96769 12.6563 4.08153 12.6563 3.48047 12.6563C2.89891 12.6563 2.42578 12.1831 2.42578 11.6016C2.42578 11.0191 2.89796 10.5469 3.48047 10.5469Z" fill="black"/>
<path d="M20.8828 8.4375C21.174 8.4375 21.4102 8.20136 21.4102 7.91016L21.4102 3.69141C21.4102 3.40021 21.174 3.16406 20.8828 3.16406C20.5916 3.16406 20.3555 3.40021 20.3555 3.69141L20.3555 7.91016C20.3555 8.20136 20.5916 8.4375 20.8828 8.4375Z" fill="black"/>
<path d="M15.6094 19.8281C15.6094 19.5369 15.3732 19.3008 15.082 19.3008L12.9727 19.3008C12.6815 19.3008 12.4453 19.5369 12.4453 19.8281C12.4453 20.1193 12.6815 20.3555 12.9727 20.3555L15.082 20.3555C15.3732 20.3555 15.6094 20.1193 15.6094 19.8281Z" fill="black"/>
<path d="M5.0625 19.8281C5.0625 19.5369 4.82636 19.3008 4.53516 19.3008L2.42578 19.3008C2.13458 19.3008 1.89844 19.5369 1.89844 19.8281C1.89844 20.1193 2.13458 20.3555 2.42578 20.3555L4.53516 20.3555C4.82636 20.3555 5.0625 20.1193 5.0625 19.8281Z" fill="black"/>
<path d="M4.65237 24.6755L6.14365 23.1842C6.34958 22.9783 6.34958 22.6444 6.14365 22.4384C5.93762 22.2325 5.60386 22.2325 5.39783 22.4384L3.90655 23.9297C3.70062 24.1356 3.70062 24.4695 3.90655 24.6755C4.11253 24.8814 4.44634 24.8814 4.65237 24.6755Z" fill="black"/>
<path d="M11.3641 22.4384C11.1581 22.6443 11.1581 22.9783 11.3641 23.1842L12.8553 24.6755C13.0613 24.8814 13.3951 24.8814 13.6012 24.6755C13.8071 24.4696 13.8071 24.1357 13.6012 23.9297L12.1099 22.4384C11.9038 22.2325 11.57 22.2325 11.3641 22.4384Z" fill="black"/>
</g>
<defs>
<clipPath id="clip0">
<rect width="27" height="27" fill="white" transform="translate(27 27) rotate(180)"/>
</clipPath>
</defs>
</svg>
