<svg width="24" height="24" viewBox="0 0 24 24" fill="none" xmlns="http://www.w3.org/2000/svg">
<path fill-rule="evenodd" clip-rule="evenodd" d="M0.46875 0.46875V8.01984H8.01984V4.24495V0.46875H5.59228V3.5527L4.24495 2.72227L2.89631 3.5527V0.46875H0.46875Z" fill="#FFD47B"/>
<path fill-rule="evenodd" clip-rule="evenodd" d="M5.59221 0.46875H2.89624V3.5527L4.24488 2.72227L5.59221 3.5527V0.46875Z" fill="#FFF1D8"/>
<path fill-rule="evenodd" clip-rule="evenodd" d="M19.981 14.7205C19.2475 14.7205 18.6536 15.3145 18.6536 16.0466C18.6536 16.7787 19.2475 17.3726 19.981 17.3726C20.7131 17.3726 21.307 16.7787 21.307 16.0466C21.307 15.3145 20.7131 14.7205 19.981 14.7205Z" fill="white"/>
<path fill-rule="evenodd" clip-rule="evenodd" d="M19.9809 12.6026C18.0782 12.6026 16.5369 14.1439 16.5369 16.0466C16.517 17.9267 17.5733 19.116 18.6389 20.5337L18.7226 20.6307L19.3936 21.4093C19.573 21.6166 19.7763 21.7202 19.9809 21.7216C20.1842 21.7202 20.3875 21.6166 20.5669 21.4093L21.2393 20.6307L21.323 20.5337C22.3873 19.116 23.4436 17.9267 23.4237 16.0466C23.4236 14.1439 21.8823 12.6026 19.9809 12.6026ZM21.307 16.0466C21.307 16.7787 20.713 17.3726 19.9809 17.3726C19.2475 17.3726 18.6535 16.7787 18.6535 16.0466C18.6535 15.3144 19.2475 14.7205 19.9809 14.7205C20.713 14.7205 21.307 15.3145 21.307 16.0466Z" fill="#FF6C8A"/>
<path fill-rule="evenodd" clip-rule="evenodd" d="M20.5669 21.4093C20.3875 21.6166 20.1842 21.7202 19.9809 21.7216C19.7763 21.7202 19.573 21.6166 19.3936 21.4093L18.7226 20.6307C17.3819 20.8459 16.4292 21.392 16.4292 22.0325C16.4292 22.8602 18.0197 23.5313 19.9809 23.5313C21.9407 23.5313 23.5312 22.8602 23.5312 22.0325C23.5312 21.392 22.5785 20.8459 21.2391 20.6307L20.5669 21.4093Z" fill="#CBE459"/>
<path d="M19.9812 17.8414C18.9908 17.8414 18.1851 17.0362 18.1851 16.0466C18.1851 15.057 18.9908 14.2518 19.9812 14.2518C20.9708 14.2518 21.776 15.057 21.776 16.0466C21.776 17.0362 20.9708 17.8414 19.9812 17.8414ZM19.9812 15.1893C19.5077 15.1893 19.1226 15.5738 19.1226 16.0466C19.1226 16.5193 19.5077 16.9039 19.9812 16.9039C20.4539 16.9039 20.8385 16.5193 20.8385 16.0466C20.8385 15.5738 20.4539 15.1893 19.9812 15.1893Z" fill="black"/>
<path d="M8.48859 8.01984V4.7137H16.3482C17.8218 4.7137 19.0206 5.91192 19.0206 7.38469C19.0206 8.85825 17.8218 10.057 16.3482 10.057H13.1182C12.8593 10.057 12.6494 10.2669 12.6494 10.5258C12.6494 10.7846 12.8593 10.9945 13.1182 10.9945H16.3482C18.3387 10.9945 19.9581 9.37514 19.9581 7.38469C19.9581 5.39498 18.3387 3.7762 16.3482 3.7762H8.48859V0.46875C8.48859 0.209906 8.27869 0 8.01984 0H0.46875C0.209906 0 0 0.209906 0 0.46875V8.01984C0 8.27869 0.209906 8.48859 0.46875 8.48859H8.01984C8.27869 8.48859 8.48859 8.27869 8.48859 8.01984ZM3.36506 0.9375H5.12353V2.71312L4.49091 2.32322C4.3402 2.23036 4.14998 2.23027 3.99919 2.32313L3.36511 2.71355V0.9375H3.36506ZM7.55109 7.55109H0.9375V0.9375H2.42756V3.5527C2.42756 3.72253 2.51944 3.87909 2.6677 3.96192C2.81602 4.04475 2.99756 4.04095 3.14208 3.9518L4.24477 3.27277L5.34628 3.9517C5.42156 3.99811 5.50688 4.02141 5.59223 4.02141C5.67089 4.02141 5.74964 4.00163 5.82075 3.96192C5.96906 3.87909 6.06098 3.72253 6.06098 3.55266V0.9375H7.55105V7.55109H7.55109Z" fill="black"/>
<path d="M22.0652 20.3309C23.0243 19.0707 23.9109 17.8627 23.8925 16.0441C23.8912 13.8876 22.137 12.1338 19.981 12.1338C17.8243 12.1338 16.0695 13.8878 16.0682 16.0443C16.0499 17.8627 16.9366 19.0711 17.8963 20.3309C16.9507 20.5952 16.3018 21.0322 16.0627 21.5638H4.37523C3.57573 21.5638 2.92529 20.914 2.92529 20.1152C2.92529 19.3157 3.57573 18.6653 4.37523 18.6653H10.7331C12.0496 18.6653 13.1206 17.5949 13.1206 16.2792C13.1206 14.9628 12.0496 13.8918 10.7331 13.8918H4.79111C3.99236 13.8918 3.34253 13.242 3.34253 12.4432C3.34253 11.6445 3.99236 10.9946 4.79111 10.9946H8.90885C9.16769 10.9946 9.3776 10.7847 9.3776 10.5259C9.3776 10.267 9.16769 10.0571 8.90885 10.0571H4.79111C3.47542 10.0571 2.40503 11.1275 2.40503 12.4432C2.40503 13.7589 3.47542 14.8293 4.79111 14.8293H10.7331C11.5326 14.8293 12.1831 15.4797 12.1831 16.2792C12.1831 17.078 11.5326 17.7278 10.7331 17.7278H4.37523C3.05879 17.7278 1.98779 18.7988 1.98779 20.1152C1.98779 21.4309 3.05879 22.5013 4.37523 22.5013H16.0621C16.2431 22.9069 16.6626 23.2606 17.2875 23.5242C18.0147 23.831 18.9713 24 19.981 24C20.9902 24 21.9464 23.831 22.6734 23.5242C23.5289 23.1631 24.0001 22.6333 24.0001 22.0324C24.0001 21.2913 23.276 20.6694 22.0652 20.3309ZM17.0057 16.0516C17.0057 16.0499 17.0057 16.0483 17.0057 16.0466C17.0057 14.4061 18.3404 13.0713 19.981 13.0713C21.6209 13.0713 22.955 14.4061 22.955 16.0466C22.955 16.0483 22.955 16.0499 22.955 16.0516C22.9713 17.5942 22.1731 18.6421 21.2489 19.8555C21.1525 19.9821 20.2126 21.1026 20.2126 21.1026C20.1315 21.1962 20.0473 21.2507 19.981 21.2528C19.8894 21.2501 19.796 21.1578 19.7488 21.1033C19.7488 21.1033 18.8106 19.9838 18.7147 19.858C17.7889 18.6438 16.9894 17.5952 17.0057 16.0516ZM19.981 23.0625C17.9863 23.0625 16.8981 22.382 16.8981 22.0324C16.8981 21.7941 17.4226 21.3652 18.5424 21.1396L19.0392 21.716C19.376 22.1051 19.7355 22.1887 19.9779 22.1903H19.9809C19.9809 22.1903 19.983 22.1903 19.984 22.1903C20.2257 22.1887 20.5845 22.1051 20.9217 21.7156L21.4191 21.1396C22.5383 21.3652 23.0625 21.7942 23.0625 22.0324C23.0626 22.382 21.9749 23.0625 19.981 23.0625Z" fill="black"/>
<path d="M10.5444 10.5258C10.5444 10.7846 10.7543 10.9945 11.0132 10.9945H11.0145C11.2733 10.9945 11.4826 10.7846 11.4826 10.5258C11.4826 10.2669 11.272 10.057 11.0131 10.057C10.7542 10.057 10.5444 10.2669 10.5444 10.5258Z" fill="black"/>
</svg>
