<svg width="30" height="30" viewBox="0 0 30 30" fill="none" xmlns="http://www.w3.org/2000/svg">
<path d="M14.3325 28.47C14.5087 28.65 14.7487 28.75 15 28.75C15.2512 28.75 15.4912 28.65 15.6675 28.47L27.66 16.3188C30.7737 13.165 30.7737 8.03125 27.66 4.87625C26.1475 3.34375 24.1362 2.5 21.995 2.5C19.8537 2.5 17.8437 3.34375 16.3312 4.875L15 6.225L13.6687 4.87625C12.1562 3.34375 10.145 2.5 8.00495 2.5C5.8637 2.5 3.85245 3.34375 2.33995 4.87625C-0.773799 8.03125 -0.773799 13.165 2.33995 16.3175L14.3325 28.47ZM3.6737 6.1925C4.8312 5.02125 6.36995 4.375 8.0037 4.375C9.6387 4.375 11.1762 5.02125 12.3325 6.19375L14.3312 8.21875C14.6825 8.575 15.3137 8.575 15.665 8.21875L17.6637 6.1925C18.8237 5.02125 20.3612 4.375 21.995 4.375C23.63 4.375 25.1675 5.02125 26.325 6.1925C28.7212 8.62125 28.7212 12.5725 26.325 15.0025L15 26.4788L3.6737 15.0013C1.27745 12.5738 1.27745 8.62125 3.6737 6.1925Z" fill="black"/>
<path d="M27.66 4.87625C26.1475 3.34375 24.1362 2.5 21.995 2.5C19.8537 2.5 17.8437 3.34375 16.3312 4.875L15 6.225L13.6687 4.87625C12.1562 3.34375 10.145 2.5 8.00495 2.5C5.8637 2.5 3.85245 3.34375 2.33995 4.87625C-0.773799 8.03125 -0.773799 13.165 2.33995 16.3175L14.3325 28.47C14.5087 28.65 14.7487 28.75 15 28.75C15.2512 28.75 15.4912 28.65 15.6675 28.47L27.66 16.3188C30.7737 13.165 30.7737 8.0325 27.66 4.87625Z" fill="#F44336"/>
<path d="M14.3325 28.47C14.5087 28.65 14.7487 28.75 15 28.75C15.2512 28.75 15.4912 28.65 15.6675 28.47L27.66 16.3188C30.7737 13.165 30.7737 8.03125 27.66 4.87625C26.1475 3.34375 24.1362 2.5 21.995 2.5C19.8537 2.5 17.8437 3.34375 16.3312 4.875L15 6.225L13.6687 4.87625C12.1562 3.34375 10.145 2.5 8.00495 2.5C5.8637 2.5 3.85245 3.34375 2.33995 4.87625C-0.773799 8.03125 -0.773799 13.165 2.33995 16.3175L14.3325 28.47ZM3.6737 6.1925C4.8312 5.02125 6.36995 4.375 8.0037 4.375C9.6387 4.375 11.1762 5.02125 12.3325 6.19375L14.3312 8.21875C14.6825 8.575 15.3137 8.575 15.665 8.21875L17.6637 6.1925C18.8237 5.02125 20.3612 4.375 21.995 4.375C23.63 4.375 25.1674 5.02125 26.325 6.1925C28.7212 8.62125 28.7212 12.5725 26.325 15.0025L15 26.4788L3.6737 15.0013C1.27745 12.5738 1.27745 8.62125 3.6737 6.1925Z" fill="black"/>
</svg>
