<svg width="30" height="30" viewBox="0 0 30 30" fill="none" xmlns="http://www.w3.org/2000/svg">
<path d="M14.3326 28.47C14.5088 28.65 14.7488 28.75 15.0001 28.75C15.2513 28.75 15.4913 28.65 15.6676 28.47L27.6601 16.3188C30.7738 13.165 30.7738 8.03125 27.6601 4.87625C26.1476 3.34375 24.1363 2.5 21.9951 2.5C19.8538 2.5 17.8438 3.34375 16.3313 4.875L15.0001 6.225L13.6688 4.87625C12.1563 3.34375 10.1451 2.5 8.00507 2.5C5.86382 2.5 3.85257 3.34375 2.34007 4.87625C-0.773677 8.03125 -0.773677 13.165 2.34007 16.3175L14.3326 28.47ZM3.67382 6.1925C4.83132 5.02125 6.37007 4.375 8.00382 4.375C9.63882 4.375 11.1763 5.02125 12.3326 6.19375L14.3313 8.21875C14.6826 8.575 15.3138 8.575 15.6651 8.21875L17.6638 6.1925C18.8238 5.02125 20.3613 4.375 21.9951 4.375C23.6301 4.375 25.1676 5.02125 26.3251 6.1925C28.7213 8.62125 28.7213 12.5725 26.3251 15.0025L15.0001 26.4788L3.67382 15.0013C1.27757 12.5738 1.27757 8.62125 3.67382 6.1925Z" fill="black"/>
</svg>
