<svg width="27" height="27" viewBox="0 0 27 27" fill="none" xmlns="http://www.w3.org/2000/svg">
<path d="M22.4648 16.9805C23.3387 16.9805 24.0469 17.6887 24.0469 18.5625C24.0469 19.4358 23.3381 20.1445 22.4648 20.1445H21.7793L21.7693 20.1862C22.4701 20.3481 22.9922 20.9762 22.9922 21.7266C22.9922 22.5998 22.2834 23.3086 21.4102 23.3086H20.3555C21.2293 23.3086 21.9375 24.0168 21.9375 24.8906C21.9375 25.7644 21.2293 26.4727 20.3555 26.4727C19.7267 26.4727 15.284 26.4727 14.6844 26.4727C11.7962 26.4727 11.0283 26.1183 8.22656 25.418V14.8711C8.28236 14.8274 16.6641 13.2955 16.6641 8.22656V7.69922C16.6641 6.82541 17.3723 6.11719 18.2461 6.11719C19.1188 6.11719 19.8265 6.82383 19.8281 7.69658C19.8387 7.69658 20.1688 11.0257 18.7734 13.8164H23.5195C24.3933 13.8164 25.1016 14.5246 25.1016 15.3984C25.1016 16.2717 24.3928 16.9805 23.5195 16.9805H22.4648Z" fill="#FFBFAB"/>
<path d="M8.22656 14.8711V25.418C8.22656 26.0007 7.75459 26.4727 7.17188 26.4727H1.89844V13.8164H7.17188C7.75459 13.8164 8.22656 14.2884 8.22656 14.8711Z" fill="#7BD8E8"/>
<path d="M18.7734 2.95312V0.527344C18.7734 0.236145 18.5373 0 18.2461 0C17.9549 0 17.7188 0.236145 17.7188 0.527344V2.95312C17.7188 3.24432 17.9549 3.48047 18.2461 3.48047C18.5373 3.48047 18.7734 3.24432 18.7734 2.95312Z" fill="black"/>
<path d="M6.11719 16.4531C5.82609 16.4531 5.58984 16.6894 5.58984 16.9805C5.58984 17.2716 5.82609 17.5078 6.11719 17.5078C6.40828 17.5078 6.64453 17.2716 6.64453 16.9805C6.64453 16.6894 6.40828 16.4531 6.11719 16.4531Z" fill="black"/>
<path d="M23.5195 13.2891H19.5828C20.1923 11.728 20.4389 9.89049 20.3914 8.25483C20.3823 7.94269 20.3703 7.76218 20.3542 7.64854C20.3269 6.50911 19.3913 5.58984 18.2461 5.58984C17.083 5.58984 16.1367 6.53611 16.1367 7.69922V8.22656C16.1367 11.5618 11.8539 13.4357 8.62186 14.2393C8.37749 13.6806 7.81966 13.2891 7.17188 13.2891H1.89844C1.60724 13.2891 1.37109 13.5252 1.37109 13.8164V26.4727C1.37109 26.7639 1.60724 27 1.89844 27H7.17188C7.81534 27 8.36995 26.6136 8.61685 26.0609C8.88448 26.1295 9.13291 26.1944 9.36225 26.2543C11.2035 26.7352 12.2177 27 14.6844 27H20.3555C21.5186 27 22.4648 26.0537 22.4648 24.8906C22.4648 24.4569 22.3332 24.0535 22.1078 23.7179C22.9225 23.433 23.5195 22.6546 23.5195 21.7266C23.5195 21.2945 23.3911 20.8897 23.1664 20.5526C23.9775 20.2672 24.5742 19.4906 24.5742 18.5625C24.5742 18.1288 24.4425 17.7254 24.2172 17.3898C25.0318 17.1049 25.6289 16.3265 25.6289 15.3984C25.6289 14.2353 24.6826 13.2891 23.5195 13.2891ZM7.69922 25.418C7.69922 25.7087 7.46265 25.9453 7.17188 25.9453H2.42578V14.3438H7.17188C7.46265 14.3438 7.69922 14.5803 7.69922 14.8711V25.418ZM23.5195 16.4531C22.3884 16.4531 22.1188 16.4531 20.8828 16.4531C20.5916 16.4531 20.3555 16.6893 20.3555 16.9805C20.3555 17.2717 20.5916 17.5078 20.8828 17.5078H22.4648C23.0464 17.5078 23.5195 17.9809 23.5195 18.5625C23.5195 19.145 23.0473 19.6172 22.4648 19.6172H19.8281C19.5369 19.6172 19.3008 19.8533 19.3008 20.1445C19.3008 20.4357 19.5369 20.6719 19.8281 20.6719H21.4102C21.9848 20.6719 22.4648 21.1309 22.4648 21.7266C22.4648 22.3091 21.9927 22.7812 21.4102 22.7812C20.2791 22.7812 20.0094 22.7812 18.7734 22.7812C18.4822 22.7812 18.2461 23.0174 18.2461 23.3086C18.2461 23.5998 18.4822 23.8359 18.7734 23.8359H20.3555C20.937 23.8359 21.4102 24.3091 21.4102 24.8906C21.4102 25.4722 20.937 25.9453 20.3555 25.9453H14.6844C12.3532 25.9453 11.4427 25.7075 9.62877 25.2338C9.36304 25.1644 9.07158 25.0883 8.75391 25.0073V15.2943C12.5702 14.3853 17.1914 12.1664 17.1914 8.22656V7.69922C17.1914 7.11766 17.6645 6.64453 18.2461 6.64453C18.8266 6.64453 19.2997 7.11693 19.3008 7.69758V7.69922C19.3008 7.9284 19.5868 10.7411 18.4398 13.2891H16.6641C16.3729 13.2891 16.1367 13.5252 16.1367 13.8164C16.1367 14.1076 16.3729 14.3438 16.6641 14.3438C17.0323 14.3438 22.9185 14.3438 23.5195 14.3438C24.1011 14.3438 24.5742 14.8169 24.5742 15.3984C24.5742 15.9809 24.102 16.4531 23.5195 16.4531Z" fill="black"/>
<path d="M6.11719 18.5625C5.82599 18.5625 5.58984 18.7986 5.58984 19.0898V23.3086C5.58984 23.5998 5.82599 23.8359 6.11719 23.8359C6.40839 23.8359 6.64453 23.5998 6.64453 23.3086V19.0898C6.64453 18.7986 6.40839 18.5625 6.11719 18.5625Z" fill="black"/>
<path d="M11.3906 7.17188C11.3906 7.46307 11.6268 7.69922 11.918 7.69922H14.0273C14.3185 7.69922 14.5547 7.46307 14.5547 7.17188C14.5547 6.88068 14.3185 6.64453 14.0273 6.64453H11.918C11.6268 6.64453 11.3906 6.88068 11.3906 7.17188Z" fill="black"/>
<path d="M21.9375 7.17188C21.9375 7.46307 22.1736 7.69922 22.4648 7.69922H24.5742C24.8654 7.69922 25.1016 7.46307 25.1016 7.17188C25.1016 6.88068 24.8654 6.64453 24.5742 6.64453H22.4648C22.1736 6.64453 21.9375 6.88068 21.9375 7.17188Z" fill="black"/>
<path d="M22.3476 2.32448L20.8564 3.81576C20.6504 4.02168 20.6504 4.3556 20.8564 4.56158C21.0624 4.76751 21.3961 4.76745 21.6022 4.56158L23.0934 3.0703C23.2994 2.86438 23.2994 2.53046 23.0934 2.32448C22.8875 2.11861 22.5537 2.11861 22.3476 2.32448Z" fill="black"/>
<path d="M15.6359 4.56158C15.8419 4.35565 15.8419 4.02174 15.6359 3.81576L14.1447 2.32448C13.9387 2.11861 13.6049 2.11861 13.3988 2.32448C13.1929 2.53041 13.1929 2.86432 13.3988 3.0703L14.8901 4.56158C15.0962 4.76751 15.43 4.76745 15.6359 4.56158Z" fill="black"/>
</svg>
