<svg width="24" height="24" viewBox="0 0 24 24" fill="none" xmlns="http://www.w3.org/2000/svg">
<path d="M20.1423 15.8042H14.4883C13.7307 17.0027 12.8997 18.1531 11.9998 19.2488C11.0999 18.1531 10.2688 17.0027 9.51125 15.8042H3.85719L1.18213 22.8176H22.8174L20.1423 15.8042Z" fill="#DFEEF4"/>
<path d="M12 1.18313C10.4728 1.18318 9.00826 1.78985 7.92841 2.8697C6.84857 3.94955 6.2419 5.41412 6.24185 6.94126C6.2081 12.435 12 19.2488 12 19.2488C12 19.2488 17.7918 12.435 17.7581 6.94126C17.758 5.41412 17.1514 3.94955 16.0715 2.8697C14.9917 1.78985 13.5271 1.18318 12 1.18313ZM12 9.38438C11.5168 9.38438 11.0444 9.2411 10.6426 8.97264C10.2409 8.70419 9.92773 8.32262 9.74281 7.8762C9.5579 7.42978 9.50952 6.93855 9.60379 6.46463C9.69805 5.99071 9.93074 5.55538 10.2724 5.21371C10.6141 4.87203 11.0494 4.63934 11.5233 4.54507C11.9973 4.45081 12.4885 4.49919 12.9349 4.6841C13.3813 4.86902 13.7629 5.18216 14.0313 5.58393C14.2998 5.9857 14.4431 6.45805 14.4431 6.94126C14.4432 7.26213 14.3801 7.57988 14.2574 7.87635C14.1346 8.17282 13.9547 8.44219 13.7278 8.66908C13.5009 8.89597 13.2315 9.07593 12.9351 9.19866C12.6386 9.3214 12.3208 9.38451 12 9.38438Z" fill="#95D6A4"/>
<path d="M20.7635 17.43L9.96727 21.27L5.75977 15.8044H9.51164C10.269 17.0029 11.0999 18.1532 11.9998 19.2488C12.8996 18.1532 13.7306 17.0029 14.4879 15.8044H20.1429L20.7635 17.43Z" fill="#F2DA30"/>
<path d="M5.61743 22.8176L16.3042 19.0163L19.2299 22.8176H5.61743Z" fill="#3EA2E5"/>
<path d="M16.6381 4.11488C16.6838 4.18836 16.7567 4.24081 16.8409 4.26079C16.9251 4.28078 17.0138 4.26668 17.0877 4.22158C17.1615 4.17647 17.2146 4.10401 17.2353 4.01997C17.256 3.93593 17.2426 3.84712 17.1981 3.77288C17.0262 3.49167 16.8318 3.2248 16.6169 2.97488C16.5597 2.91052 16.4795 2.87122 16.3936 2.86543C16.3077 2.85965 16.223 2.88786 16.1577 2.94397C16.0924 3.00008 16.0518 3.07961 16.0446 3.16539C16.0374 3.25118 16.0642 3.33636 16.1192 3.40256C16.311 3.62571 16.4845 3.86391 16.6381 4.11488Z" fill="black"/>
<path d="M9.22925 6.94144C9.22932 7.48941 9.39188 8.02506 9.69637 8.48065C10.0009 8.93624 10.4336 9.2913 10.9399 9.50095C11.4462 9.7106 12.0033 9.76542 12.5407 9.65847C13.0781 9.55152 13.5718 9.2876 13.9592 8.9001C14.3467 8.5126 14.6105 8.01891 14.7174 7.48146C14.8243 6.94401 14.7694 6.38694 14.5597 5.88068C14.35 5.37443 13.9948 4.94173 13.5392 4.63729C13.0836 4.33286 12.5479 4.17038 11.9999 4.17038C11.2653 4.17122 10.561 4.46345 10.0416 4.98296C9.52213 5.50246 9.22999 6.2068 9.22925 6.94144ZM14.1144 6.94144C14.1143 7.35962 13.9902 7.76839 13.7578 8.11605C13.5255 8.46372 13.1952 8.73468 12.8088 8.89466C12.4225 9.05464 11.9973 9.09646 11.5872 9.01483C11.1771 8.9332 10.8003 8.73179 10.5047 8.43606C10.209 8.14034 10.0077 7.76358 9.9261 7.35343C9.84454 6.94328 9.88644 6.51816 10.0465 6.13182C10.2065 5.74548 10.4775 5.41527 10.8253 5.18295C11.173 4.95063 11.5818 4.82663 11.9999 4.82663C12.5606 4.82722 13.0981 5.05023 13.4945 5.44672C13.891 5.84321 14.1139 6.38077 14.1144 6.94144Z" fill="black"/>
<path d="M2.08821 20.4426C2.12845 20.458 2.17134 20.4654 2.21443 20.4642C2.25752 20.463 2.29995 20.4534 2.3393 20.4358C2.37865 20.4182 2.41414 20.393 2.44374 20.3617C2.47333 20.3303 2.49645 20.2935 2.51177 20.2532L2.81177 19.4657C2.84056 19.3849 2.83658 19.2961 2.80068 19.2182C2.76478 19.1403 2.69983 19.0796 2.61972 19.049C2.5396 19.0184 2.4507 19.0204 2.37204 19.0546C2.29338 19.0887 2.23121 19.1523 2.19884 19.2317L1.89884 20.0192C1.88344 20.0594 1.87613 20.1023 1.87732 20.1453C1.87851 20.1884 1.88818 20.2308 1.90576 20.2701C1.92335 20.3095 1.94852 20.3449 1.97982 20.3745C2.01113 20.4041 2.04796 20.4272 2.08821 20.4426Z" fill="black"/>
<path d="M23.1239 22.7004L20.449 15.6879C20.4253 15.6259 20.3833 15.5724 20.3286 15.5347C20.2738 15.497 20.2089 15.4768 20.1425 15.4768H15.08C15.1109 15.4264 15.1417 15.3774 15.1726 15.3268C17.1205 12.1018 18.1008 9.28069 18.0867 6.94294C18.0872 6.3484 18.0006 5.75699 17.8297 5.18756C17.8046 5.10422 17.7475 5.03425 17.6708 4.99303C17.5941 4.95182 17.5043 4.94275 17.4209 4.96781C17.3376 4.99288 17.2676 5.05002 17.2264 5.12668C17.1852 5.20333 17.1761 5.29322 17.2012 5.37656C17.3539 5.88529 17.4311 6.41366 17.4305 6.94481C17.4588 11.6042 13.1013 17.3528 11.9999 18.7313C10.8985 17.3533 6.54085 11.6063 6.56916 6.94144C6.56931 5.94743 6.84223 4.97252 7.3582 4.12291C7.87416 3.27329 8.61338 2.58156 9.49534 2.12307C10.3773 1.66457 11.3681 1.45689 12.36 1.52265C13.3518 1.58841 14.3066 1.92508 15.1203 2.496C15.1915 2.54605 15.2797 2.56577 15.3654 2.5508C15.4512 2.53584 15.5275 2.48743 15.5775 2.41622C15.6276 2.34501 15.6473 2.25683 15.6323 2.17109C15.6173 2.08534 15.5689 2.00905 15.4977 1.959C14.5858 1.31914 13.5159 0.941738 12.4043 0.867907C11.2928 0.794075 10.1823 1.02664 9.19382 1.54028C8.20532 2.05391 7.37669 2.82893 6.79819 3.78092C6.21969 4.73292 5.91348 5.82539 5.91291 6.93938C5.89885 9.27919 6.8791 12.1007 8.82704 15.3253C8.85798 15.3765 8.88873 15.4254 8.91966 15.4753H3.85716C3.7907 15.4753 3.72581 15.4955 3.67107 15.5332C3.61633 15.5709 3.57433 15.6244 3.5506 15.6864L2.78185 17.7043C2.76649 17.7446 2.7592 17.7875 2.76041 17.8305C2.76163 17.8736 2.77131 17.916 2.78891 17.9554C2.82446 18.0348 2.89011 18.0968 2.97141 18.1279C3.05272 18.1589 3.14302 18.1564 3.22246 18.1208C3.30189 18.0853 3.36395 18.0196 3.39498 17.9383L4.08385 16.1316H5.59885L9.43116 21.1125L5.5606 22.4891H1.65873L1.9621 21.6932C1.99114 21.6123 1.98729 21.5233 1.95139 21.4452C1.9155 21.3672 1.85041 21.3063 1.77011 21.2757C1.68982 21.2451 1.60073 21.2472 1.52198 21.2816C1.44324 21.316 1.38112 21.3799 1.34898 21.4596L0.875915 22.7006C0.856897 22.7503 0.850254 22.8039 0.856559 22.8567C0.862865 22.9095 0.88193 22.96 0.912108 23.0038C0.942286 23.0476 0.98267 23.0834 1.02977 23.1081C1.07688 23.1328 1.12929 23.1456 1.18248 23.1456H22.8174C22.8706 23.1457 22.923 23.1328 22.9701 23.1081C23.0172 23.0834 23.0576 23.0475 23.0878 23.0037C23.118 22.9599 23.1371 22.9094 23.1434 22.8565C23.1496 22.8037 23.143 22.7501 23.1239 22.7004ZM6.42648 16.1321H9.33085C10.0707 17.2888 10.8784 18.4007 11.7496 19.4619C11.7804 19.4982 11.8187 19.5272 11.8619 19.5472C11.905 19.5671 11.952 19.5775 11.9995 19.5775C12.0471 19.5775 12.0941 19.5671 12.1372 19.5472C12.1804 19.5272 12.2187 19.4982 12.2495 19.4619C13.1207 18.4007 13.9283 17.2888 14.6682 16.1321H19.9158L20.3358 17.2337L10.0816 20.8813L6.42648 16.1321ZM10.0702 21.5812H10.072L16.1896 19.4062L18.5624 22.4893H7.51866L10.0702 21.5812ZM19.3913 22.4888L16.8397 19.1739L20.5709 17.847L22.3415 22.4893L19.3913 22.4888Z" fill="black"/>
</svg>
