<svg width="32" height="32" viewBox="0 0 32 32" fill="none" xmlns="http://www.w3.org/2000/svg">
<path d="M4.125 1H10.875C12.6009 1 14 2.39912 14 4.125V10.875C14 12.6009 12.6009 14 10.875 14H4.125C2.39912 14 1 12.6009 1 10.875V4.125C1 2.39912 2.39912 1 4.125 1Z" fill="#ACEBE2"/>
<path d="M21.125 1H27.875C29.6009 1 31 2.39912 31 4.125V10.875C31 12.6009 29.6009 14 27.875 14H21.125C19.3991 14 18 12.6009 18 10.875V4.125C18 2.39912 19.3991 1 21.125 1Z" fill="#ACEBE2"/>
<path d="M24.5 18C28.0899 18 31 20.9101 31 24.5C31 28.0899 28.0899 31 24.5 31C20.9101 31 18 28.0899 18 24.5C18 20.9101 20.9101 18 24.5 18Z" fill="#F79CAF"/>
<path d="M4.125 18H10.875C12.6009 18 14 19.3991 14 21.125V27.875C14 29.6009 12.6009 31 10.875 31H4.125C2.39912 31 1 29.6009 1 27.875V21.125C1 19.3991 2.39912 18 4.125 18Z" fill="#ACEBE2"/>
<path d="M14 4.125V10.875C14 12.6006 12.6006 14 10.875 14H8.375C10.1006 14 11.5 12.6006 11.5 10.875V4.125C11.5 2.39937 10.1006 1 8.375 1H10.875C12.6006 1 14 2.39937 14 4.125Z" fill="#98D7CE"/>
<path d="M31 4.125V10.875C31 12.6006 29.6006 14 27.875 14H25.375C27.1006 14 28.5 12.6006 28.5 10.875V4.125C28.5 2.39937 27.1006 1 25.375 1H27.875C29.6006 1 31 2.39937 31 4.125Z" fill="#98D7CE"/>
<path d="M31 24.5C31 26.295 30.2725 27.92 29.0963 29.0963C27.92 30.2725 26.295 31 24.5 31C24.0725 31 23.6544 30.9588 23.25 30.8794C24.5438 30.6281 25.7 29.9925 26.5963 29.0963C27.7725 27.92 28.5 26.295 28.5 24.5C28.5 21.3375 26.2419 18.7031 23.25 18.1206C23.6544 18.0412 24.0725 18 24.5 18C28.09 18 31 20.91 31 24.5V24.5Z" fill="#E3889B"/>
<path d="M14 21.125V27.875C14 29.6006 12.6006 31 10.875 31H8.375C10.1006 31 11.5 29.6006 11.5 27.875V21.125C11.5 19.3994 10.1006 18 8.375 18H10.875C12.6006 18 14 19.3994 14 21.125Z" fill="#98D7CE"/>
<path d="M10.875 15H4.125C1.85044 15 0 13.1496 0 10.875V4.125C0 1.85044 1.85044 0 4.125 0H10.875C13.1496 0 15 1.85044 15 4.125V10.875C15 13.1496 13.1496 15 10.875 15ZM4.125 2C2.95325 2 2 2.95325 2 4.125V10.875C2 12.0467 2.95325 13 4.125 13H10.875C12.0467 13 13 12.0467 13 10.875V4.125C13 2.95325 12.0467 2 10.875 2H4.125Z" fill="black"/>
<path d="M27.875 15H21.125C18.8504 15 17 13.1496 17 10.875V4.125C17 1.85044 18.8504 0 21.125 0H27.875C30.1496 0 32 1.85044 32 4.125V10.875C32 13.1496 30.1496 15 27.875 15ZM21.125 2C19.9533 2 19 2.95325 19 4.125V10.875C19 12.0467 19.9533 13 21.125 13H27.875C29.0467 13 30 12.0467 30 10.875V4.125C30 2.95325 29.0467 2 27.875 2H21.125Z" fill="black"/>
<path d="M24.5 32C20.3645 32 17 28.6355 17 24.5C17 20.3645 20.3645 17 24.5 17C28.6355 17 32 20.3645 32 24.5C32 28.6355 28.6355 32 24.5 32ZM24.5 19C21.4673 19 19 21.4673 19 24.5C19 27.5327 21.4673 30 24.5 30C27.5327 30 30 27.5327 30 24.5C30 21.4673 27.5327 19 24.5 19Z" fill="black"/>
<path d="M10.875 32H4.125C1.85044 32 0 30.1496 0 27.875V21.125C0 18.8504 1.85044 17 4.125 17H10.875C13.1496 17 15 18.8504 15 21.125V27.875C15 30.1496 13.1496 32 10.875 32ZM4.125 19C2.95325 19 2 19.9533 2 21.125V27.875C2 29.0467 2.95325 30 4.125 30H10.875C12.0467 30 13 29.0467 13 27.875V21.125C13 19.9533 12.0467 19 10.875 19H4.125Z" fill="black"/>
</svg>
