<svg width="59" height="59" viewBox="0 0 59 59" fill="none" xmlns="http://www.w3.org/2000/svg">
<path d="M37.6046 57.8476H21.3953C21.3953 55.298 23.4623 53.231 26.0118 53.231H32.9885C35.538 53.231 37.6046 55.298 37.6046 57.8476V57.8476Z" fill="#72D8FF"/>
<path d="M27.2546 45.8128H31.7452V53.231H27.2546V45.8128Z" fill="#72D8FF"/>
<path d="M29.5 1.15234C24.1542 1.15234 19.8203 5.48623 19.8203 10.832V30.7135C19.8203 36.0593 24.1542 40.3932 29.5 40.3932C34.8458 40.3932 39.1797 36.0593 39.1797 30.7135V10.832C39.1797 5.48623 34.8458 1.15234 29.5 1.15234Z" fill="#ADE5FF"/>
<path d="M19.8203 21.4214V30.713C19.8203 36.0593 24.1542 40.3927 29.5 40.3927C34.8458 40.3927 39.1797 36.0593 39.1797 30.713V21.4214H19.8203Z" fill="#FF5D5D"/>
<path d="M29.5 41.5455C35.4728 41.5455 40.332 36.6863 40.332 30.7135V10.832C40.332 4.85919 35.4728 0 29.5 0C23.5272 0 18.668 4.85919 18.668 10.832V30.7135C18.668 36.6863 23.5272 41.5455 29.5 41.5455ZM29.5 2.30468C34.2021 2.30468 38.0273 6.12992 38.0273 10.832V20.3555H20.9727V10.832C20.9727 6.12992 24.7979 2.30468 29.5 2.30468ZM20.9727 22.6602H38.0273V30.7135C38.0273 35.4156 34.2021 39.2408 29.5 39.2408C24.7979 39.2408 20.9727 35.4156 20.9727 30.7135V22.6602Z" fill="black"/>
<path d="M26.696 15.1317H32.3038C32.9403 15.1317 33.4562 14.6158 33.4562 13.9793C33.4562 13.3428 32.9403 12.827 32.3038 12.827H26.696C26.0596 12.827 25.5437 13.3428 25.5437 13.9793C25.5437 14.6158 26.0596 15.1317 26.696 15.1317V15.1317Z" fill="black"/>
<path d="M26.696 10.837H32.3038C32.9403 10.837 33.4562 10.3211 33.4562 9.68461C33.4562 9.04813 32.9403 8.53227 32.3038 8.53227H26.696C26.0596 8.53227 25.5437 9.04813 25.5437 9.68461C25.5437 10.3211 26.0596 10.837 26.696 10.837V10.837Z" fill="black"/>
<path d="M44.2535 29.5612C43.6175 29.5612 43.1012 30.077 43.1012 30.7135C43.1012 38.2132 36.9996 44.3147 29.4999 44.3147C22.0002 44.3147 15.8987 38.2132 15.8987 30.7135C15.8987 30.077 15.3828 29.5612 14.7463 29.5612C14.1098 29.5612 13.594 30.077 13.594 30.7135C13.594 38.3181 18.9591 44.6924 26.1023 46.253V52.0786H26.0118C22.8307 52.0786 20.2429 54.6665 20.2429 57.8475C20.2429 58.484 20.7588 58.9999 21.3953 58.9999H37.6046C38.2411 58.9999 38.7569 58.484 38.7569 57.8475C38.7569 54.6669 36.1691 52.0786 32.988 52.0786H32.8975V46.253C40.0412 44.6924 45.4059 38.3181 45.4059 30.7135C45.4059 30.077 44.89 29.5612 44.2535 29.5612V29.5612ZM36.2555 56.6952H22.7448C23.2206 55.3498 24.5052 54.3833 26.0118 54.3833H32.9885C34.4946 54.3833 35.7793 55.3498 36.2555 56.6952ZM30.5929 52.0786H28.407V46.5812C28.7685 46.6059 29.1326 46.6194 29.4999 46.6194C29.8672 46.6194 30.2314 46.6059 30.5929 46.5812V52.0786Z" fill="black"/>
<path d="M5.76172 10.7636C5.12523 10.7636 4.60938 11.2794 4.60938 11.9159V23.1643C4.60938 23.8004 5.12523 24.3167 5.76172 24.3167C6.39821 24.3167 6.91406 23.8004 6.91406 23.1643V11.9159C6.91406 11.2794 6.39821 10.7636 5.76172 10.7636Z" fill="black"/>
<path d="M14.9805 21.4367C15.617 21.4367 16.1328 20.9209 16.1328 20.2844V14.7954C16.1328 14.1589 15.617 13.6431 14.9805 13.6431C14.344 13.6431 13.8281 14.1589 13.8281 14.7954V20.2844C13.8281 20.9209 14.344 21.4367 14.9805 21.4367Z" fill="black"/>
<path d="M1.15234 6.22264C0.515854 6.22264 0 6.73849 0 7.37498V26.5421C0 27.1786 0.515854 27.6945 1.15234 27.6945C1.78883 27.6945 2.30469 27.1786 2.30469 26.5421V7.37498C2.30469 6.73849 1.78883 6.22264 1.15234 6.22264Z" fill="black"/>
<path d="M10.3711 9.60089C9.7346 9.60089 9.21875 10.1167 9.21875 10.7532V26.3292C9.21875 26.9657 9.7346 27.4815 10.3711 27.4815C11.0076 27.4815 11.5234 26.9657 11.5234 26.3292V10.7532C11.5234 10.1167 11.0076 9.60089 10.3711 9.60089Z" fill="black"/>
<path d="M53.2383 10.7636C52.6018 10.7636 52.0859 11.2794 52.0859 11.9159V23.1643C52.0859 23.8004 52.6018 24.3167 53.2383 24.3167C53.8748 24.3167 54.3906 23.8004 54.3906 23.1643V11.9159C54.3906 11.2794 53.8748 10.7636 53.2383 10.7636Z" fill="black"/>
<path d="M44.0195 21.4367C44.656 21.4367 45.1719 20.9209 45.1719 20.2844V14.7954C45.1719 14.1589 44.656 13.6431 44.0195 13.6431C43.383 13.6431 42.8672 14.1589 42.8672 14.7954V20.2844C42.8672 20.9209 43.383 21.4367 44.0195 21.4367Z" fill="black"/>
<path d="M57.8477 6.22264C57.2112 6.22264 56.6953 6.73849 56.6953 7.37498V26.5421C56.6953 27.1786 57.2112 27.6945 57.8477 27.6945C58.4841 27.6945 59 27.1786 59 26.5421V7.37498C59 6.73849 58.4841 6.22264 57.8477 6.22264Z" fill="black"/>
<path d="M48.6289 25.1773C48.326 25.1773 48.0284 25.2997 47.8142 25.514C47.5999 25.7296 47.4766 26.0258 47.4766 26.3296C47.4766 26.633 47.5999 26.9301 47.8142 27.1444C48.0284 27.3591 48.326 27.482 48.6289 27.482C48.9318 27.482 49.2294 27.3591 49.4436 27.1444C49.6579 26.9301 49.7812 26.633 49.7812 26.3296C49.7812 26.0258 49.6579 25.7296 49.4436 25.514C49.2294 25.2997 48.9318 25.1773 48.6289 25.1773Z" fill="black"/>
<path d="M48.6289 9.60089C47.9924 9.60089 47.4766 10.1167 47.4766 10.7532V21.4367C47.4766 22.0732 47.9924 22.589 48.6289 22.589C49.2654 22.589 49.7812 22.0732 49.7812 21.4367V10.7532C49.7812 10.1167 49.2654 9.60089 48.6289 9.60089Z" fill="black"/>
<path d="M29.5 36.7021C32.8022 36.7021 35.489 34.0157 35.489 30.7135C35.489 30.077 34.9727 29.5612 34.3367 29.5612C33.7002 29.5612 33.1843 30.077 33.1843 30.7135C33.1843 32.7445 31.5315 34.3974 29.5 34.3974C28.8635 34.3974 28.3477 34.9132 28.3477 35.5497C28.3477 36.1862 28.8635 36.7021 29.5 36.7021Z" fill="black"/>
<path d="M34.3362 27.8867C34.6396 27.8867 34.9367 27.7633 35.1509 27.5491C35.3652 27.3348 35.4885 27.0373 35.4885 26.7343C35.4885 26.4314 35.3656 26.1338 35.1509 25.9196C34.9367 25.7053 34.6396 25.582 34.3362 25.582C34.0332 25.582 33.7362 25.7053 33.5219 25.9196C33.3076 26.1338 33.1838 26.4314 33.1838 26.7343C33.1838 27.0373 33.3072 27.3348 33.5219 27.5491C33.7362 27.7633 34.0332 27.8867 34.3362 27.8867Z" fill="black"/>
</svg>
