<svg width="18" height="18" viewBox="0 0 18 18" fill="none" xmlns="http://www.w3.org/2000/svg">
<g clip-path="url(#clip0)">
<path d="M13.8797 7.83485L6.54135 0.496509C5.87968 -0.165167 4.73685 -0.165167 4.13533 0.496509C3.47369 1.15818 3.47369 2.24086 4.13533 2.90253L10.2105 9.03786L4.13536 15.113C3.47372 15.7747 3.47372 16.8574 4.13536 17.5191C4.43613 17.8198 4.91731 18.0002 5.33834 18.0002C5.75937 18.0002 6.24063 17.8198 6.54135 17.519L13.8797 10.2408C14.1805 9.94008 14.3609 9.45889 14.3609 9.03783C14.3609 8.61679 14.1805 8.13561 13.8797 7.83485ZM13.0376 9.39874L5.75941 16.677C5.57895 16.8574 5.21807 16.8574 5.03761 16.677C4.85716 16.4965 4.85716 16.1356 5.03761 15.9552L11.5339 9.45893C11.7745 9.21832 11.7745 8.85744 11.5339 8.61683L4.97746 2.12059C4.797 1.87998 4.797 1.57922 4.97746 1.39879C5.09777 1.27849 5.21807 1.21837 5.33838 1.21837C5.45868 1.21837 5.57899 1.27849 5.69929 1.39879L13.0376 8.73713C13.1579 8.85744 13.2181 8.97775 13.2181 9.09805C13.1579 9.15813 13.0977 9.33862 13.0376 9.39874Z" fill="black"/>
</g>
<defs>
<clipPath id="clip0">
<rect width="18" height="18" fill="white"/>
</clipPath>
</defs>
</svg>
