<svg width="148" height="148" viewBox="0 0 148 148" fill="none" xmlns="http://www.w3.org/2000/svg">
<path d="M115.641 27.8879C103.895 21.5065 89.5224 17.7531 74 17.7531C47.4268 17.7531 24.2237 28.7536 11.7987 45.1073C5.67401 53.1681 3.32422 62.53 3.32422 72.516C3.32422 80.8031 9.93537 93.9823 12.5213 98.8206C13.1922 100.076 13.5408 101.477 13.5408 102.9L13.3119 122.433C13.3119 126.697 17.7704 129.494 21.6094 127.638L36.2042 119.322C38.1109 118.4 40.2866 118.208 42.3254 118.781C48.84 120.613 64.5607 125.205 74.1705 125.205C86.817 125.205 98.7004 122.713 109.022 118.338C112.392 117.284 116.175 115.046 120.762 112.081C127.23 107.9 131.855 105.615 134.374 102.2C135.494 100.742 136.722 99.0591 137.943 97.1652C141.916 91.007 145.832 82.623 145.832 72.5154C145.832 68.2488 145.731 67.2111 145.731 67.2111C144.367 61.7906 141.221 52.3119 133.553 42.9113C127.18 35.0977 120.225 30.4533 115.641 27.8879V27.8879Z" fill="#F5FCFF"/>
<path d="M126.935 105.977C122.349 108.942 118.003 110.686 114.633 111.741C104.311 116.115 92.4277 118.607 79.7812 118.607C70.1717 118.607 50.0968 114.021 43.5822 112.189C41.5435 111.616 39.3677 111.808 37.4611 112.73L25.5335 118.349C22.8414 119.617 19.7672 117.565 19.9054 114.592L20.6339 98.9293C20.6339 97.5063 20.2853 96.1049 19.6143 94.8501C17.0287 90.0121 7.94922 72.1312 7.94922 63.8441C7.94922 56.6565 9.76887 49.7933 13.0705 43.5048C6.16426 51.9171 2.16797 61.86 2.16797 72.516C2.16797 80.8031 8.77912 93.9826 11.3651 98.8207C12.036 100.076 12.3846 101.477 12.3846 102.9V124.478C12.3846 128.742 16.8431 131.539 20.6821 129.683L36.5346 122.02C38.4413 121.098 40.617 120.906 42.6558 121.479C49.1704 123.311 64.3904 127.279 74.0003 127.279C86.6468 127.279 98.5301 124.787 108.852 120.412C112.222 119.358 116.567 117.614 121.154 114.648C127.622 110.467 131.855 105.615 134.374 102.2C136.13 99.915 138.148 97.075 139.996 93.7398C137.46 97.1421 133.273 101.88 126.935 105.977V105.977Z" fill="#E6F7FE"/>
<path d="M107.638 90.0068L88.1719 71.1244C88.0522 71.0088 88.0545 70.8163 88.1771 70.7035L103.295 56.8071C105.405 54.8678 105.543 51.5855 103.604 49.4759C101.665 47.3661 98.3824 47.2282 96.2726 49.1672L84.8292 59.6856C84.6439 59.8559 84.3444 59.7247 84.3444 59.4729V38.1745C84.3444 35.5793 82.4828 33.339 79.9871 32.9288C79.7772 32.8944 79.563 32.8728 79.3448 32.865C76.3929 32.76 75.1233 36.2779 75.1233 39.2064L74.5781 89.1171C74.5781 91.9305 76.766 94.3266 79.5775 94.4266C81.9486 94.5107 83.3697 94.6125 84.0773 92.4983C84.2507 91.9806 84.3444 91.4264 84.3444 90.8503V82.532C84.3444 82.277 85.2497 80.3256 85.4333 80.5025L100.44 96.4931C101.447 97.4646 102.745 97.9477 104.042 97.9477C105.401 97.9477 106.758 97.417 107.777 96.3616C108.328 95.7904 108.715 96.1072 108.953 95.4019C109.573 93.5609 109.129 91.4452 107.638 90.0068V90.0068Z" fill="#E27F86"/>
<path d="M108.276 95.3372C106.666 95.3288 105.13 94.6625 103.973 93.5424L89.2781 79.3081C87.4816 77.6327 84.3505 78.2848 84.3505 80.5175L84.3447 82.8393V82.5317C84.3447 82.2767 84.6508 82.1467 84.8343 82.3236L100.433 97.4748C101.44 98.4463 102.739 98.9293 104.035 98.9293C105.394 98.9293 106.752 98.3986 107.77 97.3433C108.325 96.7677 108.715 96.0957 108.952 95.3846C108.738 95.3487 108.513 95.3386 108.276 95.3372V95.3372Z" fill="#DF646E"/>
<path d="M79.7486 87.2573V34.5814C79.7486 34.0071 79.8449 33.4558 80.0171 32.9393C79.7972 32.9017 79.574 32.8731 79.3451 32.865C76.3932 32.76 73.9673 35.1217 73.9673 38.0502V90.726C73.9673 93.5395 76.155 95.9355 78.967 96.0355C81.3399 96.1199 83.37 94.609 84.0761 92.4925C81.5963 92.0682 79.7486 89.8415 79.7486 87.2573Z" fill="#DF646E"/>
<path d="M41.2989 94.4266C27.8656 94.4266 18.5676 85.8666 18.5676 72.4333C18.5676 64.8772 20.9186 57.3569 26.335 52.8849C30.5478 49.4066 35.9455 47.3149 41.8224 47.3149C55.2557 47.3149 66.1846 58.2438 66.1846 71.6768C66.1846 77.5537 64.0927 82.9514 60.6144 87.1645C56.1426 92.5809 48.8553 94.4266 41.2989 94.4266V94.4266ZM41.8224 57.692C34.1114 57.692 27.8376 63.9655 27.8376 71.6768C27.8376 79.3881 34.1111 85.6616 41.8224 85.6616C49.5337 85.6616 55.8075 79.3881 55.8075 71.6768C55.8075 63.9655 49.5337 57.692 41.8224 57.692Z" fill="#E27F86"/>
<path d="M46.1583 91.7028C32.725 91.7028 21.7964 80.7739 21.7964 67.3409C21.7964 61.727 23.71 56.5548 26.9126 52.4307C21.1677 56.8913 17.4605 63.8574 17.4605 71.6768C17.4605 85.1101 28.3891 96.0387 41.8224 96.0387C49.6418 96.0387 56.608 92.3315 61.0685 86.5867C56.9444 89.7892 51.7722 91.7028 46.1583 91.7028Z" fill="#DF646E"/>
<path d="M113.626 109.335C113.098 111.011 115.315 116.146 119.531 116.813C123.131 117.384 126.569 116.218 127.902 113.004C128.13 112.455 128.297 111.871 128.393 111.259C129.059 107.06 126.181 103.114 121.966 102.447C120.543 102.221 119.15 102.399 117.902 102.894C115.455 103.865 113.878 108.537 113.626 109.335V109.335Z" fill="#E27F86"/>
<path d="M123.894 113.317C119.679 112.65 116.801 108.704 117.466 104.505C117.556 103.942 117.706 103.403 117.906 102.893C115.457 103.864 113.571 106.058 113.13 108.841C112.465 113.04 115.343 116.985 119.558 117.653C123.207 118.231 126.661 116.162 127.953 112.87C126.707 113.365 125.316 113.542 123.894 113.317Z" fill="#DF646E"/>
<path d="M125.484 85.2257C129.399 85.8458 132.866 85.5443 133.906 81.8163C133.986 81.5309 134.05 81.2381 134.098 80.9387L145.543 30.6282C146.21 26.4134 139.943 21.9182 135.728 21.2507C133.822 20.9489 131.275 21.2617 128.995 22.0847C126.233 23.0816 124.57 27.5153 124.205 29.824L120.564 76.8285C119.896 81.0433 121.269 84.5583 125.484 85.2257V85.2257Z" fill="#E27F86"/>
<path d="M131.039 81.5804C126.824 80.9129 123.948 76.9548 124.616 72.74L129.218 22.006C126.361 22.9886 123.871 24.7654 123.496 27.1363L118.834 78.5212C118.167 82.7361 121.042 86.6939 125.257 87.3616C129.29 88.0005 133.085 85.3943 133.991 81.4763C133.05 81.6946 132.052 81.7408 131.039 81.5804V81.5804Z" fill="#DF646E"/>
<path d="M147.888 67.0009C147.773 65.814 146.724 64.9492 145.532 65.0581C144.345 65.1677 143.469 66.2213 143.572 67.4097C143.576 67.453 143.664 68.5197 143.664 72.516C143.664 82.573 139.879 92.3529 132.72 100.799C131.945 101.712 132.058 103.08 132.972 103.854C133.379 104.2 133.877 104.369 134.372 104.369C134.988 104.369 135.598 104.108 136.027 103.603C143.86 94.363 148 83.6136 148 72.516C148 68.2664 147.9 67.118 147.888 67.0009V67.0009Z" fill="black"/>
<path d="M108.006 118.417C97.6725 122.796 85.9134 125.111 74 125.111C71.5228 125.111 68.4327 124.828 64.8159 124.27C63.6354 124.088 62.5254 124.899 62.343 126.082C62.1603 127.266 62.972 128.373 64.1554 128.556C67.9901 129.147 71.3025 129.447 74.0003 129.447C86.4901 129.447 98.834 127.013 109.698 122.409C110.8 121.942 111.315 120.669 110.848 119.567C110.38 118.464 109.108 117.95 108.006 118.417V118.417Z" fill="black"/>
<path d="M55.0476 122.386C50.2931 121.318 46.0037 120.168 43.2426 119.392C40.6931 118.675 37.9756 118.915 35.5908 120.068L19.7381 127.731C18.5951 128.283 17.3221 128.214 16.2456 127.539C15.1694 126.864 14.5526 125.748 14.5526 124.478V102.9C14.5526 101.123 14.1117 99.3595 13.2772 97.7982C11.1798 93.8745 4.33594 80.4536 4.33594 72.516C4.33594 60.5416 9.54571 49.2542 19.4019 39.8742C20.2694 39.0486 20.3032 37.6764 19.4779 36.8089C18.6529 35.9418 17.2804 35.9076 16.4127 36.7329C5.82895 46.8059 0 59.5137 0 72.516C0 81.2173 6.61086 94.5249 9.45321 99.8425C9.95271 100.777 10.2166 101.834 10.2166 102.9V124.478C10.2166 127.231 11.609 129.749 13.9418 131.212C16.1545 132.54 18.8142 132.893 21.6256 131.635L37.4784 123.972C38.909 123.28 40.5396 123.136 42.069 123.566C44.8807 124.357 49.2499 125.528 54.0969 126.617C55.2635 126.879 56.425 126.145 56.6875 124.977C56.9499 123.809 56.2157 122.649 55.0476 122.386V122.386Z" fill="black"/>
<path d="M25.7641 34.1059C26.1893 34.1059 26.6189 33.981 26.9949 33.7209C39.8669 24.8218 56.5603 19.921 74 19.921C88.6771 19.921 102.719 23.3346 114.606 29.7928C115.659 30.3649 116.974 29.9749 117.546 28.9227C118.118 27.8705 117.728 26.5544 116.676 25.9827C104.155 19.1807 89.398 15.5851 74 15.5851C55.6876 15.5851 38.1187 20.7593 24.5292 30.1544C23.5444 30.8355 23.2978 32.1857 23.9789 33.1708C24.3997 33.7796 25.0762 34.1059 25.7641 34.1059V34.1059Z" fill="black"/>
<path d="M73.9676 51.4823C72.77 51.4823 71.7996 52.453 71.7996 53.6503V90.7257C71.7996 94.7766 74.914 98.0607 78.8897 98.2018C82.6539 98.4159 86.5791 95.0943 86.5123 90.85V86.976L98.9281 99.0351C101.532 101.642 106.495 101.869 109.33 98.8487C112.146 95.9294 112.063 91.2631 109.148 88.4505L91.109 70.953L104.762 58.403C107.748 55.6581 107.945 50.9952 105.2 48.0089C102.767 45.2545 97.806 44.7255 94.8052 47.571L86.5123 55.1939V38.1745C86.5123 34.1235 83.398 30.8395 79.4222 30.6984C75.6589 30.4863 71.732 33.805 71.7996 38.0502V43.5025C71.7996 44.6998 72.77 45.6704 73.9676 45.6704C75.1652 45.6704 76.1356 44.6998 76.1356 43.5025V38.0502C76.1454 36.6774 77.3274 34.9852 79.2684 35.0315C80.8719 35.0884 82.1767 36.4982 82.1767 38.1745V59.4729C82.1767 60.4479 82.7536 61.331 83.6463 61.7229C84.5401 62.1149 85.5798 61.9412 86.2964 61.2821L97.7398 50.7637C98.5896 49.9471 100.758 49.5323 102.008 50.9432C103.135 52.1697 103.055 54.0842 101.828 55.2112L86.7121 69.1062C86.214 69.5626 85.9241 70.2118 85.916 70.8871C85.9079 71.5623 86.1825 72.2182 86.6629 72.6807L106.133 91.5672C107.332 92.7237 107.366 94.6399 106.21 95.8384C105.186 96.8041 103.508 97.2198 101.944 95.9202L86.3398 80.7641C85.6292 80.0781 84.5823 79.8841 83.6732 80.2703C82.7638 80.6562 82.1761 81.5442 82.1761 82.532V90.8503C82.1637 92.2231 80.9895 93.915 79.0435 93.869C77.4398 93.812 76.135 92.402 76.135 90.726V53.6503C76.1356 52.453 75.1649 51.4823 73.9676 51.4823V51.4823Z" fill="black"/>
<path d="M41.8227 45.1467C27.1941 45.1467 15.2928 57.0479 15.2928 71.6765C15.2928 86.3051 27.1941 98.2064 41.8227 98.2064C56.4513 98.2064 68.3526 86.3051 68.3526 71.6765C68.3526 57.0479 56.4513 45.1467 41.8227 45.1467ZM41.8227 93.8707C29.585 93.8707 19.6288 83.9146 19.6288 71.6768C19.6288 59.4391 29.585 49.4829 41.8227 49.4829C54.0605 49.4829 64.0166 59.4391 64.0166 71.6768C64.0166 83.9146 54.0605 93.8707 41.8227 93.8707Z" fill="black"/>
<path d="M41.8227 55.524C32.9159 55.524 25.6699 62.7699 25.6699 71.6768C25.6699 80.5837 32.9159 87.8296 41.8227 87.8296C50.7296 87.8296 57.9755 80.5834 57.9755 71.6768C57.9755 62.7702 50.7293 55.524 41.8227 55.524V55.524ZM41.8227 83.4937C35.307 83.4937 30.0059 78.1926 30.0059 71.6768C30.0059 65.1611 35.307 59.8599 41.8227 59.8599C48.3385 59.8599 53.6396 65.1611 53.6396 71.6768C53.6393 78.1926 48.3385 83.4937 41.8227 83.4937Z" fill="black"/>
<path d="M122.305 100.306C117.359 99.4011 111.717 103.109 110.989 108.502C110.138 113.875 113.83 118.941 119.219 119.794C124.048 120.759 129.882 116.923 130.535 111.597C131.438 106.648 127.698 101.031 122.305 100.306ZM126.252 110.919C125.868 113.563 123.071 116.042 119.897 115.512C116.87 115.032 114.795 112.192 115.272 109.18C115.751 106.562 118.32 104.017 121.627 104.588C124.267 104.969 126.781 107.746 126.252 110.919V110.919Z" fill="black"/>
<path d="M118.461 85.546C120.015 87.6842 122.308 89.0894 124.919 89.5027C129.729 90.4627 135.539 86.6491 136.227 81.3532L147.657 31.1092C148.146 28.6094 146.811 25.4725 143.883 22.9678C141.588 20.988 138.593 19.5094 136.068 19.1096C133.543 18.7096 130.238 19.19 127.443 20.3639C124.119 21.7231 121.672 24.2396 121.337 26.9403L116.682 78.2573C116.292 80.843 116.923 83.4284 118.461 85.546ZM120.976 78.8603C120.991 78.8505 125.639 27.4555 125.648 27.4187C125.858 26.3287 127.15 25.1898 129.122 24.3616C131.151 23.5095 133.669 23.1198 135.39 23.3921C137.109 23.6644 139.384 24.8134 141.051 26.2509C142.671 27.648 143.547 29.13 143.41 30.2319L131.984 80.4577C131.647 83.1728 128.841 85.7579 125.597 85.22C122.948 84.8367 120.445 82.0423 120.976 78.8603V78.8603Z" fill="black"/>
</svg>
