<svg width="37" height="37" viewBox="0 0 37 37" fill="none" xmlns="http://www.w3.org/2000/svg">
<g clip-path="url(#clip0)">
<path d="M31.8995 11.8889L28.0939 19.1552C27.4834 20.316 27.0646 21.5677 26.854 22.8623C26.5146 25.0645 26.4161 27.1799 25.8609 29.1971C25.6455 30.0575 25.2434 30.86 24.6826 31.5472V35.1496C24.6807 35.8301 24.1295 36.3813 23.449 36.3833H13.5799C12.8994 36.3813 12.3482 35.8301 12.3462 35.1496V31.6088L12.377 31.5842C12.1802 31.3194 12.0204 31.0288 11.9021 30.7208C11.7705 30.3785 11.5663 30.0693 11.3037 29.8138L5.30806 24.1454C5.07426 23.9138 4.94325 23.5984 4.9441 23.2695V18.495C4.9441 17.8233 5.48143 17.2749 6.15317 17.2614C6.63488 17.2549 7.11094 17.3647 7.54098 17.5821C7.71322 17.6637 7.87643 17.7631 8.02834 17.8783C8.80484 18.4609 9.26198 19.3749 9.26198 20.3456V20.9623C9.26311 21.3506 9.4458 21.7157 9.75555 21.9494L10.6374 22.6093C10.9706 22.8524 11.3543 23.0168 11.76 23.0905L13.3144 20.7836C13.4861 20.5052 13.5375 20.1689 13.4565 19.8521L12.5374 16.1881C12.4487 15.8264 12.1703 15.5418 11.8106 15.4455C11.4511 15.3492 11.0677 15.4565 10.8102 15.7256L9.39159 17.1936C8.75966 17.827 7.74739 17.869 7.0652 17.2902C6.38301 16.7113 6.2599 15.7056 6.78228 14.979L8.39852 12.6784C8.55918 12.4508 8.79157 12.2836 9.0584 12.2034L12.3708 11.2287C13.2458 10.9715 14.1779 11.3905 14.5667 12.2158L16.4295 16.1511C16.4546 16.2031 16.5128 16.2308 16.569 16.2175C16.6251 16.2042 16.6647 16.1534 16.6638 16.0955V3.10514C16.6469 2.08327 17.4615 1.24098 18.4837 1.22376C19.5055 1.20682 20.3478 2.02143 20.3648 3.04359L20.5683 16.6817C20.5723 16.7582 20.6324 16.8201 20.7087 16.8263C20.7852 16.8325 20.8544 16.7811 20.8707 16.7063L22.9309 7.15789L24.066 2.1677C24.2566 1.17294 25.1898 0.499218 26.1938 0.631646C26.6945 0.71212 27.14 0.995047 27.4258 1.41379C27.7118 1.83253 27.8126 2.35067 27.705 2.84622L24.8617 17.0025C24.8535 17.0606 24.8874 17.1165 24.943 17.136C24.9983 17.1555 25.0599 17.1332 25.0898 17.0826L28.5256 10.3715C28.9494 9.45406 30.0105 9.02035 30.9559 9.37839C31.4226 9.57604 31.788 9.95667 31.9662 10.431C32.1446 10.9057 32.1206 11.4326 31.8995 11.8889V11.8889Z" fill="#00C6DB"/>
<path d="M31.8995 11.8889L28.0938 19.1552C27.4833 20.316 27.0646 21.5677 26.854 22.8623C26.5146 25.0645 26.416 27.1799 25.8609 29.1971C25.6455 30.0575 25.2434 30.86 24.6826 31.5472V35.1496C24.6806 35.8301 24.1294 36.3813 23.449 36.3833H21.5986C22.2791 36.3813 22.83 35.8301 22.8323 35.1496V31.5472C23.3928 30.86 23.7951 30.0575 24.0103 29.1971C24.5654 27.1799 24.6642 25.0645 25.0034 22.8623C25.2143 21.5677 25.6327 20.316 26.2432 19.1552L30.0492 11.8889C30.4688 11.0311 30.1635 9.99507 29.3458 9.50178C29.832 9.20615 30.4301 9.1604 30.9558 9.37839C31.4226 9.57604 31.788 9.95667 31.9661 10.431C32.1446 10.9057 32.1206 11.4326 31.8995 11.8889V11.8889Z" fill="#00939F"/>
<path d="M27.7049 2.84621L24.6825 17.2614L24.2852 17.1998C23.9526 17.1484 23.655 16.9632 23.4621 16.6871C23.2693 16.4109 23.1975 16.0681 23.2639 15.7377L25.8546 2.84621C26.0217 2.06915 25.6741 1.27204 24.9908 0.866002C25.3508 0.646324 25.7778 0.563027 26.1937 0.631641C26.6943 0.712114 27.1399 0.995041 27.4256 1.41378C27.7117 1.83253 27.8125 2.35066 27.7049 2.84621V2.84621Z" fill="#00939F"/>
<path d="M27.9767 10.0908L26.1704 13.6178L28.3079 2.97553C28.4507 2.31565 28.3163 1.62584 27.936 1.06761C27.5557 0.509381 26.963 0.132144 26.2963 0.0234348C24.9712 -0.156995 23.733 0.720588 23.4645 2.03075L22.3283 7.02687L21.1243 12.6044L20.9817 3.03229C20.9616 1.66961 19.8407 0.581383 18.478 0.601431C17.1153 0.621478 16.0271 1.74246 16.0471 3.10514V13.8996L15.1218 11.9524C14.6062 10.8492 13.361 10.2893 12.1937 10.636L8.87569 11.6119C8.47812 11.7344 8.13251 11.986 7.89391 12.3268L6.28021 14.6238C5.86034 15.208 5.7344 15.9538 5.93912 16.6433C5.94222 16.6526 5.94759 16.6605 5.95013 16.6698C5.02624 16.7819 4.3305 17.5644 4.32739 18.495V23.2723C4.32739 23.7693 4.52759 24.2453 4.88252 24.5932L10.8793 30.2594C11.0767 30.4536 11.2295 30.6886 11.3272 30.9478C11.4353 31.2152 11.57 31.4713 11.7292 31.7118V35.1496C11.7292 36.1715 12.5577 36.9999 13.5798 36.9999H23.449C24.4711 36.9999 25.2996 36.1715 25.2996 35.1496V31.7717C25.842 31.0531 26.2353 30.2334 26.4561 29.3606C26.8063 27.9556 27.0497 26.526 27.1846 25.0839C27.2679 24.384 27.3529 23.6747 27.4633 22.9578C27.6638 21.73 28.0611 20.543 28.6402 19.4421L32.4546 12.1591C32.7508 11.5503 32.7836 10.847 32.5456 10.2133C32.3073 9.57999 31.8191 9.0723 31.1953 8.80971C29.9524 8.31727 28.5411 8.87889 27.9767 10.0908V10.0908ZM12.8025 20.4388L11.496 22.3812C11.3204 22.3162 11.1544 22.2279 11.0027 22.1177L10.1254 21.4559C9.97012 21.3393 9.87864 21.1566 9.87864 20.9623V20.3456C9.88005 19.5361 9.6135 18.7491 9.12078 18.1071C9.38648 17.9907 9.62847 17.8264 9.83487 17.6222L11.2591 16.148C11.3658 16.0537 11.5132 16.0198 11.6502 16.0582C11.7874 16.0966 11.8956 16.202 11.9376 16.3381L12.8576 20.0051C12.8968 20.1511 12.8773 20.3069 12.8031 20.4388H12.8025ZM30.7133 9.94593C31.0279 10.0775 31.2738 10.3342 31.3918 10.6538C31.5093 10.9622 31.4955 11.3049 31.3532 11.6026L27.5461 18.8708C26.9048 20.0912 26.4652 21.4076 26.2444 22.7686C26.1317 23.5007 26.0447 24.2242 25.9595 24.9374C25.8307 26.3182 25.5989 27.6873 25.2663 29.0336C24.8856 30.4166 24.0479 32.0654 22.2153 32.0654C21.8748 32.0654 21.5987 32.3415 21.5987 32.6823C21.5987 33.0229 21.8748 33.299 22.2153 33.299C22.8625 33.3018 23.4998 33.1383 24.0659 32.8246V35.1496C24.0659 35.4901 23.7898 35.7663 23.449 35.7663H13.5798C13.239 35.7663 12.9629 35.4901 12.9629 35.1496V32.8622C13.5338 33.1595 14.17 33.3094 14.8135 33.299C15.154 33.299 15.4302 33.0229 15.4302 32.6823C15.4302 32.3415 15.154 32.0654 14.8135 32.0654C13.7642 32.1371 12.7997 31.4891 12.4693 30.4906C12.3061 30.0645 12.0511 29.6794 11.723 29.3623L5.73977 23.7086C5.62428 23.5928 5.5599 23.4358 5.56103 23.2723V18.495C5.55849 18.1604 5.82533 17.8857 6.15993 17.8783C6.81726 17.8735 7.44947 18.1313 7.91622 18.5947C8.38268 19.0578 8.645 19.688 8.645 20.3456V20.9623C8.64641 21.5445 8.9203 22.0923 9.38535 22.4427L10.2649 23.1029C10.6664 23.3951 11.1281 23.5942 11.6163 23.6857C11.6344 23.6899 11.651 23.693 11.6688 23.6961C12.4143 23.8277 13.1823 23.7114 13.8554 23.3649C14.0528 23.2664 14.1824 23.0701 14.1957 22.8502C14.209 22.6302 14.1039 22.4196 13.9201 22.2982C13.736 22.1765 13.5013 22.1623 13.304 22.2609C13.1978 22.312 13.088 22.3552 12.9753 22.3905L13.8388 21.1091C14.0985 20.689 14.1768 20.1813 14.0553 19.7021L13.1374 16.0419C12.9609 15.3088 12.3044 14.7927 11.5505 14.7941C11.103 14.7899 10.6743 14.972 10.3666 15.2967L8.95362 16.7574C8.54645 17.1561 7.90238 17.1778 7.46924 16.8076C7.03638 16.4374 6.9576 15.7979 7.28796 15.334L8.90421 13.033C8.98468 12.9195 9.10045 12.8359 9.23344 12.795L12.5427 11.8217C13.1278 11.6474 13.7521 11.9273 14.0116 12.4799L15.8738 16.4126C16.0234 16.7229 16.367 16.8892 16.7033 16.8136C17.0394 16.7376 17.2788 16.44 17.2808 16.0955V3.09413C17.2692 2.41279 17.8125 1.85117 18.4938 1.83987C19.1751 1.8283 19.7368 2.37128 19.7481 3.05262L19.9516 16.6848C19.9539 17.0776 20.2518 17.4059 20.6429 17.4455C21.0339 17.4853 21.392 17.2241 21.4733 16.8395L23.5323 7.29766L24.6691 2.30153C24.7908 1.62838 25.4151 1.16587 26.0947 1.2455C26.4302 1.29858 26.7286 1.48833 26.9189 1.76956C27.1095 2.0508 27.175 2.39839 27.0999 2.7296L24.2582 16.8723C24.1837 17.2337 24.3864 17.5948 24.734 17.7191C25.0816 17.8433 25.4673 17.6925 25.6387 17.3656L29.0801 10.6422C29.3605 10.0208 30.0707 9.71807 30.7133 9.94593V9.94593Z" fill="black"/>
<path d="M17.3683 20.3518C17.1501 20.3205 16.9318 20.408 16.7957 20.5811C16.6596 20.7545 16.626 20.9874 16.7082 21.1919C16.7901 21.3966 16.975 21.5417 17.1933 21.5731C18.3035 21.7323 21.3875 22.5354 22.28 24.3224C22.4325 24.6271 22.803 24.7511 23.1079 24.5986C23.4129 24.4464 23.5365 24.0756 23.3843 23.771C22.0217 21.0456 17.557 20.3789 17.3683 20.3518V20.3518Z" fill="black"/>
<path d="M16.8934 22.8572C16.6878 22.77 16.4509 22.8005 16.2742 22.9374C16.0977 23.0741 16.0087 23.2958 16.0421 23.5168C16.0754 23.7377 16.2253 23.9234 16.4345 24.0022C16.4616 24.0132 19.1311 25.126 19.1311 28.9811C19.1311 29.3219 19.4073 29.5981 19.7481 29.5981C20.0886 29.5981 20.3647 29.3219 20.3647 28.9811C20.3647 24.3001 17.034 22.914 16.8934 22.8572V22.8572Z" fill="black"/>
</g>
<defs>
<clipPath id="clip0">
<rect width="37" height="37" fill="white"/>
</clipPath>
</defs>
</svg>
