<svg width="17" height="17" viewBox="0 0 17 17" fill="none" xmlns="http://www.w3.org/2000/svg">
<path d="M8.49829 14.0947V16.751C9.23175 16.751 9.82642 16.1563 9.82642 15.4229C9.82642 14.6894 9.23175 14.0947 8.49829 14.0947Z" fill="#E0230D"/>
<path d="M8.49829 14.0947C8.68157 14.0947 8.83032 14.6894 8.83032 15.4229C8.83032 16.1563 8.68157 16.751 8.49829 16.751C7.76483 16.751 7.17017 16.1563 7.17017 15.4229C7.17017 14.6894 7.76483 14.0947 8.49829 14.0947Z" fill="#FF5440"/>
<path d="M12.4827 4.23074C12.481 2.03502 10.6943 0.249023 8.49829 0.249023L11.1555 3.56668L11.1582 8.12514L9.49697 11.1136C11.1448 11.1126 12.4863 9.77235 12.4863 8.12514L12.4827 4.23074Z" fill="#E0230D"/>
<path d="M11.4902 8.12514L11.4876 4.23074C11.4862 2.03502 10.1458 0.249023 8.49829 0.249023C6.30124 0.249023 4.51392 2.03635 4.51392 4.2334V6.22559C4.51591 6.77244 4.96315 7.21471 5.51167 7.21471C6.06185 7.21271 6.5081 6.7668 6.5061 6.21861V4.2334C6.5061 3.13504 7.39993 2.24121 8.49829 2.24121C9.59599 2.24121 10.4898 3.13437 10.4905 4.23207L10.4935 8.12514C10.4935 8.67432 10.0469 9.11758 9.49804 9.11791C8.39935 9.11791 7.50585 10.0081 7.50585 11.1064V12.1025C7.50386 12.6507 7.94812 13.0966 8.49829 13.0986H8.50194C9.05046 13.0986 9.49605 12.6567 9.49804 12.1095L9.49698 11.1136C10.6172 10.9482 11.4902 9.66111 11.4902 8.12514Z" fill="#FF5440"/>
<path d="M8.49829 13.8457C7.62867 13.8457 6.92114 14.5532 6.92114 15.4229C6.92114 16.2925 7.62867 17 8.49829 17C9.36791 17 10.0754 16.2925 10.0754 15.4229C10.0754 14.5532 9.36795 13.8457 8.49829 13.8457ZM8.49829 16.502C7.90329 16.502 7.41919 16.0179 7.41919 15.4229C7.41919 14.8278 7.90329 14.3438 8.49829 14.3438C9.09329 14.3438 9.57739 14.8278 9.57739 15.4229C9.57739 16.0179 9.09332 16.502 8.49829 16.502Z" fill="black"/>
<path d="M12.7317 4.23044C12.7301 1.89776 10.831 0 8.49829 0C6.16398 0 4.26489 1.89909 4.26489 4.2334V6.22645C4.26732 6.90864 4.82666 7.46366 5.51263 7.46366C6.20017 7.46121 6.75755 6.90223 6.75513 6.21855V4.2334C6.75513 3.27223 7.53709 2.49023 8.49829 2.49023C9.45882 2.49023 10.2408 3.27167 10.2415 4.23224L10.2428 5.68082C10.2429 5.81828 10.3544 5.92961 10.4918 5.92961C10.6296 5.92948 10.741 5.81792 10.7408 5.68036L10.7395 4.23184C10.7386 2.99688 9.73325 1.99219 8.49829 1.99219C7.2625 1.99219 6.25708 2.99758 6.25708 4.2334V6.21941C6.25854 6.6294 5.92379 6.96412 5.51174 6.96562C5.10028 6.96562 4.7644 6.63322 4.76294 6.22559V4.2334C4.76294 2.17371 6.4386 0.498047 8.49829 0.498047C10.5565 0.498047 12.2322 2.17255 12.2336 4.23084L12.2372 8.12527C12.2372 9.63465 11.0078 10.8635 9.49677 10.8645C9.43073 10.8646 9.36738 10.8909 9.32073 10.9376C9.27405 10.9844 9.24788 11.0477 9.24795 11.1138L9.24895 12.1087C9.24745 12.5172 8.91237 12.8496 8.50194 12.8496H8.49919C8.29947 12.8489 8.11204 12.7708 7.97139 12.6296C7.83101 12.4887 7.75407 12.3019 7.75481 12.1025V11.1064C7.75481 10.1472 8.53677 9.36683 9.49813 9.36683C10.1842 9.36634 10.7424 8.80939 10.7424 8.125L10.7408 6.67642C10.7407 6.53896 10.6292 6.42766 10.4918 6.42766C10.354 6.42783 10.2426 6.53942 10.2428 6.67695L10.2443 8.12527C10.2443 8.53496 9.90942 8.86852 9.49794 8.86882C8.26212 8.86882 7.25673 9.87258 7.25673 11.1064V12.1017C7.25553 12.4335 7.38403 12.7458 7.61857 12.9812C7.85289 13.2163 8.16496 13.3465 8.49829 13.3477H8.50191C9.18596 13.3477 9.7445 12.7927 9.74696 12.1094L9.74623 11.3529C11.4158 11.2243 12.7352 9.8254 12.7352 8.12507L12.7317 4.23044Z" fill="black"/>
</svg>
