<svg width="43" height="43" viewBox="0 0 43 43" fill="none" xmlns="http://www.w3.org/2000/svg">
<path d="M16.1655 0H13.478V2.6875H16.1655V0Z" fill="black"/>
<path d="M21.5405 0H18.853V2.6875H21.5405V0Z" fill="black"/>
<path d="M36.2812 0H24.2265V2.6875H36.2812C38.5076 2.6875 40.3125 4.49232 40.3125 6.71875V36.2812C40.3125 38.5076 38.5076 40.3125 36.2812 40.3125H6.71875C4.49232 40.3125 2.6875 38.5076 2.6875 36.2812V6.71875C2.6875 4.49232 4.49232 2.6875 6.71875 2.6875H10.789V0H6.71875C3.00992 0.00445117 0.00445117 3.00992 0 6.71875V36.2812C0.00445117 39.99 3.00992 42.9954 6.71875 43H36.2812C39.99 42.9954 42.9954 39.99 43 36.2812V6.71875C42.9954 3.00992 39.99 0.00445117 36.2812 0Z" fill="black"/>
<path d="M16.1655 0H13.478V2.6875H16.1655V0Z" fill="black"/>
<path d="M21.5405 0H18.853V2.6875H21.5405V0Z" fill="black"/>
<path d="M36.2812 0H24.2265V2.6875H36.2812C38.5076 2.6875 40.3125 4.49232 40.3125 6.71875V36.2812C40.3125 38.5076 38.5076 40.3125 36.2812 40.3125H6.71875C4.49232 40.3125 2.6875 38.5076 2.6875 36.2812V6.71875C2.6875 4.49232 4.49232 2.6875 6.71875 2.6875H10.789V0H6.71875C3.00992 0.00445117 0.00445117 3.00992 0 6.71875V36.2812C0.00445117 39.99 3.00992 42.9954 6.71875 43H36.2812C39.99 42.9954 42.9954 39.99 43 36.2812V6.71875C42.9954 3.00992 39.99 0.00445117 36.2812 0Z" fill="black"/>
<path d="M16.1655 0H13.478V2.6875H16.1655V0Z" fill="black"/>
<path d="M21.5405 0H18.853V2.6875H21.5405V0Z" fill="black"/>
<path d="M36.2812 0H24.2265V2.6875H36.2812C38.5076 2.6875 40.3125 4.49232 40.3125 6.71875V36.2812C40.3125 38.5076 38.5076 40.3125 36.2812 40.3125H6.71875C4.49232 40.3125 2.6875 38.5076 2.6875 36.2812V6.71875C2.6875 4.49232 4.49232 2.6875 6.71875 2.6875H10.789V0H6.71875C3.00992 0.00445117 0.00445117 3.00992 0 6.71875V36.2812C0.00445117 39.99 3.00992 42.9954 6.71875 43H36.2812C39.99 42.9954 42.9954 39.99 43 36.2812V6.71875C42.9954 3.00992 39.99 0.00445117 36.2812 0Z" fill="black"/>
<g opacity="0.1">
<path opacity="0.1" d="M37.8612 9.12674L16.6315 30.3564C16.0441 30.9436 15.3056 31.3441 14.5076 31.5228C15.1738 31.9947 15.9741 32.2543 16.8015 32.2543C17.8538 32.2543 18.8633 31.8361 19.6073 31.092L39.7169 10.9824L37.8612 9.12674Z" fill="black"/>
</g>
<g clip-path="url(#clip0)">
<path d="M21.4976 29.9908V34.0221C22.6107 34.0221 23.5132 33.1196 23.5132 32.0065C23.5132 30.8933 22.6107 29.9908 21.4976 29.9908Z" fill="#E0230D"/>
<path d="M21.4976 29.9908C21.7757 29.9908 22.0015 30.8933 22.0015 32.0065C22.0015 33.1196 21.7757 34.0221 21.4976 34.0221C20.3844 34.0221 19.4819 33.1196 19.4819 32.0065C19.4819 30.8933 20.3844 29.9908 21.4976 29.9908Z" fill="#FF5440"/>
<path d="M27.5445 15.0208C27.5419 11.6884 24.8303 8.97794 21.4976 8.97794L25.5303 14.013L25.5344 20.9311L23.0132 25.4665C25.514 25.465 27.55 23.431 27.55 20.9311L27.5445 15.0208Z" fill="#E0230D"/>
<path d="M26.0382 20.9311L26.0343 15.0208C26.0321 11.6884 23.9979 8.97794 21.4976 8.97794C18.1632 8.97794 15.4507 11.6905 15.4507 15.0248V18.0483C15.4537 18.8782 16.1325 19.5494 16.9649 19.5494C17.7999 19.5464 18.4771 18.8696 18.4741 18.0377V15.0248C18.4741 13.3579 19.8306 12.0014 21.4976 12.0014C23.1635 12.0014 24.52 13.3569 24.521 15.0228L24.5256 20.9311C24.5256 21.7646 23.8478 22.4373 23.0148 22.4378C21.3474 22.4378 19.9914 23.7888 19.9914 25.4556V26.9673C19.9884 27.7993 20.6626 28.476 21.4976 28.4791H21.5031C22.3355 28.4791 23.0118 27.8084 23.0148 26.9779L23.0132 25.4665C24.7133 25.2155 26.0382 23.2622 26.0382 20.9311Z" fill="#FF5440"/>
<path d="M21.4976 29.6129C20.1778 29.6129 19.104 30.6866 19.104 32.0065C19.104 33.3263 20.1778 34.4 21.4976 34.4C22.8173 34.4 23.8911 33.3263 23.8911 32.0065C23.8911 30.6866 22.8174 29.6129 21.4976 29.6129ZM21.4976 33.6442C20.5946 33.6442 19.8599 32.9095 19.8599 32.0065C19.8599 31.1034 20.5946 30.3688 21.4976 30.3688C22.4006 30.3688 23.1353 31.1034 23.1353 32.0065C23.1353 32.9095 22.4006 33.6442 21.4976 33.6442Z" fill="black"/>
<path d="M27.9224 15.0203C27.92 11.4801 25.0378 8.60001 21.4976 8.60001C17.9549 8.60001 15.0728 11.4822 15.0728 15.0248V18.0496C15.0764 19.0849 15.9253 19.9272 16.9664 19.9272C18.0098 19.9235 18.8557 19.0752 18.8521 18.0376V15.0248C18.8521 13.5661 20.0388 12.3793 21.4976 12.3793C22.9553 12.3793 24.1421 13.5652 24.1431 15.0231L24.1451 17.2215C24.1453 17.4301 24.3145 17.5991 24.523 17.5991C24.7321 17.5989 24.9012 17.4296 24.9009 17.2208L24.8989 15.0224C24.8976 13.1482 23.3718 11.6234 21.4976 11.6234C19.6221 11.6234 18.0962 13.1493 18.0962 15.0248V18.0389C18.0984 18.6611 17.5904 19.1691 16.965 19.1714C16.3406 19.1714 15.8308 18.6669 15.8286 18.0483V15.0248C15.8286 11.8989 18.3717 9.35587 21.4976 9.35587C24.6212 9.35587 27.1643 11.8972 27.1664 15.0209L27.1719 20.9313C27.1719 23.222 25.3061 25.087 23.0129 25.0885C22.9127 25.0886 22.8165 25.1285 22.7457 25.1994C22.6749 25.2704 22.6352 25.3665 22.6353 25.4668L22.6368 26.9767C22.6345 27.5967 22.126 28.1012 21.5031 28.1012H21.4989C21.1958 28.1001 20.9114 27.9816 20.6979 27.7673C20.4849 27.5534 20.3681 27.2699 20.3692 26.9673V25.4556C20.3692 23.9999 21.556 22.8155 23.015 22.8155C24.0562 22.8148 24.9033 21.9696 24.9033 20.9309L24.9009 18.7325C24.9007 18.5238 24.7315 18.3549 24.523 18.3549C24.3139 18.3552 24.1448 18.5245 24.1451 18.7333L24.1474 20.9313C24.1474 21.5531 23.6392 22.0593 23.0147 22.0597C21.1391 22.0597 19.6133 23.5831 19.6133 25.4556V26.9661C19.6115 27.4697 19.8065 27.9436 20.1625 28.3009C20.5181 28.6577 20.9917 28.8553 21.4976 28.8571H21.5031C22.5412 28.8571 23.3889 28.0148 23.3926 26.9778L23.3915 25.8297C25.9253 25.6345 27.9277 23.5115 27.9277 20.931L27.9224 15.0203Z" fill="black"/>
</g>
<defs>
<clipPath id="clip0">
<rect width="25.8" height="25.8" fill="white" transform="translate(8.6001 8.60001)"/>
</clipPath>
</defs>
</svg>
