<svg width="27" height="27" viewBox="0 0 27 27" fill="none" xmlns="http://www.w3.org/2000/svg">
<path d="M13.5 0C6.04412 0 0 6.04412 0 13.5C0 20.9558 6.04412 26.9999 13.5 26.9999C20.9558 26.9999 26.9999 20.9558 26.9999 13.5C26.9916 6.04765 20.9524 0.00841915 13.5 0Z" fill="#F44336"/>
<path d="M15.9652 5.75215C14.912 4.74576 13.2536 4.74576 12.2005 5.75215C11.1608 6.79112 11.1603 8.47616 12.1993 9.51573C12.1997 9.51612 12.2001 9.5165 12.2005 9.51689L13.257 10.5734H6.45651C4.83568 10.5734 3.52174 11.8873 3.52174 13.5082C3.52174 15.129 4.83568 16.443 6.45651 16.443H13.257L12.2005 17.4995C11.2363 18.6097 11.3546 20.2913 12.4648 21.2555C13.4695 22.1281 14.9643 22.1249 15.9652 21.2478L22.4722 14.7408C23.1596 14.0532 23.1596 12.9386 22.4722 12.251L15.9652 5.75215Z" fill="#FAFAFA"/>
<path d="M13.5 27C6.04412 27 0 20.9558 0 13.5C0 6.04413 6.04412 0 13.5 0C20.9558 0 26.9999 6.04413 26.9999 13.5C26.9916 20.9524 20.9524 26.9916 13.5 27ZM13.5 1.17389C6.69245 1.17389 1.17389 6.69246 1.17389 13.5C1.17389 20.3075 6.69245 25.8261 13.5 25.8261C20.3075 25.8261 25.8261 20.3075 25.8261 13.5C25.8183 6.6957 20.3043 1.18165 13.5 1.17389Z" fill="black"/>
<path d="M14.087 22.032C12.6172 22.0288 11.4283 20.8346 11.4316 19.3648C11.4331 18.6622 11.7125 17.9887 12.2087 17.4913L13.2652 16.4347H6.45651C4.83568 16.4348 3.52174 15.1209 3.52174 13.5C3.52174 11.8791 4.83568 10.5652 6.45651 10.5652H13.257L12.2005 9.5087C11.1608 8.46973 11.1603 6.78469 12.1993 5.74512C12.1997 5.74473 12.2001 5.74435 12.2005 5.74396C13.2536 4.73757 14.912 4.73757 15.9652 5.74396L22.4722 12.251C23.1596 12.9386 23.1596 14.0532 22.4722 14.7408L15.9652 21.2478C15.469 21.7495 14.7926 22.0319 14.087 22.032ZM6.45651 11.7391C5.48401 11.7391 4.69564 12.5275 4.69564 13.5C4.69564 14.4725 5.48401 15.2609 6.45651 15.2609H14.6739C14.998 15.2602 15.2613 15.5226 15.2619 15.8468C15.2622 16.0031 15.2001 16.153 15.0894 16.2634L13.0304 18.313C12.4492 18.8935 12.4486 19.8353 13.0291 20.4165C13.0295 20.417 13.03 20.4174 13.0304 20.4178C13.6198 20.9791 14.5459 20.9791 15.1353 20.4178L21.6422 13.9109C21.8714 13.6817 21.8714 13.3101 21.6422 13.0809L15.1435 6.57393C14.5541 6.01271 13.628 6.01271 13.0386 6.57393C12.4574 7.15442 12.4568 8.09615 13.0373 8.67735C13.0377 8.67779 13.0382 8.67828 13.0386 8.67872L15.093 10.7331C15.3245 10.96 15.3281 11.3316 15.1012 11.5631C14.9888 11.6777 14.8344 11.7413 14.6739 11.7391H6.45651V11.7391Z" fill="black"/>
</svg>
