<svg width="32" height="32" viewBox="0 0 32 32" fill="none" xmlns="http://www.w3.org/2000/svg">
<g clip-path="url(#clip0)">
<path d="M15.9685 31.5294C24.5452 31.5294 31.498 24.5766 31.498 16C31.498 7.42329 24.5452 0.470524 15.9685 0.470524C7.39186 0.470524 0.439087 7.42329 0.439087 16C0.439087 24.5766 7.39186 31.5294 15.9685 31.5294Z" fill="#FEE565"/>
<path d="M5.26422 16C5.26422 8.24397 10.9514 1.8161 18.3822 0.656977C17.5959 0.534327 16.7892 0.470524 15.9685 0.470524C7.39187 0.470524 0.439087 7.42331 0.439087 16C0.439087 24.5766 7.39187 31.5294 15.9685 31.5294C16.7892 31.5294 17.5964 31.4655 18.3826 31.3429C10.9518 30.1838 5.26422 23.756 5.26422 16Z" fill="#FDD62F"/>
<path d="M29.4623 23.7591C29.2413 23.6223 28.9513 23.6907 28.8146 23.9117C27.4882 26.0553 25.6304 27.8473 23.442 29.0942C21.1859 30.3795 18.6125 31.059 16 31.059C10.4641 31.059 5.3863 28.0317 2.74817 23.1584C2.62445 22.9299 2.339 22.8449 2.11039 22.9686C1.88184 23.0923 1.79689 23.3779 1.92061 23.6064C4.72337 28.7838 10.1183 32.0001 16 32.0001C18.7755 32.0001 21.51 31.278 23.9078 29.9119C26.2325 28.5874 28.2059 26.6838 29.6148 24.4069C29.7516 24.1858 29.6832 23.8958 29.4623 23.7591Z" fill="black"/>
<path d="M1.93549 21.3902C1.27562 19.6697 0.941049 17.8561 0.941049 16C0.941049 12.5727 2.12414 9.21826 4.2723 6.55453C4.43548 6.35227 4.40373 6.05603 4.20141 5.89291C3.99915 5.72973 3.7029 5.76154 3.53979 5.9638C2.41712 7.35587 1.54238 8.91104 0.939857 10.586C0.316255 12.3197 0 14.1413 0 16C0 17.9717 0.355591 19.8987 1.05686 21.7272C1.12863 21.9144 1.30705 22.0293 1.49627 22.0293C1.55229 22.0293 1.60926 22.0192 1.66465 21.998C1.90732 21.905 2.02853 21.6329 1.93549 21.3902Z" fill="black"/>
<path d="M27.3137 4.6863C24.2917 1.66434 20.2737 0 16 0C11.858 0 7.92936 1.57707 4.93789 4.44062C4.75018 4.6203 4.74365 4.91817 4.92333 5.10588C5.10301 5.29359 5.40088 5.30011 5.58859 5.12044C8.40408 2.42533 12.1017 0.941049 16 0.941049C20.0224 0.941049 23.804 2.50746 26.6483 5.35168C29.4926 8.19591 31.059 11.9776 31.059 16C31.059 18.1592 30.6118 20.2435 29.7298 22.195C29.6228 22.4318 29.728 22.7105 29.9648 22.8175C30.0277 22.8459 30.0936 22.8593 30.1583 22.8593C30.3375 22.8593 30.5088 22.7564 30.5874 22.5825C31.5247 20.5083 32 18.2937 32 15.9999C32 11.7262 30.3357 7.70826 27.3137 4.6863Z" fill="black"/>
<path d="M10.7333 18.9384C10.642 18.695 10.3707 18.5718 10.1275 18.6631C9.88425 18.7544 9.76097 19.0256 9.85225 19.2689C10.3144 20.5007 11.1291 21.5543 12.2084 22.3156C13.3126 23.0946 14.613 23.5063 15.9687 23.5063C17.3244 23.5063 18.6248 23.0946 19.729 22.3156C20.8083 21.5542 21.623 20.5007 22.0851 19.2689C22.1764 19.0256 22.0532 18.7543 21.8098 18.6631C21.5666 18.5717 21.2953 18.695 21.2041 18.9384C20.3902 21.1078 18.2862 22.5654 15.9687 22.5654C13.6511 22.5654 11.5472 21.1077 10.7333 18.9384Z" fill="black"/>
<path d="M10.3334 10.9401C8.76633 10.9401 7.49146 12.2149 7.49146 13.7819C7.49146 14.0418 7.70212 14.2524 7.96198 14.2524C8.22184 14.2524 8.4325 14.0418 8.4325 13.7819C8.4325 12.7338 9.28522 11.8811 10.3334 11.8811C11.3815 11.8811 12.2342 12.7338 12.2342 13.7819C12.2342 14.0418 12.4449 14.2524 12.7047 14.2524C12.9646 14.2524 13.1753 14.0418 13.1753 13.7819C13.1753 12.2149 11.9004 10.9401 10.3334 10.9401Z" fill="black"/>
<path d="M19.7656 13.7819C19.7656 12.7338 20.6184 11.8811 21.6665 11.8811C22.7146 11.8811 23.5674 12.7338 23.5674 13.7819C23.5674 14.0418 23.778 14.2524 24.0379 14.2524C24.2977 14.2524 24.5084 14.0418 24.5084 13.7819C24.5084 12.2149 23.2335 10.9401 21.6665 10.9401C20.0995 10.9401 18.8246 12.2149 18.8246 13.7819C18.8246 14.0418 19.0353 14.2524 19.2951 14.2524C19.555 14.2524 19.7656 14.0418 19.7656 13.7819Z" fill="black"/>
<path d="M3.96495 15.6181C3.7194 15.5331 3.45145 15.6634 3.36645 15.9089L2.6727 17.9146C2.58776 18.1602 2.718 18.4282 2.96355 18.5131C3.01449 18.5308 3.06638 18.5391 3.11738 18.5391C3.31237 18.5391 3.49468 18.4169 3.562 18.2223L4.25574 16.2166C4.34074 15.971 4.2105 15.703 3.96495 15.6181Z" fill="black"/>
<path d="M5.29567 18.5391C5.49065 18.5391 5.67297 18.4169 5.74028 18.2223L6.43402 16.2166C6.51897 15.971 6.38873 15.703 6.14318 15.6181C5.8975 15.5331 5.62961 15.6634 5.54467 15.9089L4.85093 17.9146C4.76598 18.1602 4.89622 18.4282 5.14177 18.5131C5.19272 18.5307 5.2446 18.5391 5.29567 18.5391Z" fill="black"/>
<path d="M26.0105 18.5391C26.2055 18.5391 26.3878 18.4169 26.4551 18.2223L27.1489 16.2166C27.2338 15.971 27.1036 15.703 26.858 15.6181C26.6124 15.5331 26.3445 15.6634 26.2595 15.9089L25.5658 17.9146C25.4808 18.1602 25.6111 18.4282 25.8566 18.5131C25.9076 18.5307 25.9594 18.5391 26.0105 18.5391Z" fill="black"/>
<path d="M28.189 18.5391C28.384 18.5391 28.5663 18.4169 28.6336 18.2223L29.3273 16.2166C29.4123 15.971 29.282 15.703 29.0365 15.6181C28.791 15.5331 28.5229 15.6634 28.438 15.9089L27.7442 17.9146C27.6593 18.1602 27.7895 18.4282 28.0351 18.5131C28.0861 18.5307 28.1379 18.5391 28.189 18.5391Z" fill="black"/>
</g>
<defs>
<clipPath id="clip0">
<rect width="32" height="32" fill="white"/>
</clipPath>
</defs>
</svg>
