<svg width="20" height="20" viewBox="0 0 20 20" fill="none" xmlns="http://www.w3.org/2000/svg">
<g clip-path="url(#clip0)">
<path d="M4.47667 19.5956C4.25755 19.5956 4.03995 19.5272 3.85425 19.3929C3.50832 19.1422 3.34673 18.7113 3.44088 18.2955L4.72753 12.6278L0.364015 8.80108C0.0432668 8.52107 -0.0792644 8.07764 0.0524224 7.6719C0.184109 7.26692 0.542395 6.9802 0.9666 6.94099L6.74006 6.41683L9.02269 1.07505C9.19099 0.682586 9.5743 0.429131 10.0002 0.429131C10.4261 0.429131 10.8094 0.682586 10.9777 1.07414L13.2603 6.41683L19.0329 6.94099C19.458 6.97929 19.8163 7.26692 19.948 7.6719C20.0796 8.07688 19.9579 8.52107 19.6371 8.80108L15.2736 12.627L16.5603 18.2946C16.6546 18.7113 16.4928 19.1422 16.147 19.3922C15.802 19.6421 15.342 19.6613 14.9786 19.443L10.0002 16.4679L5.02173 19.4447C4.85342 19.5446 4.66588 19.5956 4.47667 19.5956ZM10.0002 15.1863C10.1894 15.1863 10.3768 15.2371 10.5452 15.337L15.2437 18.1472L14.0294 12.7978C13.9427 12.417 14.0719 12.0195 14.3661 11.762L18.4863 8.1486L13.0352 7.65359C12.6428 7.61773 12.3052 7.37099 12.1519 7.00935L10.0002 1.96832L7.8459 7.01011C7.69422 7.36931 7.35669 7.61605 6.96514 7.65191L1.51334 8.14692L5.63332 11.7603C5.92843 12.0186 6.05752 12.4154 5.97009 12.797L4.75668 18.1463L9.45513 15.337C9.62344 15.2371 9.81097 15.1863 10.0002 15.1863ZM6.69596 6.52014C6.69596 6.52014 6.69596 6.52105 6.69505 6.52182L6.69596 6.52014ZM13.3027 6.5177L13.3036 6.51937C13.3036 6.51846 13.3036 6.51846 13.3027 6.5177Z" fill="black"/>
</g>
<defs>
<clipPath id="clip0">
<rect width="20" height="20" fill="white"/>
</clipPath>
</defs>
</svg>
