<svg width="17" height="17" viewBox="0 0 17 17" fill="none" xmlns="http://www.w3.org/2000/svg">
<g clip-path="url(#clip0)">
<path d="M16.588 6.6075C16.4817 6.27805 16.1899 6.04511 15.8442 6.0132L11.1507 5.58674L9.29475 1.24246C9.15804 0.924429 8.84636 0.718979 8.50006 0.718979C8.15362 0.718979 7.84194 0.925077 7.70524 1.24389L5.84944 5.58751L1.1551 6.01385C0.810219 6.04511 0.518387 6.27805 0.412031 6.6075C0.305155 6.93695 0.404248 7.29739 0.664952 7.52554L4.21311 10.6366L3.16679 15.2444C3.0904 15.5831 3.22205 15.9329 3.50337 16.1369C3.65344 16.2474 3.83126 16.3027 4.00909 16.3027C4.16279 16.3027 4.31583 16.2617 4.45254 16.1795L8.50006 13.7591L12.5468 16.1788C12.8429 16.3565 13.2162 16.3409 13.4967 16.1377C13.7779 15.9337 13.9097 15.5837 13.8332 15.2451L12.787 10.6374L16.3352 7.52619C16.5957 7.29817 16.695 6.93759 16.588 6.6075Z" fill="#FFC107"/>
<path d="M3.80599 16.6561C3.61895 16.6561 3.434 16.5981 3.27615 16.484C2.98211 16.2715 2.84476 15.9053 2.92478 15.5512L4.01844 10.7344L0.309449 7.48157C0.0368134 7.24291 -0.0673382 6.86678 0.0445956 6.52177C0.156529 6.17753 0.461072 5.93317 0.821647 5.89984L5.72987 5.45431L7.66932 0.913794C7.81239 0.580198 8.1382 0.364761 8.5002 0.364761C8.8622 0.364761 9.18802 0.580198 9.33108 0.913016L11.2705 5.45431L16.178 5.89984C16.5393 5.93239 16.8439 6.17688 16.9558 6.52112C17.0677 6.866 16.9642 7.24291 16.6908 7.48092L12.9826 10.733L14.0763 15.5497C14.1564 15.904 14.0189 16.2701 13.725 16.4826C13.4324 16.6944 13.0421 16.7121 12.7325 16.5265L8.5002 13.9977L4.26851 16.528C4.12544 16.6137 3.96604 16.6561 3.80599 16.6561ZM8.5002 12.9083C8.66103 12.9083 8.82031 12.9515 8.9635 13.0365L12.9572 15.4251L11.925 10.8781C11.8513 10.5537 11.9612 10.2165 12.2113 9.99768L15.7134 6.92553L11.08 6.50477C10.7478 6.47507 10.4601 6.26612 10.3298 5.95795L8.5002 1.67308L6.66905 5.95859C6.53948 6.26534 6.25193 6.47429 5.91898 6.50413L1.28637 6.92488L4.78836 9.9969C5.0392 10.2158 5.14828 10.5537 5.07461 10.8781L4.04256 15.4251L8.03625 13.0365C8.17996 12.9515 8.33937 12.9083 8.5002 12.9083ZM5.69161 5.5429V5.54354V5.5429ZM11.3081 5.54069V5.54147C11.3081 5.54147 11.3081 5.54147 11.3081 5.54069Z" fill="black"/>
</g>
<defs>
<clipPath id="clip0">
<rect width="17" height="17" fill="white"/>
</clipPath>
</defs>
</svg>
