<svg width="33" height="33" viewBox="0 0 33 33" fill="none" xmlns="http://www.w3.org/2000/svg">
<path d="M16.5 2.9005C24.0109 2.9005 30.0996 8.98918 30.0996 16.5001C30.0996 24.011 24.0109 30.0996 16.5 30.0996C8.98918 30.0996 2.90038 24.011 2.90038 16.5001C2.90038 8.98918 8.98918 2.9005 16.5 2.9005ZM32.3555 16.5001C32.3555 7.7433 25.2567 0.644653 16.5 0.644653C7.74331 0.644653 0.644531 7.7433 0.644531 16.5001C0.644531 25.2568 7.74331 32.3555 16.5 32.3555C25.2567 32.3555 32.3555 25.2568 32.3555 16.5001Z" fill="#F44336"/>
<path d="M30.0996 16.5001C30.0996 8.98917 24.0109 2.9005 16.5 2.9005C8.98919 2.9005 2.90039 8.98917 2.90039 16.5001C2.90039 24.0109 8.98919 30.0996 16.5 30.0996C24.0109 30.0996 30.0996 24.0109 30.0996 16.5001ZM12.4896 11.3438H20.5104C21.1406 11.3438 21.6562 11.8594 21.6562 12.4896V20.5104C21.6562 21.1406 21.1406 21.6562 20.5104 21.6562H12.4896C11.8594 21.6562 11.3438 21.1406 11.3438 20.5104V12.4896C11.3438 11.8594 11.8594 11.3438 12.4896 11.3438Z" fill="#E1E6E9"/>
<path d="M21.6562 12.4896C21.6562 11.8595 21.1407 11.3438 20.5104 11.3438H12.4896C11.8594 11.3438 11.3438 11.8595 11.3438 12.4896V20.5105C11.3438 21.1406 11.8594 21.6562 12.4896 21.6562H20.5104C21.1406 21.6562 21.6561 21.1406 21.6561 20.5105L21.6562 12.4896Z" fill="#F44336"/>
<path d="M16.5 0C7.4019 0 0 7.4019 0 16.5001C0 25.5982 7.4019 33 16.5 33C25.5981 33 33 25.5982 33 16.5001C33 7.4019 25.5981 0 16.5 0ZM16.5 31.7109C8.11268 31.7109 1.28906 24.8874 1.28906 16.5001C1.28906 8.11268 8.11268 1.28906 16.5 1.28906C24.8873 1.28906 31.7109 8.11268 31.7109 16.5001C31.7109 24.8874 24.8873 31.7109 16.5 31.7109Z" fill="black"/>
<path d="M16.5 2.25584C8.64578 2.25584 2.25586 8.64577 2.25586 16.5001C2.25586 24.3542 8.64578 30.7441 16.5 30.7441C24.3542 30.7441 30.7442 24.3542 30.7442 16.5001C30.7442 8.64577 24.3542 2.25584 16.5 2.25584ZM16.5 29.4551C9.35657 29.4551 3.54492 23.6435 3.54492 16.5001C3.54492 9.35655 9.35657 3.5449 16.5 3.5449C23.6435 3.5449 29.4551 9.35655 29.4551 16.5001C29.4551 23.6435 23.6435 29.4551 16.5 29.4551Z" fill="black"/>
<path d="M6.99843 10.2701C6.69002 10.092 6.29589 10.1977 6.118 10.506C5.4174 11.7194 4.93852 13.0344 4.69475 14.4141C4.63282 14.7646 4.86678 15.099 5.21727 15.1609C5.25524 15.1676 5.29294 15.1709 5.3302 15.1709C5.63699 15.1709 5.90885 14.9509 5.96415 14.6384C6.18168 13.407 6.60907 12.2334 7.23432 11.1505C7.41234 10.8422 7.30671 10.4481 6.99843 10.2701Z" fill="black"/>
<path d="M28.4432 15.4595C28.4123 15.1048 28.0987 14.8416 27.7451 14.8734C27.3905 14.9043 27.1281 15.2168 27.159 15.5714C27.3504 17.7687 26.8686 19.9396 25.7659 21.8496C25.5879 22.1578 25.6935 22.552 26.0018 22.73C26.1033 22.7886 26.2141 22.8165 26.3234 22.8165C26.5462 22.8165 26.7628 22.7009 26.8822 22.4941C28.1179 20.3541 28.6577 17.9216 28.4432 15.4595Z" fill="black"/>
<path d="M5.15631 15.8164C4.8004 15.8164 4.51178 16.105 4.51178 16.4609L4.51172 16.5001C4.51172 16.856 4.80034 17.1446 5.15625 17.1446C5.51216 17.1446 5.80078 16.856 5.80078 16.5001L5.80084 16.4609C5.80084 16.105 5.51222 15.8164 5.15631 15.8164Z" fill="black"/>
<path d="M26.8443 13.7671C26.9207 14.0558 27.1816 14.2467 27.4668 14.2467C27.5215 14.2467 27.577 14.2396 27.6323 14.225C27.9765 14.1338 28.1815 13.7809 28.0903 13.4368L28.0794 13.396C27.9867 13.0524 27.6329 12.8489 27.2892 12.9418C26.9455 13.0345 26.7422 13.3884 26.8349 13.732L26.8443 13.7671Z" fill="black"/>
<path d="M20.5104 10.6993H12.4896C11.5024 10.6993 10.6992 11.5025 10.6992 12.4896V20.5105C10.6992 21.4976 11.5024 22.3008 12.4896 22.3008H20.5104C21.4975 22.3008 22.3007 21.4976 22.3007 20.5105V12.4896C22.3007 11.5025 21.4976 10.6993 20.5104 10.6993ZM21.0117 20.5105C21.0117 20.7869 20.7868 21.0118 20.5104 21.0118H12.4896C12.2132 21.0118 11.9883 20.7869 11.9883 20.5105V12.4896C11.9883 12.2132 12.2132 11.9884 12.4896 11.9884H20.5104C20.7867 11.9884 21.0116 12.2132 21.0116 12.4896L21.0117 20.5105Z" fill="black"/>
</svg>
