<svg width="55" height="55" viewBox="0 0 55 55" fill="none" xmlns="http://www.w3.org/2000/svg">
<g clip-path="url(#clip0)">
<path d="M40.8705 54.1943H5.74734C3.90979 54.1943 2.42017 52.7047 2.42017 50.8672V4.13284C2.42017 2.29528 3.90979 0.805664 5.74734 0.805664H40.8705C42.7081 0.805664 44.1977 2.29528 44.1977 4.13284V50.8672C44.1977 52.7047 42.7081 54.1943 40.8705 54.1943Z" fill="#EAF2FF"/>
<path d="M40.8705 0.805664H34.9636C36.8012 0.805664 38.2908 2.29528 38.2908 4.13284V50.8672C38.2908 52.7047 36.8012 54.1943 34.9636 54.1943H40.8705C42.7081 54.1943 44.1977 52.7047 44.1977 50.8672V4.13284C44.1977 2.29528 42.708 0.805664 40.8705 0.805664V0.805664Z" fill="#C9E0FD"/>
<path d="M40.8705 0.805664H5.74734C3.90979 0.805664 2.42017 2.29528 2.42017 4.13284V9.87035H44.1976V4.13284C44.1977 2.29528 42.708 0.805664 40.8705 0.805664V0.805664Z" fill="#FFD064"/>
<path d="M44.1977 9.87035V4.13284C44.1977 2.29528 42.708 0.805664 40.8705 0.805664H34.9641C36.8015 0.805986 38.2907 2.2955 38.2907 4.13284V9.87035H44.1977Z" fill="#FFC250"/>
<path d="M29.9714 51.6328L24.1564 54.1428C23.6536 54.3598 23.1441 53.8504 23.3612 53.3477L25.8713 47.5325C26.0071 47.2178 26.2014 46.9317 26.4437 46.6893L47.616 25.5169C48.4082 24.7248 49.6923 24.7248 50.4844 25.5169L51.987 27.0196C52.7791 27.8117 52.7791 29.0958 51.987 29.8879L30.8146 51.0604C30.5723 51.3027 30.2861 51.497 29.9714 51.6328V51.6328Z" fill="#E8A887"/>
<path d="M49.6647 32.2096L51.9861 29.8882C52.7782 29.0961 52.7782 27.8119 51.9861 27.0198L50.4835 25.5172C49.6913 24.7251 48.4072 24.7251 47.6151 25.5172L45.2937 27.8386L49.6647 32.2096Z" fill="#9BC4F9"/>
<path d="M26.4363 46.6881L42.9929 30.1315L47.3632 34.5018L30.8066 51.0584L26.4363 46.6881Z" fill="#E278B1"/>
<path d="M24.8874 49.8104L23.3605 53.3477C23.1435 53.8505 23.6529 54.3599 24.1556 54.1428L27.6929 52.6159L24.8874 49.8104Z" fill="#538EF6"/>
<path d="M49.6647 32.2096L45.2938 27.8386L43.002 30.1304L47.3729 34.5014L49.6647 32.2096Z" fill="#DBE8F9"/>
<path d="M39.4397 16.7069H7.17633C6.73311 16.7069 6.37378 17.0661 6.37378 17.5095C6.37378 17.9527 6.73311 18.312 7.17633 18.312H39.4397C39.883 18.312 40.2423 17.9528 40.2423 17.5095C40.2423 17.0662 39.883 16.7069 39.4397 16.7069Z" fill="black"/>
<path d="M39.4397 22.4343H7.17633C6.73311 22.4343 6.37378 22.7935 6.37378 23.2369C6.37378 23.6801 6.73311 24.0394 7.17633 24.0394H39.4397C39.883 24.0394 40.2423 23.6802 40.2423 23.2369C40.2423 22.7937 39.883 22.4343 39.4397 22.4343Z" fill="black"/>
<path d="M40.2423 28.9642C40.2423 28.5209 39.883 28.1616 39.4397 28.1616H7.17633C6.73311 28.1616 6.37378 28.5208 6.37378 28.9642C6.37378 29.4074 6.73311 29.7667 7.17633 29.7667H39.4397C39.883 29.7667 40.2423 29.4075 40.2423 28.9642Z" fill="black"/>
<path d="M30.2875 34.6916C30.2875 34.2484 29.9282 33.889 29.4849 33.889H7.17633C6.73311 33.889 6.37378 34.2483 6.37378 34.6916C6.37378 35.1349 6.73311 35.4941 7.17633 35.4941H29.4851C29.9283 35.4941 30.2875 35.1349 30.2875 34.6916Z" fill="black"/>
<path d="M24.4912 40.419C24.4912 39.9758 24.1319 39.6165 23.6887 39.6165H7.17633C6.73311 39.6165 6.37378 39.9757 6.37378 40.419C6.37378 40.8623 6.73311 41.2216 7.17633 41.2216H23.6887C24.1319 41.2214 24.4912 40.8622 24.4912 40.419Z" fill="black"/>
<path d="M7.17633 45.3439C6.73311 45.3439 6.37378 45.7031 6.37378 46.1464C6.37378 46.5896 6.73311 46.949 7.17633 46.949H17.9905C18.4337 46.949 18.793 46.5897 18.793 46.1464C18.793 45.7032 18.4337 45.3439 17.9905 45.3439H7.17633Z" fill="black"/>
<path d="M27.9961 53.362L30.2885 52.3726C30.6981 52.1959 31.0657 51.9462 31.3812 51.6307L52.556 30.4559C53.6623 29.3494 53.6626 27.5588 52.556 26.4522L51.0532 24.9495C49.9495 23.8458 48.1534 23.8458 47.0496 24.9495C44.9274 27.0717 27.9197 44.0794 25.8748 46.1243C25.8745 46.1246 25.8743 46.1249 25.874 46.1252C25.5588 46.4406 25.3095 46.808 25.133 47.217C24.323 49.0935 23.2925 51.4808 22.6226 53.0328C22.5717 53.1507 22.5388 53.2725 22.5212 53.395H5.74431C4.35201 53.395 3.21925 52.2624 3.21925 50.8701V10.671H43.3966V24.8726C43.3966 25.3158 43.756 25.6751 44.1992 25.6751C44.6424 25.6751 45.0017 25.3159 45.0017 24.8726V4.13005C45.0017 1.8527 43.1489 0 40.8717 0H5.74431C3.46696 0 1.61426 1.8527 1.61426 4.13005V50.87C1.61426 53.1472 3.46707 55 5.74431 55H40.8716C43.1489 55 45.0016 53.1473 45.0016 50.87V41.7966C45.0016 41.3533 44.6423 40.994 44.1991 40.994C43.7559 40.994 43.3965 41.3532 43.3965 41.7966V50.87C43.3965 52.2622 42.2638 53.3949 40.8715 53.3949H27.9198L27.9937 53.363C27.9945 53.3628 27.9954 53.3624 27.9961 53.362V53.362ZM3.21925 4.13005C3.21925 2.73775 4.35201 1.60499 5.74431 1.60499H40.8716C42.2639 1.60499 43.3966 2.73775 43.3966 4.13005V9.06576H3.21925V4.13005ZM48.1844 26.0845C48.6622 25.6066 49.4402 25.6064 49.9182 26.0845L51.4209 27.5872C51.899 28.0651 51.899 28.843 51.4209 29.3209L49.6667 31.0751L46.4302 27.8386L48.1844 26.0845ZM45.2953 28.9736L48.5318 32.2101L47.3748 33.3672L44.1383 30.1307L45.2953 28.9736ZM43.0033 31.2657L46.2398 34.5022L30.8137 49.9283L27.5772 46.6918L43.0033 31.2657ZM24.2934 53.2121L25.1548 51.2164L26.2891 52.3507L24.2934 53.2121ZM27.8746 51.6663L25.8392 49.6308L26.565 47.9494L29.5562 50.9405L27.8746 51.6663Z" fill="black"/>
</g>
<defs>
<clipPath id="clip0">
<rect width="55" height="55" fill="white"/>
</clipPath>
</defs>
</svg>
