<svg width="32" height="32" viewBox="0 0 32 32" fill="none" xmlns="http://www.w3.org/2000/svg">
<path d="M26.8568 21.0722H19.318C18.308 22.6703 17.1999 24.2041 16 25.665C14.8002 24.2041 13.692 22.6703 12.682 21.0722H5.14329L1.57654 30.4235H30.4235L26.8568 21.0722Z" fill="#DFEEF4"/>
<path d="M16.0001 1.57748C13.9639 1.57755 12.0111 2.38645 10.5713 3.82624C9.13155 5.26604 8.32265 7.21881 8.32258 9.25498C8.27758 16.58 16.0001 25.665 16.0001 25.665C16.0001 25.665 23.7226 16.58 23.6776 9.25498C23.6775 7.21881 22.8686 5.26604 21.4288 3.82624C19.989 2.38645 18.0363 1.57755 16.0001 1.57748V1.57748ZM16.0001 12.5125C15.3558 12.5125 14.726 12.3214 14.1903 11.9635C13.6546 11.6056 13.2371 11.0968 12.9905 10.5016C12.744 9.90635 12.6795 9.25137 12.8052 8.61948C12.9309 7.98758 13.2411 7.40715 13.6967 6.95158C14.1522 6.49601 14.7327 6.18577 15.3646 6.06008C15.9965 5.93438 16.6514 5.99889 17.2467 6.24545C17.8419 6.492 18.3506 6.90952 18.7086 7.44521C19.0665 7.98091 19.2576 8.61071 19.2576 9.25498C19.2577 9.68281 19.1736 10.1065 19.0099 10.5018C18.8463 10.8971 18.6064 11.2562 18.3038 11.5588C18.0013 11.8613 17.6422 12.1012 17.2469 12.2649C16.8516 12.4285 16.4279 12.5126 16.0001 12.5125V12.5125Z" fill="#F45858"/>
<path d="M27.6851 23.24L13.2901 28.36L7.68005 21.0725H12.6826C13.6923 22.6705 14.8003 24.2042 16.0001 25.665C17.1998 24.2042 18.3078 22.6705 19.3176 21.0725H26.8576L27.6851 23.24Z" fill="#F2DA30"/>
<path d="M7.49011 30.4235L21.7391 25.355L25.6401 30.4235H7.49011Z" fill="#3EA2E5"/>
<path d="M22.1843 5.48649C22.2452 5.58447 22.3424 5.6544 22.4547 5.68105C22.567 5.7077 22.6853 5.6889 22.7838 5.62876C22.8822 5.56862 22.953 5.472 22.9806 5.35995C23.0082 5.24789 22.9903 5.12948 22.931 5.03049C22.7018 4.65555 22.4426 4.29972 22.156 3.96649C22.0798 3.88068 21.9729 3.82828 21.8584 3.82057C21.7438 3.81286 21.6309 3.85047 21.5438 3.92529C21.4568 4.0001 21.4026 4.10613 21.393 4.22052C21.3834 4.3349 21.4192 4.44847 21.4925 4.53674C21.7482 4.83427 21.9795 5.15187 22.1843 5.48649V5.48649Z" fill="black"/>
<path d="M12.3058 9.25524C12.3059 9.98587 12.5226 10.7001 12.9286 11.3075C13.3346 11.915 13.9116 12.3884 14.5867 12.6679C15.2617 12.9475 16.0045 13.0205 16.7211 12.8779C17.4376 12.7353 18.0958 12.3835 18.6124 11.8668C19.129 11.3501 19.4808 10.6919 19.6233 9.97526C19.7658 9.25866 19.6926 8.5159 19.413 7.84089C19.1334 7.16588 18.6599 6.58895 18.0524 6.18304C17.4449 5.77714 16.7307 5.56049 16 5.56049C15.0205 5.56161 14.0814 5.95126 13.3889 6.64393C12.6963 7.3366 12.3068 8.27572 12.3058 9.25524V9.25524ZM18.8193 9.25524C18.8192 9.81281 18.6538 10.3578 18.3439 10.8214C18.0341 11.2849 17.5937 11.6462 17.0786 11.8595C16.5634 12.0728 15.9966 12.1286 15.4497 12.0198C14.9029 11.9109 14.4006 11.6424 14.0063 11.2481C13.6121 10.8538 13.3437 10.3514 13.2349 9.80456C13.1262 9.25769 13.182 8.69086 13.3954 8.17574C13.6088 7.66062 13.9702 7.22034 14.4338 6.91058C14.8974 6.60082 15.4425 6.43549 16 6.43549C16.7476 6.43628 17.4643 6.73363 17.9928 7.26228C18.5214 7.79093 18.8186 8.50768 18.8193 9.25524V9.25524Z" fill="black"/>
<path d="M2.78428 27.2567C2.83794 27.2773 2.89513 27.2871 2.95257 27.2856C3.01002 27.284 3.0666 27.2712 3.11907 27.2477C3.17153 27.2243 3.21885 27.1907 3.25831 27.1489C3.29778 27.1071 3.3286 27.058 3.34903 27.0042L3.74903 25.9542C3.78741 25.8465 3.7821 25.7281 3.73424 25.6243C3.68638 25.5204 3.59977 25.4394 3.49295 25.3987C3.38614 25.3579 3.2676 25.3605 3.16272 25.4061C3.05784 25.4516 2.97494 25.5364 2.93178 25.6422L2.53178 26.6922C2.51126 26.7459 2.50151 26.803 2.5031 26.8605C2.50468 26.9179 2.51757 26.9744 2.54102 27.0268C2.56447 27.0793 2.59802 27.1266 2.63977 27.166C2.68151 27.2054 2.73062 27.2363 2.78428 27.2567V27.2567Z" fill="black"/>
<path d="M30.8321 30.2672L27.2655 20.9172C27.2339 20.8345 27.1779 20.7632 27.1049 20.713C27.0319 20.6627 26.9454 20.6358 26.8568 20.6357H20.1068C20.1481 20.5685 20.189 20.5032 20.2303 20.4357C22.8275 16.1357 24.1345 12.3742 24.1158 9.25724C24.1165 8.46452 24.001 7.67598 23.7731 6.91674C23.7396 6.80561 23.6634 6.71231 23.5612 6.65736C23.459 6.60242 23.3392 6.59032 23.2281 6.62374C23.1169 6.65715 23.0236 6.73335 22.9687 6.83555C22.9137 6.93776 22.9016 7.05761 22.935 7.16874C23.1386 7.84704 23.2417 8.55154 23.2408 9.25974C23.2785 15.4722 17.4685 23.137 16 24.975C14.5315 23.1377 8.7213 15.475 8.75905 9.25524C8.75925 7.92989 9.12314 6.63001 9.81109 5.49719C10.499 4.36438 11.4847 3.44207 12.6606 2.83074C13.8365 2.21941 15.1577 1.94251 16.4801 2.03018C17.8026 2.11786 19.0756 2.56676 20.1605 3.32799C20.2555 3.39472 20.3731 3.42101 20.4874 3.40106C20.6017 3.38111 20.7034 3.31656 20.7702 3.22161C20.8369 3.12666 20.8632 3.0091 20.8432 2.89477C20.8233 2.78044 20.7587 2.67872 20.6638 2.61199C19.448 1.75883 18.0213 1.25564 16.5393 1.15719C15.0572 1.05875 13.5766 1.36884 12.2586 2.05369C10.9406 2.73854 9.83576 3.77189 9.06442 5.04122C8.29308 6.31054 7.8848 7.76717 7.88405 9.25249C7.8653 12.3722 9.1723 16.1342 11.7695 20.4337C11.8108 20.502 11.8518 20.5672 11.893 20.6337H5.14305C5.05443 20.6338 4.96791 20.6607 4.89493 20.711C4.82194 20.7612 4.76593 20.8325 4.7343 20.9152L3.7093 23.6057C3.68881 23.6594 3.6791 23.7166 3.68071 23.774C3.68233 23.8315 3.69524 23.888 3.71871 23.9405C3.76611 24.0464 3.85364 24.1291 3.96205 24.1705C4.07046 24.2119 4.19086 24.2085 4.29677 24.1611C4.40268 24.1137 4.48543 24.0261 4.5268 23.9177L5.4453 21.5087H7.4653L12.575 28.15L7.4143 29.9855H2.2118L2.6163 28.9242C2.65501 28.8164 2.64989 28.6977 2.60202 28.5936C2.55416 28.4895 2.46737 28.4084 2.36031 28.3676C2.25326 28.3268 2.13447 28.3296 2.02947 28.3754C1.92448 28.4213 1.84166 28.5065 1.7988 28.6127L1.16805 30.2675C1.14269 30.3337 1.13383 30.4051 1.14224 30.4755C1.15065 30.546 1.17607 30.6133 1.21631 30.6717C1.25654 30.7301 1.31039 30.7778 1.3732 30.8107C1.436 30.8437 1.50588 30.8608 1.5768 30.8607H30.4233C30.4942 30.8609 30.5642 30.8437 30.627 30.8107C30.6898 30.7778 30.7437 30.73 30.7839 30.6716C30.8242 30.6132 30.8496 30.5458 30.858 30.4754C30.8664 30.4049 30.8575 30.3335 30.8321 30.2672V30.2672ZM8.5688 21.5095H12.4413C13.4278 23.0517 14.5047 24.5342 15.6663 25.9492C15.7074 25.9975 15.7584 26.0363 15.816 26.0629C15.8735 26.0895 15.9362 26.1033 15.9995 26.1033C16.0629 26.1033 16.1256 26.0895 16.1831 26.0629C16.2407 26.0363 16.2917 25.9975 16.3328 25.9492C17.4944 24.5342 18.5713 23.0517 19.5578 21.5095H26.5546L27.1145 22.9782L13.4423 27.8417L8.5688 21.5095ZM13.427 28.775H13.4295L21.5863 25.875L24.75 29.9857H10.025L13.427 28.775ZM25.8553 29.985L22.453 25.5652L27.428 23.796L29.7888 29.9857L25.8553 29.985Z" fill="black"/>
</svg>
