<svg width="34" height="34" viewBox="0 0 34 34" fill="none" xmlns="http://www.w3.org/2000/svg">
<g clip-path="url(#clip0)">
<path d="M28.779 5.26713C22.3495 -1.16235 11.8282 -1.16235 5.39875 5.26713C-0.0584975 10.7244 -0.882869 19.1289 2.92382 25.4777C3.11292 25.7929 3.16299 26.1724 3.05533 26.5241L1.23668 32.4667C1.17235 32.6768 1.36898 32.8735 1.57935 32.8091L7.52194 30.9907C7.87342 30.8831 8.25292 30.9332 8.56835 31.1223C14.9172 34.9289 23.3217 34.1046 28.779 28.6473C35.2084 22.2179 35.2084 11.6966 28.779 5.26713Z" fill="#FF6464" fill-opacity="0.7"/>
<path d="M5.04882 26.5241C5.15647 26.1726 5.10641 25.7931 4.9173 25.4777C1.11062 19.1289 1.93499 10.7243 7.39224 5.2671C10.3548 2.30449 14.1862 0.708409 18.0855 0.475987C13.5221 0.203877 8.86562 1.80022 5.39875 5.2671C-0.0584974 10.7243 -0.882869 19.1289 2.92382 25.4777C3.11292 25.7931 3.16299 26.1726 3.05533 26.5241L1.23668 32.4667C1.17235 32.6768 1.36898 32.8734 1.57935 32.8091L3.28516 32.2872L5.04882 26.5241Z" fill="#D8DCE5"/>
<path d="M6.15657 16.821C6.13167 17.5912 6.75475 18.2309 7.52127 18.2309H7.52387V18.2314C7.48703 18.2314 7.44916 18.2314 7.40999 18.2314C6.66603 18.2319 6.06345 18.8355 6.06397 19.5795C6.06448 20.3237 6.66811 20.9224 7.41206 20.9219H13.0172C13.1733 20.9219 13.2838 21.0744 13.2353 21.2228L12.744 22.7224C12.3259 23.9986 12.4003 24.8676 12.4003 26.3623C12.4003 27.2416 13.1131 27.9542 13.9923 27.9542C14.7909 27.9542 15.4659 27.3625 15.5704 26.5708C15.6861 25.6948 15.7642 24.1369 17.2124 22.7423L18.2347 21.7582C18.8041 21.2098 19.5639 20.9035 20.3543 20.9035H21.5159V12.067C21.1506 12.067 20.5979 12.0673 20.5973 12.0673C18.6459 12.0686 18.8241 10.1358 16.3971 10.1381H8.13657C7.39365 10.1381 6.79106 10.7404 6.79106 11.4836C6.79106 12.2265 7.39339 12.8291 8.13657 12.8291H7.89974C7.16823 12.8291 6.54411 13.3977 6.51973 14.1285C6.49405 14.8927 7.10597 15.5201 7.86446 15.5201H7.5371C6.80533 15.5201 6.18044 16.0895 6.15657 16.821Z" fill="#F5C5A9"/>
<path d="M14.2442 26.3623C14.2442 24.8676 14.17 23.9986 14.5879 22.7224L15.0792 21.2228C15.128 21.0744 15.0172 20.9219 14.8611 20.9219C14.619 20.9219 13.8826 20.9219 13.017 20.9219C13.1734 20.9219 13.2839 21.0744 13.2351 21.2228L12.7441 22.7224C12.3259 23.9986 12.4004 24.8676 12.4004 26.3623C12.4004 27.2416 13.113 27.9542 13.9923 27.9542C14.334 27.9542 14.6525 27.8452 14.9137 27.6595C14.5088 27.3708 14.2442 26.8977 14.2442 26.3623Z" fill="#EEBDA4"/>
<path d="M9.26054 12.6198C8.88467 12.3811 8.63513 11.9617 8.63513 11.4836C8.63513 10.7404 9.23746 10.1381 9.98063 10.1381H8.13657C7.39339 10.1381 6.79106 10.7404 6.79106 11.4836C6.79106 12.2265 7.39339 12.8291 8.13657 12.8291H7.89973C7.16823 12.8291 6.54411 13.3977 6.51973 14.1285C6.49405 14.8926 7.10597 15.5201 7.86446 15.5201H7.53709C6.80533 15.5201 6.18044 16.0895 6.15657 16.821C6.13167 17.5912 6.75475 18.2309 7.52127 18.2309H7.52386V18.2311C7.48703 18.2311 7.44916 18.2314 7.40999 18.2314C6.66603 18.2319 6.06345 18.8355 6.06397 19.5795C6.06448 20.3237 6.66811 20.9221 7.41206 20.9216H9.25613C8.51218 20.9221 7.90855 20.3237 7.90803 19.5795C7.90778 19.0718 8.1887 18.6309 8.60322 18.401C8.65225 18.3738 8.68182 18.3211 8.68182 18.2651V18.1325C8.68182 18.0812 8.65718 18.0322 8.61438 18.0036C8.23332 17.751 7.98482 17.3126 8.00064 16.821C8.01958 16.2397 8.41827 15.7622 8.94823 15.5902C9.01308 15.5692 9.05717 15.5092 9.05717 15.441C9.05717 15.3884 9.03149 15.3386 8.98714 15.3103C8.59985 15.0639 8.3472 14.6249 8.3638 14.1285C8.38222 13.5772 8.742 13.1189 9.23149 12.9267C9.29167 12.9031 9.33136 12.8455 9.33136 12.7809V12.7508C9.3311 12.6981 9.30516 12.6481 9.26054 12.6198Z" fill="#EEBDA4"/>
<path d="M22.079 21.6975H27.1749C27.5594 21.6975 27.8712 21.3857 27.8712 21.0012V11.7962C27.8712 11.4118 27.5594 11.1 27.1749 11.1H22.079C21.6946 11.1 21.3828 11.4118 21.3828 11.7962V21.0012C21.3828 21.3859 21.6946 21.6975 22.079 21.6975Z" fill="#00AAF0"/>
<path d="M23.3763 21.0012V11.7962C23.3763 11.4115 23.6881 11.1 24.0725 11.1H22.079C21.6943 11.1 21.3828 11.4118 21.3828 11.7962V21.0012C21.3828 21.3857 21.6943 21.6975 22.079 21.6975H24.0725C23.6881 21.6975 23.3763 21.3859 23.3763 21.0012Z" fill="#039ADD"/>
<path d="M11.8881 26.375C11.8881 27.5275 12.8258 28.4652 13.9786 28.4652C15.0232 28.4652 15.9142 27.6844 16.0509 26.6487C16.163 25.7976 16.2315 24.3781 17.5446 23.1141L18.5666 22.1297C19.0457 21.6684 19.6758 21.4145 20.3406 21.4145H20.9414C21.1066 21.8765 21.5474 22.2085 22.0654 22.2085H27.1613C27.8202 22.2085 28.3561 21.6726 28.3561 21.014V11.8089C28.3561 11.15 27.8202 10.6141 27.1613 10.6141H22.0654C21.4846 10.6141 20.9998 11.0312 20.8932 11.5814H20.5834C20.5827 11.5814 20.5821 11.5814 20.5821 11.5814C19.862 11.5814 19.538 11.2686 19.0901 10.8354C18.5445 10.3083 17.8657 9.65227 16.3882 9.65227C16.3866 9.65227 16.385 9.65227 16.3835 9.65227H8.12291C7.10632 9.65227 6.2791 10.4795 6.2791 11.4963C6.2791 11.9679 6.45705 12.3988 6.74939 12.7251C6.31568 13.0514 6.02696 13.5575 6.00803 14.1246C5.99246 14.5873 6.14577 15.027 6.44148 15.3764C5.97664 15.701 5.66406 16.2262 5.64487 16.8177C5.62853 17.3302 5.81763 17.82 6.19142 18.1953C5.79973 18.5344 5.55148 19.035 5.552 19.5927C5.55278 20.6078 6.38052 21.4329 7.39711 21.4329H7.39815H12.6326L12.2567 22.58C11.8111 23.941 11.8881 24.87 11.8881 26.375ZM21.8677 11.8089C21.8677 11.6997 21.9564 11.611 22.0654 11.611H27.1613C27.2705 11.611 27.3592 11.6997 27.3592 11.8089V21.014C27.3592 21.1232 27.2705 21.2119 27.1613 21.2119H22.0654C21.9564 21.2119 21.8677 21.1232 21.8677 21.014C21.8677 20.5917 21.8677 12.2432 21.8677 11.8089ZM7.39815 20.436H7.39737C6.92967 20.436 6.54913 20.0576 6.54862 19.592C6.54836 19.1237 6.9289 18.7427 7.39659 18.7424C8.75818 18.7416 5.66251 18.7419 9.65052 18.7419C9.92574 18.7419 10.1488 18.5188 10.1488 18.2433C10.1488 17.9681 9.92574 17.745 9.65052 17.745H7.51021C7.50995 17.745 7.50943 17.745 7.50943 17.745C7.50839 17.745 7.50788 17.745 7.50788 17.745C7.02098 17.745 6.6254 17.3383 6.64122 16.8498C6.65575 16.3985 7.05159 16.0312 7.52344 16.0312H7.8508C8.97711 16.0312 8.00255 16.0307 9.65026 16.0307C9.92574 16.0307 10.1488 15.8073 10.1488 15.5321C10.1488 15.2569 9.92574 15.0338 9.65026 15.0338C9.20357 15.0338 10.686 15.0343 7.8508 15.0343C7.37325 15.0343 6.98804 14.6403 7.00412 14.1578C7.01917 13.7069 7.41475 13.3402 7.88608 13.3402H8.12291C8.1268 13.3402 8.13069 13.3396 8.13458 13.3394H9.65026C9.92574 13.3394 10.1488 13.1163 10.1488 12.8411C10.1488 12.5658 9.92574 12.3428 9.65026 12.3428H8.1115C7.64977 12.3365 7.27597 11.9594 7.27597 11.4961C7.27597 11.0292 7.65599 10.6491 8.12291 10.6491H16.384H16.3876C17.4629 10.6491 17.8958 11.0676 18.3972 11.5521C18.895 12.0333 19.4589 12.5783 20.5814 12.5783H20.5837H20.8708V20.4179H20.3406C19.4166 20.4179 18.5409 20.7707 17.8753 21.4116L16.853 22.3961C15.2836 23.9071 15.1858 25.5877 15.0626 26.5182C14.9913 27.0601 14.5252 27.4686 13.9786 27.4686C13.3755 27.4686 12.885 26.9781 12.885 26.375C12.885 24.8959 12.8139 24.0811 13.204 22.8905L13.6953 21.3909C13.8492 20.9211 13.4982 20.4363 13.0035 20.4363H7.39815V20.436Z" fill="black"/>
<path d="M23.8789 14.1004H25.3479C25.6231 14.1004 25.8462 13.8771 25.8462 13.6019C25.8462 13.3267 25.6231 13.1036 25.3479 13.1036H23.8789C23.6037 13.1036 23.3806 13.3267 23.3806 13.6019C23.3806 13.8771 23.6037 14.1004 23.8789 14.1004Z" fill="black"/>
<path d="M18.2037 0.996762C26.1925 1.55266 32.4946 7.86644 33.0494 15.8425C33.0679 16.1055 33.2865 16.3063 33.5462 16.3063C33.5579 16.3063 33.5695 16.306 33.5812 16.3052C33.8559 16.286 34.0629 16.0479 34.0437 15.7735C33.4533 7.28824 26.7442 0.59184 18.273 0.00248396C17.9993 -0.0167116 17.7602 0.190549 17.7412 0.464993C17.722 0.739438 17.9293 0.977567 18.2037 0.996762Z" fill="black"/>
<path d="M2.56538 26.391L0.746733 32.3336C0.565931 32.9248 1.12053 33.4794 1.7117 33.2983L7.65428 31.4799C7.86803 31.4146 8.10278 31.4447 8.29889 31.5622C19.1138 38.0472 33.1571 30.9163 34.0443 18.167C34.0635 17.8926 33.8562 17.6545 33.5818 17.6353C33.3058 17.6161 33.069 17.8233 33.05 18.0978C32.223 29.9827 19.1234 36.8908 8.81146 30.7075C8.3736 30.4449 7.84572 30.3791 7.36272 30.5266L1.8235 32.2218L3.51868 26.6826C3.66653 26.1999 3.60065 25.6717 3.33813 25.2339C-2.8405 14.93 4.05096 1.82305 15.9475 0.995566C16.222 0.97637 16.4293 0.738242 16.4101 0.463797C16.3909 0.189093 16.1525 -0.0176487 15.8783 0.00128751C9.737 0.428259 4.33086 4.11329 1.71066 9.63357C0.909636 11.3215 0.394209 13.1248 0.178907 14.9935C-0.251955 18.731 0.566191 22.5499 2.48315 25.7467C2.60066 25.9428 2.63075 26.1776 2.56538 26.391Z" fill="black"/>
</g>
<defs>
<clipPath id="clip0">
<rect width="34" height="34" fill="white"/>
</clipPath>
</defs>
</svg>
