<svg width="84" height="84" viewBox="0 0 84 84" fill="none" xmlns="http://www.w3.org/2000/svg">
<path d="M22.1323 56.7981V73.8128H14.9939V56.7953" fill="#C97523"/>
<path d="M18.1779 56.7981V73.8128H14.9939V56.7953" fill="#A85613"/>
<path d="M18.563 60.5319C28.1275 60.5319 35.8811 48.3426 35.8811 33.3064C35.8811 18.2702 28.1275 6.08089 18.563 6.08089C8.99846 6.08089 1.24487 18.2702 1.24487 33.3064C1.24487 48.3426 8.99846 60.5319 18.563 60.5319Z" fill="#8CC928"/>
<path d="M18.563 60.5319C8.99748 60.5319 1.24487 48.342 1.24487 33.3066C1.24487 18.2711 8.99748 6.08137 18.563 6.08137C14.328 6.08137 10.8967 18.2713 10.8967 33.3067C10.8967 48.3421 14.328 60.5319 18.563 60.5319Z" fill="#82B20B"/>
<path d="M75.8613 43.2546V77.9184H30.3848V43.2546L53.2513 21.0727L75.8613 43.2546Z" fill="#E9EAEF"/>
<path d="M64.7339 31.0159V24.6129H76.1031V41.8432" fill="#9EB1B7"/>
<path d="M82.7553 70.655H55.3008V77.9187H82.7553V70.655Z" fill="#85C10D"/>
<path d="M32.3432 70.655H1.24487V77.9187H32.3432V70.655Z" fill="#85C10D"/>
<path d="M75.8613 44.6153V51.0945L53.123 29.3843L30.3848 51.0945V44.6153L51.3173 24.6793L53.123 23.0018L54.9275 24.6793L75.8613 44.6153Z" fill="#D2D4D8"/>
<path d="M53.1227 25.7786L27.2336 50.4959L23.6138 47.457L51.3175 21.0726L53.1227 19.3959L54.9277 21.0726L82.6316 47.457L79.0118 50.4959L53.1227 25.7786Z" fill="#EA4756"/>
<path d="M50.945 51.9474H35.9478V77.9179H50.945V51.9474Z" fill="#C97523"/>
<path d="M72.3799 51.9474H55.3008V66.9447H72.3799V51.9474Z" fill="#A0D9F2"/>
<path d="M72.3799 51.9474H55.3008V56.5047H72.3799V51.9474Z" fill="#C97523"/>
<path d="M53.1229 44.5302C55.427 44.5302 57.2947 42.6625 57.2947 40.3585C57.2947 38.0544 55.427 36.1867 53.1229 36.1867C50.8189 36.1867 48.9512 38.0544 48.9512 40.3585C48.9512 42.6625 50.8189 44.5302 53.1229 44.5302Z" fill="#413740"/>
<path d="M55.3 68.1898H72.3787C73.0665 68.1898 73.6238 67.6323 73.6238 66.9447V51.9471C73.6238 51.2595 73.0665 50.702 72.3787 50.702H55.3C54.6123 50.702 54.0549 51.2595 54.0549 51.9471V66.9447C54.0549 67.6325 54.6124 68.1898 55.3 68.1898ZM56.5451 65.6997V57.7495H71.1337V65.6997H56.5451ZM71.1337 53.1922V55.2595H56.5451V53.1922H71.1337Z" fill="black"/>
<path d="M82.7549 69.4097H77.1064V58.7582C77.1064 58.0707 76.5489 57.5132 75.8614 57.5132C75.1738 57.5132 74.6163 58.0707 74.6163 58.7582V69.4097H55.3001C54.6125 69.4097 54.055 69.9672 54.055 70.6547V76.6732H52.1909V51.947C52.1909 51.2594 51.6334 50.702 50.9458 50.702H35.9482C35.2606 50.702 34.7032 51.2594 34.7032 51.947V76.6732H33.5888V70.6547C33.5888 69.9672 33.0314 69.4097 32.3438 69.4097H31.6296V48.0197L53.1225 27.5001L74.6161 48.0207V52.9476C74.6161 53.6352 75.1736 54.1927 75.8612 54.1927C76.5488 54.1927 77.1063 53.6352 77.1063 52.9476V50.3981L78.1518 51.3963C78.6109 51.8345 79.326 51.8573 79.812 51.4494L83.4048 48.4335C83.5715 48.2935 83.7103 48.1194 83.7893 47.9167C83.9801 47.4278 83.8484 46.8964 83.4903 46.5553L77.3483 40.706V24.6129C77.3483 23.9253 76.7908 23.3678 76.1032 23.3678H64.7341C64.0466 23.3678 63.4891 23.9253 63.4891 24.6129V27.507L55.7752 20.1606L53.9702 18.4839C53.4926 18.0401 52.7536 18.0401 52.2754 18.4839L50.4591 20.1714L37.1218 32.8733C37.0281 23.407 33.8738 14.6228 28.7707 9.48257C28.2649 8.97316 27.4301 9.00597 26.9568 9.54606C26.5241 10.0394 26.5514 10.781 27.0139 11.2466C31.7395 16.0008 34.6364 24.3148 34.6364 33.3069C34.6364 33.9704 34.6164 34.6334 34.5852 35.2889L22.7551 46.5554C22.3972 46.8965 22.2654 47.4278 22.4562 47.9168C22.5353 48.1196 22.6741 48.2937 22.8406 48.4336L26.4333 51.4496C26.6654 51.6445 26.9497 51.7411 27.2336 51.7411C27.544 51.7411 27.8535 51.6256 28.0934 51.3966L29.14 50.3976V52.8125C26.1941 56.991 22.45 59.2877 18.5633 59.2877C14.3788 59.2877 10.403 56.6604 7.36837 51.8899C4.2228 46.9446 2.4903 40.3452 2.4903 33.3071C2.4903 26.269 4.2228 19.6695 7.36854 14.7244C10.4029 9.95392 14.3788 7.32662 18.5635 7.32662C20.0169 7.32662 21.4507 7.64359 22.8391 8.26998C23.4199 8.53199 24.1049 8.29853 24.4197 7.74449V7.74433C24.7821 7.10629 24.517 6.29401 23.8481 5.99296C22.1422 5.22482 20.37 4.83632 18.5635 4.83632C13.4971 4.83632 8.77505 7.87312 5.26755 13.3876C1.87064 18.727 0 25.8012 0 33.3067C0 40.8123 1.87064 47.8863 5.26723 53.2261C7.63137 56.9429 10.5477 59.5321 13.7489 60.8264V69.4095H9.96056V67.5569C9.96056 66.8751 9.43507 66.2807 8.75372 66.2602C8.04874 66.239 7.47042 66.8044 7.47042 67.5047V69.4097H5.96121V67.5571C5.96121 66.8752 5.43572 66.2808 4.75437 66.2603C4.04939 66.2392 3.47107 66.8045 3.47107 67.5049V69.4098H1.24507C0.557484 69.4098 0 69.9673 0 70.6549V77.9186C0 78.6062 0.557484 79.1637 1.24507 79.1637H32.3439C32.3451 79.1637 32.3461 79.1635 32.3471 79.1635H35.9482H50.9458H55.2968C55.2979 79.1635 55.2989 79.1637 55.2999 79.1637H82.7548C83.4424 79.1637 83.9998 78.6062 83.9998 77.9186V70.6549C84 69.967 83.4425 69.4097 82.7549 69.4097ZM65.979 25.8578H74.8581V38.3344L65.979 29.8785V25.8578ZM27.1802 48.8252L25.4805 47.3984L52.165 21.9851L53.1228 21.0954L54.0693 21.9745L80.7652 47.3984L79.0653 48.8254L53.9825 24.878C53.742 24.6483 53.4325 24.5335 53.1228 24.5335C52.8134 24.5335 52.5036 24.6483 52.2631 24.878L27.1802 48.8252ZM29.1396 56.7493V69.4097H27.5036V67.5047C27.5036 66.8172 26.9463 66.2597 26.2585 66.2597C25.5708 66.2597 25.0135 66.8172 25.0135 67.5047V69.4097H23.3774V60.8222C25.4381 59.9861 27.3845 58.6119 29.1396 56.7493ZM16.2391 61.5608C17.0034 61.7042 17.7791 61.7772 18.5632 61.7772C19.3463 61.7772 20.1219 61.7025 20.8873 61.5578V69.4095H16.2391V61.5608ZM2.49014 71.8998H14.9796C14.9843 71.8998 14.9892 71.9005 14.994 71.9005H22.1324C22.1371 71.9005 22.142 71.8998 22.1468 71.8998H31.099V76.6732H30.3849V76.6734H2.49014V71.8998ZM37.1935 76.6732V53.1921H49.7009V76.6732H37.1935ZM81.5099 76.6734H75.8614V76.6732H56.5451V71.8998H81.5099V76.6734Z" fill="black"/>
<path d="M47.9909 63.6043H45.8139C45.1262 63.6043 44.5688 64.1618 44.5688 64.8494C44.5688 65.537 45.1262 66.0945 45.8139 66.0945H47.9909C48.6786 66.0945 49.2359 65.537 49.2359 64.8494C49.2359 64.1618 48.6786 63.6043 47.9909 63.6043Z" fill="black"/>
<path d="M58.5407 40.3587C58.5407 37.3716 56.1103 34.9411 53.1231 34.9411C50.136 34.9411 47.7056 37.3716 47.7056 40.3587C47.7056 43.3459 50.136 45.7762 53.1231 45.7762C56.1103 45.7762 58.5407 43.3459 58.5407 40.3587ZM53.1229 43.286C51.5087 43.286 50.1955 41.9727 50.1955 40.3587C50.1955 38.7446 51.5087 37.4313 53.1229 37.4313C54.7371 37.4313 56.0504 38.7446 56.0504 40.3587C56.0506 41.9729 54.7373 43.286 53.1229 43.286Z" fill="black"/>
</svg>
