<svg width="34" height="34" viewBox="0 0 34 34" fill="none" xmlns="http://www.w3.org/2000/svg">
<g clip-path="url(#clip0)">
<path d="M28.7319 5.26866C22.3006 -1.16263 11.7762 -1.16263 5.34468 5.26866C-0.114126 10.7277 -0.938757 19.1346 2.86923 25.4852C3.05833 25.8006 3.10839 26.1804 3.00074 26.5321L1.18157 32.4765C1.11724 32.6867 1.31413 32.8833 1.52424 32.819L7.46864 31C7.82038 30.8924 8.19988 30.9422 8.51531 31.1316C14.8662 34.9395 23.2731 34.1149 28.7319 28.6561C35.1634 22.2243 35.1634 11.7002 28.7319 5.26866Z" fill="#E4EAF8"/>
<path d="M4.99475 26.5322C5.1024 26.1804 5.05233 25.8007 4.86323 25.4852C1.05525 19.1346 1.87988 10.7277 7.33894 5.26867C10.3023 2.30529 14.1347 0.708423 18.0353 0.476001C13.4706 0.203891 8.81285 1.80075 5.34468 5.26867C-0.114126 10.7277 -0.938757 19.1346 2.86923 25.4852C3.05833 25.8007 3.10839 26.1804 3.00074 26.5322L1.18157 32.4766C1.11724 32.6867 1.31387 32.8833 1.52424 32.819L3.23057 32.2968L4.99475 26.5322Z" fill="#D8DCE5"/>
<path d="M27.7311 18.5595C27.756 17.7891 27.133 17.1494 26.3662 17.1494H26.3636V17.1489H26.4775C27.2217 17.1484 27.8245 16.5442 27.824 15.8003C27.8232 15.0558 27.2193 14.4571 26.4754 14.4576C25.8549 14.4576 21.5281 14.4576 20.8687 14.4576C20.7123 14.4576 20.6018 14.3048 20.6503 14.1565L21.1419 12.6564C21.56 11.3799 21.4856 10.5106 21.4856 9.01543C21.4856 8.1358 20.7727 7.42297 19.8931 7.42297C19.0942 7.42297 18.419 8.01492 18.3144 8.80687C18.1987 9.68312 18.1207 11.2416 16.6719 12.6364L15.6496 13.6211C15.08 14.1694 14.3199 14.4758 13.5293 14.4758H12.3674V23.3151C12.7327 23.3148 13.2857 23.3148 13.2862 23.3148C15.2382 23.3135 15.06 25.2468 17.4877 25.2445H25.7506C26.4938 25.2445 27.0964 24.6419 27.0964 23.8987V23.8985C27.0964 23.1553 26.4938 22.5527 25.7506 22.5527H25.9875C26.719 22.5527 27.3436 21.9838 27.368 21.2529C27.3934 20.4887 26.7815 19.8609 26.0227 19.8609H26.3501C27.0824 19.8609 27.7075 19.2913 27.7311 18.5595Z" fill="#F5C5A9"/>
<path d="M26.6526 22.9016C26.4136 23.1177 26.098 23.2505 25.7506 23.2505H17.4877C15.06 23.2526 15.2385 21.3193 13.2862 21.3206C13.2857 21.3206 12.7327 21.3208 12.3674 21.3211V23.3151C12.7327 23.3148 13.2857 23.3148 13.2862 23.3148C15.2385 23.3135 15.06 25.2468 17.4877 25.2445H25.7506C26.4938 25.2445 27.0966 24.6419 27.0966 23.8987V23.8985C27.0966 23.5026 26.9247 23.1478 26.6526 22.9016Z" fill="#EEBDA4"/>
<path d="M11.8039 13.6815H6.70648C6.32205 13.6815 6.01025 13.9936 6.01025 14.378V23.5859C6.01025 23.9706 6.32205 24.2824 6.70648 24.2824H11.8039C12.1886 24.2824 12.5004 23.9706 12.5004 23.5859V14.378C12.5004 13.9936 12.1886 13.6815 11.8039 13.6815Z" fill="#00AAF0"/>
<path d="M8.00427 23.5859V14.378C8.00427 13.9936 8.31607 13.6815 8.7005 13.6815H6.7065C6.32181 13.6815 6.01001 13.9936 6.01001 14.378V23.5859C6.01001 23.9706 6.32181 24.2824 6.7065 24.2824H8.7005C8.31607 24.2824 8.00427 23.9706 8.00427 23.5859Z" fill="#039ADD"/>
<path d="M15.2906 13.2745C14.8115 13.736 14.1812 13.9899 13.5161 13.9899H12.915C12.7498 13.5279 12.3088 13.1959 11.7908 13.1959H6.69308C6.03421 13.1959 5.49829 13.7318 5.49829 14.3907V23.5986C5.49829 24.2575 6.03421 24.7937 6.69308 24.7937H11.7908C12.3716 24.7937 12.8567 24.3765 12.9633 23.8261H13.2733H13.2748C13.9949 23.8261 14.3186 24.1389 14.7669 24.5724C15.3127 25.0997 15.9915 25.7558 17.4696 25.7558H17.4742H25.7372C27.3268 25.7558 28.1719 23.8666 27.1112 22.6821C27.9874 22.0225 28.0863 20.8176 27.4194 20.03C28.3807 19.3587 28.4762 18.043 27.6909 17.2324C27.6839 17.2249 27.6767 17.2176 27.6694 17.2104C28.9545 16.0983 28.1727 13.9718 26.4635 13.9718C26.4635 13.9718 26.4624 13.9718 26.4619 13.9718H21.2265L21.6023 12.8244C22.0482 11.4631 21.9709 10.534 21.9709 9.0284C21.9709 7.87537 21.0329 6.93738 19.8799 6.93738C18.8351 6.93738 17.9438 7.71843 17.8068 8.75447C17.4711 11.3054 17.0592 11.5715 15.2906 13.2745ZM11.9885 23.5986C11.9885 23.7078 11.8997 23.7965 11.7905 23.7965H6.69308C6.58414 23.7965 6.49542 23.7078 6.49542 23.5986V14.3907C6.49542 14.2815 6.58414 14.1928 6.69308 14.1928H11.7905C11.8997 14.1928 11.9885 14.2815 11.9885 14.3907V23.5986ZM18.7954 8.88495C18.867 8.34306 19.3334 7.93425 19.8799 7.93425C20.483 7.93425 20.9738 8.42503 20.9738 9.02814C20.9738 10.5072 21.0451 11.3223 20.6547 12.5137L20.1632 14.0138C20.0094 14.4838 20.3606 14.9686 20.8553 14.9686H26.4624H26.4632C26.9309 14.9686 27.3117 15.3474 27.312 15.8132C27.3122 16.2815 26.9317 16.6625 26.464 16.663C25.5078 16.6638 27.6383 16.6636 24.2093 16.6636C23.9341 16.6636 23.711 16.8866 23.711 17.1621C23.711 17.4373 23.9341 17.6604 24.2093 17.6604H26.3501H26.3514H26.353C26.5882 17.6604 26.8092 17.7549 26.9747 17.9258C27.5153 18.484 27.1039 19.3751 26.3369 19.3751C24.6383 19.3751 25.9797 19.3756 24.2093 19.3756C23.9341 19.3756 23.711 19.5987 23.711 19.8741C23.711 20.1494 23.9341 20.3727 24.2093 20.3727C24.6562 20.3727 23.1735 20.3722 26.0095 20.3722C26.2412 20.3722 26.4575 20.4638 26.6186 20.6303C27.1434 21.173 26.7454 22.0668 25.9742 22.0668C25.9742 22.0668 25.9146 22.0674 24.2093 22.0674C23.9341 22.0674 23.711 22.2905 23.711 22.5659C23.711 22.8412 23.9341 23.0645 24.2093 23.0645H25.748C26.2103 23.0702 26.5846 23.4476 26.5846 23.9114C26.5846 24.3786 26.2043 24.7586 25.7372 24.7586H17.474C17.4727 24.7586 17.4714 24.7586 17.4701 24.7586C16.3946 24.7586 15.9614 24.34 15.4597 23.8554C14.962 23.3742 14.398 22.829 13.2751 22.829C13.2743 22.829 13.2735 22.829 13.273 22.829H12.9856V14.9871H13.5161C14.4403 14.9871 15.3163 14.634 15.9822 13.9928C17.8587 12.1858 18.4161 11.7495 18.7954 8.88495Z" fill="black"/>
<path d="M9.97659 21.3063H8.50735C8.23187 21.3063 8.00879 21.5296 8.00879 21.8049C8.00879 22.0801 8.23187 22.3034 8.50735 22.3034H9.97659C10.2521 22.3034 10.4752 22.0801 10.4752 21.8049C10.4752 21.5296 10.2518 21.3063 9.97659 21.3063Z" fill="black"/>
<path d="M18.1537 0.996571C26.145 1.55272 32.4487 7.86832 33.0038 15.8469C33.0222 16.1097 33.2411 16.3107 33.5008 16.3107C33.5122 16.3107 33.5241 16.3105 33.5358 16.3094C33.8105 16.2905 34.0175 16.0521 33.9986 15.7777C33.4079 7.29012 26.6968 0.591649 18.223 0.00203383C17.9496 -0.0171617 17.7101 0.190098 17.6909 0.464543C17.6717 0.739247 17.879 0.977375 18.1537 0.996571Z" fill="black"/>
<path d="M2.50978 26.3988L0.690612 32.3432C0.509551 32.9347 1.06441 33.4898 1.65584 33.3085L7.60023 31.4893C7.81398 31.4239 8.04874 31.454 8.24484 31.5718C10.8855 33.1551 13.9498 33.9891 17.0426 33.9891C25.9945 33.9886 33.3762 27.1088 33.998 18.1728C34.0172 17.8981 33.81 17.6599 33.5352 17.6407C33.2587 17.6215 33.0224 17.8288 33.0035 18.1035C32.1763 29.992 19.0727 36.9019 8.75767 30.7165C8.31981 30.454 7.79167 30.3881 7.30867 30.536L1.76764 32.2317L3.46333 26.6909C3.61119 26.2079 3.5453 25.6798 3.28253 25.2416C-2.89766 14.9347 3.99588 1.82385 15.8958 0.995846C16.1705 0.976651 16.3778 0.738522 16.3586 0.463818C16.3394 0.189374 16.1002 -0.0176271 15.8266 0.00130904C2.94531 0.897275 -3.99077 15.0506 2.42755 25.7545C2.54532 25.9506 2.57515 26.1856 2.50978 26.3988Z" fill="black"/>
</g>
<defs>
<clipPath id="clip0">
<rect width="34" height="34" fill="white"/>
</clipPath>
</defs>
</svg>
