<svg width="84" height="84" viewBox="0 0 84 84" fill="none" xmlns="http://www.w3.org/2000/svg">
<g clip-path="url(#clip0)">
<path d="M52.5972 63.0438L37.8847 31.9359L22.4244 34.4433L1.23083 69.9628H30.4815L52.5972 63.0438Z" fill="#665E66"/>
<path d="M30.4811 68.7632H74.7107C75.8247 58.7784 76.1725 48.7935 75.7574 38.8087C75.6508 36.228 75.4917 33.6473 75.2833 31.0666C75.2554 30.745 75.2292 30.4218 75.2013 30.1002C72.3138 27.2127 60.2995 17.2377 52.5967 17.2377C44.894 17.2377 29.9922 30.1002 29.9922 30.1002C29.9643 30.4218 29.9381 30.7434 29.9118 31.0649C29.7018 33.6456 29.5427 36.228 29.4361 38.8087C29.0193 48.7935 29.3671 58.7784 30.4811 68.7632Z" fill="#F1F1F4"/>
<path d="M75.7578 38.8087C75.0573 38.072 74.1763 37.2172 73.0852 36.2739C66.8312 30.8598 58.6789 26.7796 52.5971 24.1989C46.6449 26.7255 38.6502 30.7138 32.4289 35.9983C31.1886 37.0515 30.2026 38.0015 29.4364 38.8087C29.5431 36.228 29.7022 33.6456 29.9122 31.0649C34.3895 27.4391 41.2686 23.0127 51.5635 18.7635C52.2247 18.4895 52.9679 18.4895 53.6291 18.7635C63.9256 23.0144 70.808 27.4424 75.2837 31.0665L75.7578 38.8087Z" fill="#DFEAEF"/>
<path d="M42.8177 38.7199C42.0524 39.4853 41.5431 56.7377 42.7746 57.9692C43.8203 59.0149 61.5068 58.8806 62.4198 57.9677C63.08 57.3075 63.3392 39.6944 62.1108 38.4661C61.1596 37.515 43.8208 37.7168 42.8177 38.7199Z" fill="#90D8F9"/>
<path d="M27.1289 37.1214C27.1423 37.0986 28.5108 34.805 32.4283 31.4775C38.65 26.1931 46.6438 22.2039 52.5965 19.6786C58.6781 22.2584 66.8302 26.3394 73.0856 31.7528C76.7347 34.9107 78.0406 37.0803 78.0521 37.1008L82.7695 34.4441C82.5246 34.0092 76.5079 23.6844 53.6291 14.2419C52.9677 13.9689 52.225 13.9689 51.5637 14.2419C28.6847 23.6842 22.6682 34.0092 22.4232 34.4441L27.1407 37.1008L27.1289 37.1214Z" fill="#DD5790"/>
<path d="M42.6851 37.4981C49.2618 36.7845 55.9313 36.7845 62.5079 37.4981C63.081 37.5603 63.5341 38.0121 63.5981 38.585C64.3221 45.076 64.3221 51.6585 63.5981 58.1495C63.5343 58.7226 63.0811 59.1742 62.5079 59.2364C59.2196 59.5932 55.908 59.7716 52.5966 59.7716C49.285 59.7716 45.9734 59.5932 42.6851 59.2364C42.1118 59.1742 41.6589 58.7224 41.5949 58.1495C40.871 51.6585 40.871 45.076 41.5949 38.585C41.659 38.0121 42.112 37.5603 42.6851 37.4981ZM61.2564 39.8432C58.7886 39.6032 56.3086 39.467 53.827 39.4329V57.3015C56.3086 57.2675 58.7886 57.1312 61.2564 56.8913C61.8215 51.2297 61.8215 45.5047 61.2564 39.8432ZM43.9367 56.8913C46.4045 57.1312 48.8845 57.2675 51.3663 57.3015V39.4329C48.8845 39.4669 46.4045 39.6032 43.9367 39.8432C43.3718 45.5047 43.3718 51.2297 43.9367 56.8913Z" fill="black"/>
<path d="M21.352 33.8413C21.605 33.3915 27.8158 22.713 51.0926 13.1068C52.0624 12.7048 53.1308 12.705 54.0984 13.1061C60.308 15.6681 65.8532 18.5325 70.5803 21.6198C71.1493 21.9914 71.3092 22.754 70.9376 23.3228C70.566 23.8918 69.8033 24.0519 69.2346 23.6801C64.636 20.6766 59.2277 17.8843 53.1582 15.3802C52.801 15.2324 52.3915 15.2324 52.0332 15.3809C40.3178 20.2156 33.2116 25.2656 29.3132 28.6507C26.5799 31.0241 24.9921 32.9278 24.1847 34.0239L26.7789 35.4859C27.5761 34.4472 29.0925 32.6968 31.6325 30.5406C38.0533 25.0866 46.3158 21.0087 52.1167 18.5481C52.4238 18.4177 52.7705 18.4177 53.0776 18.5481C59.0067 21.0623 67.4303 25.2328 73.8904 30.8237C76.2426 32.8588 77.6581 34.4973 78.4161 35.4857L81.0081 34.0253C79.9565 32.5999 77.5936 29.8169 73.1475 26.4334C72.6068 26.022 72.502 25.2499 72.9134 24.7091C73.3249 24.1684 74.097 24.0637 74.6377 24.4752C81.2942 29.5404 83.5993 33.4131 83.8403 33.8381C84.0016 34.1224 84.0431 34.4594 83.9556 34.7744C83.8682 35.0894 83.6589 35.3565 83.374 35.5171L78.6573 38.1749C78.3692 38.3373 78.0276 38.3767 77.7096 38.2843C77.4084 38.1967 77.1526 37.9977 76.9938 37.7286C76.9884 37.7199 76.9684 37.6879 76.9346 37.6369C77.4235 48.036 77.09 58.535 75.9341 68.9015C75.8647 69.5244 75.3381 69.9956 74.7112 69.9956H30.4818C29.855 69.9956 29.3284 69.5244 29.2589 68.9015C28.103 58.5337 27.7698 48.0354 28.2597 37.6389C28.2241 37.6927 28.2 37.7308 28.1865 37.7524C27.9541 38.1263 27.5526 38.3335 27.1405 38.3335C26.9356 38.3335 26.728 38.2823 26.5374 38.1749L21.8206 35.5171C21.2288 35.183 21.019 34.4333 21.352 33.8413ZM31.5856 67.5342H73.6071C74.7647 56.5893 74.9965 45.5032 74.3001 34.5585C73.7319 33.9903 73.0632 33.3619 72.2801 32.6844C66.2328 27.4508 58.3309 23.4818 52.5974 21.0185C46.986 23.4301 39.2361 27.3107 33.2255 32.4163C32.3063 33.1967 31.5359 33.915 30.8946 34.5558C30.1963 45.4998 30.4276 56.5855 31.5856 67.5342Z" fill="black"/>
<path d="M0.174277 69.3335L4.90748 61.401C5.25562 60.8171 6.01146 60.6267 6.59453 60.9748C7.17827 61.3229 7.36907 62.0784 7.02077 62.6619L2.28756 70.5943C2.05738 70.9803 1.64871 71.1944 1.22985 71.1944C1.01526 71.1944 0.798042 71.1383 0.600511 71.0204C0.0167761 70.6724 -0.174027 69.917 0.174277 69.3335Z" fill="black"/>
<path d="M18.7625 38.1798C19.1106 37.5961 19.8663 37.4053 20.4495 37.7536C21.0332 38.1017 21.2241 38.8572 20.8757 39.4406L9.53099 58.4538C9.30081 58.8399 8.89213 59.054 8.47328 59.054C8.25869 59.054 8.04147 58.9979 7.84394 58.8799C7.2602 58.5318 7.0694 57.7763 7.4177 57.1928L18.7625 38.1798Z" fill="black"/>
<path d="M22.0549 46.4912C22.4032 45.9075 23.1588 45.7167 23.742 46.065C24.3257 46.4131 24.5165 47.1685 24.1682 47.752L10.5389 70.5945C10.3087 70.9805 9.90004 71.1946 9.48119 71.1946C9.2666 71.1946 9.04938 71.1385 8.85185 71.0205C8.26811 70.6724 8.07731 69.917 8.42561 69.3335L22.0549 46.4912Z" fill="black"/>
<path d="M22.947 57.9124C23.2953 57.3287 24.0508 57.138 24.6341 57.4862C25.2178 57.8345 25.4086 58.5898 25.0603 59.1734L18.2458 70.5946C18.0157 70.9806 17.607 71.1947 17.1881 71.1947C16.9735 71.1947 16.7563 71.1386 16.5588 71.0208C15.9751 70.6725 15.7842 69.9172 16.1325 69.3336L22.947 57.9124Z" fill="black"/>
</g>
<defs>
<clipPath id="clip0">
<rect width="84" height="84" fill="white" transform="matrix(-1 0 0 1 84 0)"/>
</clipPath>
</defs>
</svg>
