<svg width="84" height="84" viewBox="0 0 84 84" fill="none" xmlns="http://www.w3.org/2000/svg">
<path d="M82.6045 42.3724L73.8224 50.2468C73.6747 50.3792 73.6192 50.5864 73.6809 50.7749L77.354 61.9848C77.4468 62.2681 77.2728 62.5692 76.9811 62.6302L65.432 65.0449C65.2375 65.0856 65.0855 65.2375 65.0448 65.4321L62.6302 76.9811C62.5691 77.273 62.2681 77.4469 61.9848 77.354L50.775 73.6808C50.5865 73.619 50.3793 73.6746 50.2469 73.8222L42.3726 82.6043C42.1737 82.826 41.8266 82.826 41.6277 82.6043L33.7534 73.8222C33.621 73.6746 33.4138 73.6191 33.2253 73.6808L22.0154 77.3538C21.732 77.4467 21.431 77.2726 21.3699 76.9809L18.9553 65.4319C18.9146 65.2373 18.7625 65.0854 18.5681 65.0447L7.01906 62.6301C6.72719 62.569 6.55328 62.268 6.64614 61.9846L10.3193 50.7749C10.3812 50.5864 10.3256 50.3792 10.1779 50.2468L1.39548 42.3724C1.17384 42.1736 1.17384 41.8264 1.39548 41.6276L10.1776 33.7532C10.3252 33.6208 10.3807 33.4136 10.319 33.2251L6.64598 22.0152C6.55312 21.7319 6.72719 21.4308 7.01889 21.3698L18.5679 18.9551C18.7625 18.9144 18.9144 18.7624 18.9551 18.5679L21.3698 7.01892C21.4308 6.72706 21.7319 6.55315 22.0152 6.64601L33.2249 10.3192C33.4134 10.3811 33.6206 10.3254 33.753 10.1778L41.6275 1.39551C41.8264 1.17387 42.1735 1.17387 42.3724 1.39551L50.2467 10.1776C50.3791 10.3253 50.5863 10.3807 50.7749 10.319L61.9848 6.64601C62.2681 6.55315 62.5691 6.72722 62.6302 7.01892L65.0448 18.5679C65.0855 18.7625 65.2375 18.9144 65.432 18.9551L76.9811 21.3698C77.2729 21.4308 77.4468 21.7319 77.354 22.0152L73.6808 33.225C73.6189 33.4135 73.6745 33.6207 73.8222 33.7531L82.6043 41.6274C82.8263 41.8264 82.8263 42.1736 82.6045 42.3724Z" fill="#FECE85"/>
<path d="M28.3308 8.90401L21.5962 6.69622C21.7158 6.62239 21.8682 6.59794 22.0157 6.64536L28.7503 8.85151C28.6258 8.93009 28.4734 8.94978 28.3308 8.90401Z" fill="#FEC165"/>
<path d="M46.2944 72.1181L50.6328 73.6588C50.4886 73.6523 50.346 73.7113 50.2476 73.8227L42.3723 82.6045C42.1739 82.8258 41.8264 82.8258 41.6281 82.6045L38.9434 79.61L45.7664 72.2592C45.8993 72.1115 46.1058 72.0558 46.2944 72.1181Z" fill="#FEC165"/>
<path d="M61.3089 17.815L59.0718 7.59937L61.9842 6.64551C62.2677 6.5538 62.5693 6.72754 62.63 7.01924L65.0441 18.5676C65.0606 18.6496 65.0983 18.7233 65.1506 18.784L61.6956 18.2022C61.5024 18.1609 61.3499 18.0101 61.3089 17.815Z" fill="#FEC165"/>
<path d="M73.8225 50.2474C73.6751 50.3785 73.6193 50.5867 73.6816 50.7752L77.3546 61.9843C77.4464 62.2678 77.2726 62.5693 76.9809 62.63L65.4326 65.0442C65.2375 65.0852 65.0851 65.2377 65.0441 65.4327L62.6299 76.9811C62.5692 77.2728 62.2676 77.4465 61.9841 77.3548L58.4062 76.1828C58.5012 76.1122 58.5718 76.009 58.598 75.8828L61.1663 62.548C61.2073 62.3529 61.3581 62.2005 61.5531 62.1595L71.7132 60.237C72.0049 60.1763 72.1786 59.8748 72.0853 59.5929L68.7876 49.359C68.7253 49.1705 68.7811 48.964 68.9286 48.8312L76.481 42.3719C76.7023 42.1736 76.7023 41.8261 76.481 41.6279L68.6664 33.787C68.5189 33.6543 68.4631 33.4478 68.5238 33.2592L72.4607 20.5997C72.4787 20.5423 72.4869 20.485 72.4853 20.4292L76.9811 21.37C77.2728 21.4307 77.4465 21.7322 77.3548 22.0157L73.6818 33.2248C73.6194 33.4133 73.6752 33.6215 73.8227 33.7526L82.6045 41.6279C82.8258 41.8263 82.8258 42.1737 82.6045 42.3719L73.8225 50.2474Z" fill="#FEC165"/>
<path d="M42 67.6333C56.1569 67.6333 67.6333 56.1569 67.6333 42C67.6333 27.8431 56.1569 16.3667 42 16.3667C27.8431 16.3667 16.3667 27.8431 16.3667 42C16.3667 56.1569 27.8431 67.6333 42 67.6333Z" fill="#FDB441"/>
<path d="M67.6339 42C67.6339 56.1576 56.1578 67.6338 42.0002 67.6338C39.1238 67.6338 36.3587 67.1602 33.7773 66.2849C35.4459 66.6274 37.1733 66.8061 38.9433 66.8061C53.101 66.8061 64.5771 55.3299 64.5771 41.174C64.5771 29.8929 57.2901 20.3146 47.1662 16.8875C58.8472 19.277 67.6339 29.6125 67.6339 42Z" fill="#FEA613"/>
<path d="M28.3952 48.5479C30.3693 48.5479 31.9697 46.9476 31.9697 44.9735C31.9697 42.9994 30.3693 41.399 28.3952 41.399C26.4211 41.399 24.8208 42.9994 24.8208 44.9735C24.8208 46.9476 26.4211 48.5479 28.3952 48.5479Z" fill="#FB8801"/>
<path d="M55.6047 48.5479C57.5788 48.5479 59.1791 46.9476 59.1791 44.9735C59.1791 42.9994 57.5788 41.399 55.6047 41.399C53.6306 41.399 52.0303 42.9994 52.0303 44.9735C52.0303 46.9476 53.6306 48.5479 55.6047 48.5479Z" fill="#FB8801"/>
<path d="M21.4512 55.1706C21.0844 54.5993 20.3238 54.434 19.7527 54.8007C19.1814 55.1677 19.0159 55.9281 19.3827 56.4992C24.3555 64.2406 32.8104 68.8624 41.9999 68.8624C56.812 68.8624 68.8625 56.8119 68.8625 42C68.8625 27.1881 56.812 15.1376 41.9999 15.1376C27.1878 15.1376 15.1375 27.1879 15.1375 42C15.1375 45.1439 15.6759 48.2239 16.7377 51.1539C16.9692 51.7921 17.6739 52.1218 18.3122 51.8907C18.9504 51.6593 19.2804 50.9544 19.049 50.3162C18.0847 47.6556 17.5958 44.8576 17.5958 42C17.5958 28.5436 28.5433 17.596 41.9997 17.596C55.4563 17.596 66.4039 28.5436 66.4039 42C66.4039 55.4564 55.4565 66.404 41.9999 66.404C33.6512 66.404 25.9695 62.2046 21.4512 55.1706Z" fill="black"/>
<path d="M83.4251 40.7123L74.9974 33.1557L78.5223 22.3981C78.6754 21.9314 78.622 21.4197 78.3763 20.9944C78.1305 20.569 77.7136 20.2673 77.2327 20.1667L66.1505 17.8495L65.7879 16.115C65.6488 15.4504 64.9965 15.0247 64.3332 15.1633C63.6686 15.3023 63.2425 15.9534 63.3813 16.6181L63.8418 18.8203C63.9827 19.4926 64.5084 20.0179 65.1805 20.1584L75.9324 22.4063L72.513 32.842C72.2994 33.4934 72.4912 34.2101 73.0017 34.6684L81.1785 42L73.0017 49.3315C72.4912 49.7894 72.2992 50.5061 72.5128 51.1576L75.9322 61.5935L65.1802 63.8415C64.5076 63.9821 63.9821 64.5077 63.8415 65.1804L61.5933 75.9322L51.1576 72.5128C50.5061 72.2992 49.7889 72.4912 49.3316 73.0017L42 81.1786L34.6685 73.0019C34.2108 72.4913 33.4937 72.2994 32.8424 72.513L22.4065 75.9324L20.1585 65.1805C20.0179 64.5077 19.4923 63.9821 18.8196 63.8415L8.06777 61.5935L11.4872 51.1578C11.7008 50.5061 11.5088 49.7892 10.9983 49.3315L2.82138 42L10.9981 34.6685C11.5087 34.2108 11.7006 33.494 11.487 32.8424L8.06761 22.4065L18.8194 20.1585C19.4923 20.0179 20.0179 19.4923 20.1585 18.8196L22.4065 8.06777L32.8422 11.4872C33.4943 11.7008 34.2108 11.5088 34.6685 10.9983L42 2.82138L49.3316 10.9984C49.7895 11.509 50.5066 11.7009 51.1576 11.487L61.5937 8.06761L62.2153 11.0427C62.3544 11.7073 63.0072 12.1337 63.67 11.9944C64.3346 11.8555 64.7607 11.2042 64.6219 10.5397L63.8334 6.76758C63.7329 6.28655 63.4313 5.86983 63.0059 5.6239C62.5808 5.37813 62.0689 5.32481 61.602 5.47788L50.8443 9.00277L43.2877 0.574875C42.9601 0.209508 42.4907 0 42 0C41.5093 0 41.0399 0.209508 40.7123 0.574875L33.1557 9.00277L22.3981 5.47788C21.9315 5.32498 21.4197 5.37813 20.9944 5.6239C20.569 5.86966 20.2675 6.28638 20.1667 6.76725L17.8497 17.8495L6.76725 20.1666C6.28638 20.2673 5.8695 20.5688 5.62373 20.9943C5.37797 21.4195 5.32481 21.9312 5.47772 22.398L9.0026 33.1556L0.574711 40.7123C0.209508 41.0399 0 41.5093 0 42C0 42.4907 0.209508 42.9601 0.574875 43.2877L9.00277 50.8443L5.47788 61.6019C5.32481 62.0686 5.37813 62.5803 5.6239 63.0056C5.86966 63.431 6.28638 63.7325 6.76741 63.8333L17.8497 66.1503L20.1667 77.2327C20.2675 77.7136 20.569 78.1305 20.9944 78.3761C21.4198 78.6219 21.9314 78.675 22.3981 78.5221L33.1557 74.9972L40.7124 83.4251C41.0401 83.7903 41.5093 83.9998 42 83.9998C42.4907 83.9998 42.9601 83.7903 43.2877 83.425L50.8444 74.9971L61.6017 78.5219C62.0688 78.6749 62.5805 78.6217 63.0057 78.3759C63.431 78.1302 63.7327 77.7133 63.8331 77.2326L66.1505 66.1503L77.2329 63.8331C77.7138 63.7325 78.1305 63.4308 78.3763 63.0056C78.622 62.5802 78.6754 62.0686 78.5223 61.6019L74.9976 50.8443L83.425 43.2879C83.7905 42.9603 84.0002 42.4909 84.0002 42C84.0002 41.5091 83.7903 41.0397 83.4251 40.7123Z" fill="black"/>
<path d="M34.5246 39.0733V35.9748C34.5246 35.2959 33.9742 34.7457 33.2955 34.7457C32.6168 34.7457 32.0662 35.2959 32.0662 35.9748V39.0733C32.0662 39.7522 32.6166 40.3024 33.2955 40.3024C33.9744 40.3024 34.5246 39.7522 34.5246 39.0733Z" fill="black"/>
<path d="M51.9338 39.0733V35.9748C51.9338 35.2959 51.3836 34.7457 50.7045 34.7457C50.0254 34.7457 49.4753 35.2959 49.4753 35.9748V39.0733C49.4753 39.7522 50.0256 40.3024 50.7045 40.3024C51.3834 40.3024 51.9338 39.7522 51.9338 39.0733Z" fill="black"/>
<path d="M42 55.4516C45.1226 55.4516 47.8861 53.4632 48.8764 50.5037C49.0918 49.8599 48.7445 49.1633 48.1007 48.9479C47.4575 48.7325 46.7603 49.0796 46.5449 49.7236C45.8904 51.6792 44.0639 52.9932 41.9998 52.9932C39.9356 52.9932 38.1091 51.679 37.455 49.7232C37.2396 49.0794 36.543 48.7321 35.8992 48.9474C35.2554 49.1628 34.9081 49.8592 35.1233 50.5032C36.1138 53.463 38.8773 55.4516 42 55.4516Z" fill="black"/>
</svg>
