<svg width="98" height="147" viewBox="0 0 98 147" fill="none" xmlns="http://www.w3.org/2000/svg">
<path d="M78.3599 39.29V49.04H88.0999V78.27H78.3599V88.01H68.6099V97.75H78.3599V107.49H88.0999V146.47H97.8499V39.29H78.3599Z" fill="#FFBF00"/>
<path d="M58.8699 68.52H39.3799V78.27H58.8699V68.52Z" fill="white"/>
<path d="M68.6101 19.8H29.6401V29.55H68.6101V19.8Z" fill="#FFBF00"/>
<path d="M19.8901 78.27H10.1401V49.04H19.8901V39.29H0.410156V146.47H10.1401V107.49H19.8901V97.75H29.6401V88.01H19.8901V78.27Z" fill="#FFBF00"/>
<path d="M88.0999 19.8001V10.0501H78.3599V0.310059H19.8899V10.0501H10.1399V19.8001H0.399902V39.2901H97.8398V19.8001H88.0999ZM29.6399 29.5501V19.8001H68.6399V29.5501H29.6399Z" fill="black"/>
<path d="M78.3599 49.03H68.6099V58.77H78.3599V49.03Z" fill="black"/>
<path d="M78.3601 49V58.74H68.6101V49H78.3601V39.25H19.8901V49H29.6401V58.74H19.8901V49H10.1401V78.23H19.8901V88H39.3801V107.49H58.8701V88H78.3701V78.26H88.1101V49H78.3601ZM39.3601 78.23V68.48H58.8501V78.23H39.3601Z" fill="#FEDCC7"/>
<path d="M29.6401 49.03H19.8901V58.77H29.6401V49.03Z" fill="black"/>
</svg>
