<svg width="98" height="99" viewBox="0 0 98 99" fill="none" xmlns="http://www.w3.org/2000/svg">
<path d="M68.6102 20.19V29.94H10.1501V68.94H19.8902V78.69H39.3902V98.18H58.8802V78.66H78.3701V68.91H88.1201V20.19H68.6102ZM19.8902 39.68H29.6402V49.43H19.8902V39.68ZM49.1201 68.91H39.3802V59.16H58.8701V68.91H49.1201ZM78.3502 49.42H68.6002V39.67H78.3502V49.42Z" fill="#FEDCC7"/>
<path d="M97.8501 20.19H88.1101V49.42H97.8501V20.19Z" fill="#FFBF00"/>
<path d="M29.6401 39.68H19.8901V49.43H29.6401V39.68Z" fill="black"/>
<path d="M78.3602 10.45V0.710022H19.8902V10.45H10.1602V20.19H0.410156V49.43H10.1602V29.94H68.6102V20.19H88.1102V10.45H78.3602Z" fill="#FFBF00"/>
<path d="M78.3601 39.68H68.6101V49.43H78.3601V39.68Z" fill="black"/>
</svg>
