<svg width="138" height="128" viewBox="0 0 138 128" fill="none" xmlns="http://www.w3.org/2000/svg">
<path d="M49.6401 39.55H39.8901V49.3H49.6401V39.55Z" fill="black"/>
<path d="M98.3601 29.81H88.6101V39.55H98.3601V29.81Z" fill="#FEDCC7"/>
<path d="M49.6401 29.81H39.8901V39.55H49.6401V29.81Z" fill="#FEDCC7"/>
<path d="M78.8801 59.04H69.1301V68.79H78.8801V59.04Z" fill="white"/>
<path d="M69.1301 59.04H59.3901V68.79H69.1301V59.04Z" fill="white"/>
<path d="M98.3601 39.55H88.6101V49.3H98.3601V39.55Z" fill="black"/>
<path d="M98.3601 39.55V49.3H88.6101V39.55H49.6101V49.3H39.8601V39.55H30.1201V68.78H39.8601V78.53H59.3601V98H49.6101V107.74H59.3601V117.49H78.8501V107.74H88.5901V98H78.8501V78.53H98.3401V68.78H108.09V39.55H98.3601ZM69.1301 68.78H59.3901V59H78.8801V68.75L69.1301 68.78Z" fill="#FEDCC7"/>
<path d="M127.59 68.78V59.03H117.84V49.3H127.59V39.55H117.84V20.06H108.11V10.32H98.36V0.580017H39.89V10.32H30.16V20.06H20.41V29.81H10.67V39.55H20.41V49.3H10.67V59.03H20.41V68.78H10.67V59.03H0.920044V78.53H20.41V88.27H10.67V98.02H20.41V107.75H10.67V98.02H0.920044V127.25H20.41V117.5H30.16V88.27H39.89V98.02H59.39V78.53H39.89V68.78H30.16V39.55H39.89V29.81H49.64V39.55H88.61V29.81H98.36V39.55H108.11V68.78H98.36V78.53H78.87V98.02H108.11V127.25H117.84V117.5H127.59V107.75H137.33V98.02H127.59V88.27H117.84V78.53H127.59V88.27H137.33V68.78H127.59Z" fill="#FFBF00"/>
</svg>
