<svg width="138" height="128" viewBox="0 0 138 128" fill="none" xmlns="http://www.w3.org/2000/svg">
<path d="M98.3599 39.93H88.6099V49.68H98.3599V39.93Z" fill="black"/>
<path d="M78.8699 59.42H59.3799V69.17H78.8699V59.42Z" fill="white"/>
<path d="M49.6399 39.93H39.8899V49.68H49.6399V39.93Z" fill="black"/>
<path d="M98.3599 39.93V49.68H88.6099V39.93H59.3799V30.19H49.6399V20.44H39.8899V30.19H30.1399V69.19H39.8899V78.94H59.3799V98.4H49.6399V108.14H88.6399V98.4H78.8899V78.91H98.3899V69.16H108.13V39.93H98.3599ZM39.8899 39.93H49.6399V49.68H39.8899V39.93ZM69.1199 69.16H59.3699V59.41H78.8599V69.16H69.1199Z" fill="#E6C9B2"/>
<path d="M127.58 59.42V69.17H117.85V59.42H127.58V49.68H117.85V39.93H127.58V30.19H117.85V20.45H108.1V10.7H98.3599V0.960022H39.89V10.7H30.14V20.45H20.4099V39.93H10.6599V49.68H20.4099V69.17H0.919922V88.65H10.6599V78.91H20.4099V88.65H10.6599V98.4H0.919922V108.14H10.6599V117.88H20.4099V127.63H30.14V108.14H39.89V98.4H59.3799V78.91H39.89V69.17H30.14V30.19H39.89V20.45H49.64V30.19H59.3799V39.93H108.1V69.17H98.3599V78.91H78.8599V98.4H98.3599V108.14H108.1V117.88H117.85V127.63H137.33V98.4H127.58V108.14H117.85V98.4H127.58V88.65H117.85V78.91H137.33V59.42H127.58Z" fill="#502A1B"/>
</svg>
