<svg width="98" height="99" viewBox="0 0 98 99" fill="none" xmlns="http://www.w3.org/2000/svg">
<path d="M58.8701 59.03H39.3801V68.78H58.8701V59.03Z" fill="white"/>
<path d="M88.1001 39.55V29.81H78.3501V20.06H49.1301V29.81H10.1301V39.55H0.390137V49.3H10.1301V59H29.6201V68.75H39.3701V59H58.8601V68.75H68.6101V59H88.1001V49.3H97.8501V39.55H88.1001ZM19.9001 49.3V39.55H29.6401V49.3H19.9001ZM68.6201 49.3V39.55H78.3601V49.3H68.6201Z" fill="#E6C9B2"/>
<path d="M88.1002 20.06V10.32H78.3502V0.580017H19.8902V10.32H10.1402V20.06H0.410156V39.55H10.1402V29.81H49.1302V20.06H78.3502V29.81H88.1002V39.55H97.8502V20.06H88.1002Z" fill="black"/>
<path d="M68.6101 59.03V68.78H29.6301V59.03H19.8901H10.1401V68.78H19.8901V78.53H78.3501V68.78H88.1001V59.03H78.3501H68.6101Z" fill="black"/>
<path d="M78.3501 39.55H68.6101V49.3H78.3501V39.55Z" fill="black"/>
<path d="M29.6301 39.55H19.8901V49.3H29.6301V39.55Z" fill="black"/>
<path d="M58.8701 78.53H39.3801V98.02H58.8701V78.53Z" fill="#E6C9B2"/>
</svg>
