<svg width="98" height="99" viewBox="0 0 98 99" fill="none" xmlns="http://www.w3.org/2000/svg">
<path d="M88.1101 49.42V29.93H78.3601V10.45H58.8701V20.2H39.3901V10.45H19.8901V29.94H10.1501V49.43H0.400146V59.18H10.1501V68.93H19.8901V78.67H39.3901V98.16H58.8801V78.65H78.3701V68.91H88.1201V59.16H97.8601V49.41L88.1101 49.42ZM78.3601 49.42H68.6101V39.68H78.3601V49.42ZM19.8901 39.68H29.6401V49.42H19.8901V39.68ZM39.3901 68.91V59.16H58.8801V68.91H39.3901Z" fill="#CF9E76"/>
<path d="M78.3601 39.68H68.6101V49.42H78.3601V39.68Z" fill="black"/>
<path d="M58.8801 59.17H39.3901V68.92H58.8801V59.17Z" fill="white"/>
<path d="M19.8901 0.700012V10.45H39.3901V20.19H58.8701V10.45H78.3601V0.700012H19.8901Z" fill="black"/>
<path d="M88.1101 20.19V10.45H78.3601V29.93H88.1101V49.42H97.8501V20.19H88.1101Z" fill="black"/>
<path d="M29.6401 39.68H19.8901V49.42H29.6401V39.68Z" fill="black"/>
<path d="M10.1502 20.19H0.410156V49.42H10.1502V29.93H19.8902V10.45H10.1502V20.19Z" fill="black"/>
</svg>
