<svg width="98" height="108" viewBox="0 0 98 108" fill="none" xmlns="http://www.w3.org/2000/svg">
<path d="M58.8701 68.17H49.1301V77.92H58.8701V68.17Z" fill="white"/>
<path d="M49.1301 68.17H39.3801V77.92H49.1301V68.17Z" fill="white"/>
<path d="M88.1001 58.42V38.93H10.1001V58.42H0.360107V68.17H10.1001V77.92H19.8501V87.66H39.3401V107.15H58.8301V87.65H78.3301V77.91H88.0701V68.16H97.8201V58.41L88.1001 58.42ZM29.6401 58.42H19.8901V48.68H29.6401V58.42ZM58.8601 77.92H39.3701V68.17H58.8601V77.92ZM78.3601 58.42H68.6101V48.68H78.3601V58.42Z" fill="#FEDCC7"/>
<path d="M97.8501 38.93H88.1001V58.42H97.8501V38.93Z" fill="#FFBF00"/>
<path d="M68.6101 19.45H29.6401V29.2H68.6101V19.45Z" fill="#FFBF00"/>
<path d="M10.1502 38.93H0.410156V58.42H10.1502V38.93Z" fill="#FFBF00"/>
<path d="M88.1001 19.45V9.7H78.3601V0H19.8901V9.74001H10.1401V19.49H0.400146V38.98H97.8401V19.45H88.1001ZM29.6401 29.2V19.45H68.6401V29.2H29.6401Z" fill="black"/>
<path d="M78.3601 48.68H68.6101V58.42H78.3601V48.68Z" fill="black"/>
<path d="M29.6401 48.68H19.8901V58.42H29.6401V48.68Z" fill="black"/>
</svg>
